<svg xmlns="http://www.w3.org/2000/svg" viewBox="0 0 186 56" width="186" height="56" fill="none">
    <path fill="#E37025"
          d="M116.1 49.6c-3.4.1-4.2.1-7.1.1 0-1.2-.1-2.3-.1-4.3 0-.6 0-6.8.3-11.6l-.2-.2c-1.3.1-1.6.1-3 .1l-.2.2c.1 2.1.2 4.3.2 8.2 0 4.5-.1 7.6-.1 9.7l.2.2c4.9-.1 5.2-.1 9.8-.1l.1-.2c.1-.7.1-1.1.1-2zM122.399 33.6c-1.3.1-1.7.1-2.9.1l-.1.2c.2 3.9.2 7.7.2 11.6 0 3.3-.1 4.7-.1 6.3l.2.2c1.4-.1 1.7-.1 2.9-.1l.2-.2c-.2-2.7-.2-4.8-.2-9.7 0-4.4 0-6.5.1-8.2zM135.7 51.801c.1-.4.2-.7.3-1 .8-2.6 1.6-5.2 2.5-7.8.4-1.4 2.4-7.9 2.8-9.1l-.1-.2c-1.2.1-1.3.1-2.6.1l-.2.2c-.7 2.7-1.5 5.4-2.2 8.1l-2.3 8.1-2.2-8.1c-1.5-5.7-1.7-6.4-2.2-8.2l-.2-.2c-1.3.1-1.5.1-3 .1l-.1.2c.1.4 2.4 7.8 2.8 9.2.9 2.9 1.7 5.8 2.6 8.7l.2.2c1.9-.1 2-.1 3.7-.1zM148.2 33.6c-1.3.1-1.7.1-2.9.1l-.1.2c.2 3.9.2 7.7.2 11.6 0 3.3-.1 4.7-.1 6.3l.2.2c1.4-.1 1.7-.1 2.9-.1l.2-.2c-.2-2.7-.2-4.8-.2-9.7 0-4.4.1-6.5.1-8.2zM167.4 50.7c-.1-2.4-.1-4.9-.1-7.3 0-3.2.1-6.4.1-9.6l-.2-.2c-1 .1-1.3.1-2.5.1l-.2.2c.1 1.8.1 2.4.2 6.4l.2 8.6-3.2-5.7c-1.7-3-3.5-6.3-5.3-9.4l-.3-.2c-1.5.1-1.7.1-3.3.1l-.1.2c.1 3.5.2 7.1.2 10.6 0 2.5 0 4.9-.1 7.4l.2.2c1.2-.1 1.3-.1 2.5-.1l.2-.2c-.1-1.1-.1-1.1-.1-3.3 0-1.1-.1-2.1-.1-3.2l-.3-8.9 4.1 7.3c1.5 2.7 3.1 5.4 4.6 8.1l.2.2c1.5-.1 1.7-.1 3.2-.1l.1-.2zM185.8 43c-1.2.1-1.5.1-2.9.1l-.2.2c.1 1 .2 2.5.2 4.5v1.9c-.6.2-1.4.4-2.7.4-4.2 0-6.4-2.8-6.4-7 0-1.2.1-3.4 1.4-5.2 1.6-2.2 3.8-2.3 4.8-2.3 2.4 0 3.9 1 4.8 1.6l.2-.1c.1-1.2.2-1.6.3-2.5l-.1-.2c-.7-.3-2.5-1.1-5.3-1.1-1.4 0-4.4.1-6.7 2.7-1.4 1.6-2.5 4-2.5 7s1 5.2 2.3 6.6c1.9 2.1 4.7 2.7 7.2 2.7 1.9 0 3.7-.3 5.5-1.1l.2-.2c0-.8-.1-1.2-.1-2.3 0-1.6 0-3.6.1-5.7z"/>
    <path fill="#104676"
          d="M46.9 44.3h5.5L50.1 36c.6-1.1 1.6-2.2 1.9-2.4h.1l.2.2.1.5c.9 2.8 1.8 6 2.6 8.5s2.1 6.5 2.9 8.9l-.1.2c-1.3 0-1.9.1-3 .1l-.2-.2c-.6-2.4-.9-3.1-1.5-5.4h-6.4c0-.3.1-.7.1-1 0-.4 0-.8.1-1.1M7.9 35.6l2.5 8.7H5.2zm2.3-1.8-.2-.2c-1.7.1-1.9.1-3.7.1l-.2.2c-.7 2.5-1.3 4.2-2.9 8.7-.9 2.8-1.9 5.6-2.9 8.3-.1.3-.2.5-.3.8l.1.2c1.3-.1 1.5-.1 2.7-.1l.2-.2c.6-2.3.8-2.9 1.5-5.3H11c.7 2.3.9 3 1.5 5.5l.2.2c1.1-.1 1.7-.1 3-.1l.1-.2c-.8-2.5-2.1-6.5-2.9-8.9-.8-2.5-1.8-5.7-2.6-8.5zM37.6 33.6c-1.8.1-2 .1-3.9.1l-.2.2c-.4 1.4-.4 1.6-1.5 4.9l-3.3 10.8-2.8-10.4c-.5-1.8-1-3.3-1.4-5.3l-.2-.2c-1.6.1-2.1.1-4 .1l-.2.2c0 2.3 0 2.6-.3 7.2-.2 3.1-.3 6.1-.5 9.2-.1.5-.1 1.1-.2 1.6l.1.2c1.1-.1 1.2-.1 2.5-.1l.1-.2c0-2 0-2.7.1-5.7l.4-4.8c.1-2.6.1-3.1.1-5.7.4 1.7.5 2.1 1.5 5.8l1 3.6c.3.9 1.4 4.7 1.6 5.5.1.4.3.9.4 1.3l.2.2c1.5-.1 1.6-.1 3-.1l.2-.2c.6-2 .9-3 1.9-5.9l1.2-3.7c1.1-3.6 1.5-5 1.9-6.5v6.8l.1 2.7c.1 2.8.1 3.7.1 6.7l.2.2c1.3-.1 1.5-.1 2.8-.1l.1-.2c-.3-6-.5-12-.7-17.9zM76.2 50.7c-.1-2.4-.1-4.9-.1-7.3 0-3.2.1-6.4.1-9.6l-.2-.2c-1 .1-1.3.1-2.5.1l-.2.2c.1 1.8.1 2.4.2 6.4l.2 8.6-3.2-5.7c-1.7-3-3.5-6.3-5.3-9.4l-.3-.2c-1.5.1-1.7.1-3.3.1l-.1.2c.1 3.5.2 7.1.2 10.6 0 2.5 0 4.9-.1 7.4l.2.2c1.2-.1 1.3-.1 2.5-.1l.2-.2c-.1-1.1-.1-1.1-.1-3.3 0-1.1-.1-2.1-.1-3.2l-.3-8.9 4.1 7.3c1.5 2.7 3.1 5.4 4.6 8.1l.2.2c1.5-.1 1.7-.1 3.2-.1l.1-.2zM88.1 35.6l2.5 8.7h-5.2zm2.3-1.8-.2-.2c-1.7.1-1.9.1-3.7.1l-.2.2c-.8 2.5-1.3 4.2-2.9 8.7-.9 2.8-1.9 5.6-2.9 8.3-.1.3-.2.5-.3.8l.1.2c1.3-.1 1.5-.1 2.7-.1l.2-.2c.6-2.3.8-2.9 1.5-5.3h6.5c.7 2.3.9 3 1.5 5.5l.2.2c1.1-.1 1.7-.1 3-.1l.1-.2c-.8-2.5-2.1-6.5-2.9-8.9-.8-2.5-1.8-5.7-2.6-8.5z"/>
    <path fill="#E37025"
          d="M81.9 11.6c-.6.5-3.9 3.1-6.7 4.9-4.5 3.1-12.1 7.4-15.8 9.5 5-4.2 9.5-9 13.1-14.4 3.3.2 6.6.2 9.4 0m-7.3 4c1.3-.9 2.6-1.9 3.8-2.7-1.7 0-3.5 0-5.3-.1-1.8 2.7-3.9 5.3-6.1 7.7 2.7-1.8 5.5-3.5 7.6-4.9"/>
    <path fill="#104676"
          d="M57.2 24.801c.8-1.9 3-7.6 4.1-11 .3-1 1-3.2 1.3-4.1 2.2.8 4.8 1.3 7.4 1.6-3.4 5-7.8 9.4-12.8 13.5m5.2-10.6c-.6 1.9-1.6 4.6-2.5 6.9 3-2.8 5.8-5.7 8.3-8.9-1.7-.3-3.3-.6-4.7-1.1-.4 1-.8 2.3-1.1 3.1"/>
    <path fill="#E37025"
          d="M63.6 7.7c1.1-.6 5-2.7 7.2-4 1.6-1 4.4-3 5.4-3.7-1.2 3.3-2.8 6.5-4.6 9.4-1.2-.1-2.3-.3-3.3-.5-2.2-.5-3.8-.9-4.7-1.2m7.7-3.1c-1.3.8-3.2 1.9-4.8 2.7.6.1 1.2.3 1.9.4.8.1 1.6.3 2.5.4q1.5-2.4 2.7-5.1c-.8.6-1.6 1.2-2.3 1.6"/>
    <path fill="#104676"
          d="m78.3.3 4.5 9c-3.3.3-6.3.4-8.9.2 1.1-1.9 2.1-3.8 3-5.8.6-1.3 1-2.4 1.4-3.4m2.8 8L78.4 3c-.2.4-.3.7-.5 1.1-.7 1.5-1.4 2.9-2.2 4.4 1.7 0 3.5 0 5.4-.2M59.4 26c-2.8 2.1-5.4 4-7.9 6.4-4.7 4.6-7.1 11.9-6.3 18.4.1.4.2 1.3.5 2.1.1.3.2.5.3.8.2.5.7 1.1.7 1.1l-.1.3c-1.3 0-2.5.1-3.6.1l-.2-.2v-.2c-1.4-7.5 1-16.3 6.8-21.6 3.4-3.3 6.6-5.2 9.8-7.2"/>
</svg>