<?xml version="1.0" encoding="UTF-8"?>
<svg xmlns="http://www.w3.org/2000/svg" xmlns:xlink="http://www.w3.org/1999/xlink" preserveAspectRatio="xMidYMid slice" width="249px" height="190px" viewBox="0 0 142 108" version="1.1">
  <title>Amana Living Logo</title>
  <g id="Desktop" stroke="none" stroke-width="1" fill="none" fill-rule="evenodd">
    <g id="Home" transform="translate(-120.000000, -18.000000)">
      <g id="Amana-Living-Logo" transform="translate(120.000000, 18.000000)">
        <path d="M69.2597227,65.1576711 L70.399073,65.1576711 C71.3904709,65.1670021 72.3807037,65.1926623 73.3721016,65.1926623 C74.6687241,65.1926623 76.0399054,65.154172 77.3749723,65.154172 L73.9056623,52.9259246 C74.733963,51.3104989 76.2577566,49.7417281 76.6421999,49.3579916 L76.8041321,49.3509934 L77.0697475,49.6169263 L77.2608042,50.3074187 C78.5189825,54.5040263 79.9670524,59.2371652 81.1122276,62.8634168 C82.2935171,66.529325 84.1994241,72.4078415 85.3434343,76.0725834 L85.191987,76.3770065 C83.2091913,76.4143305 82.3715708,76.4539871 80.7685585,76.5298013 L80.5006132,76.2627021 C79.5499896,72.6737744 79.2435999,71.645034 78.2522021,68.2089011 C76.7260785,68.2089011 75.2407292,68.1692445 73.7146056,68.1692445 C72.0708191,68.1692445 70.3524738,68.2065684 68.8484848,68.2089011 C68.8834342,67.6991964 68.9323634,67.1976563 68.9987672,66.7159446 C69.0803158,66.1537531 69.1665243,65.6370502 69.2597227,65.1576711" id="Fill-1" fill="#514E86"></path>
        <path d="M11.4378401,52.2529277 L15.0616873,65.1553384 C13.7410937,65.1553384 12.3789793,65.1938287 11.0975998,65.1938287 C9.8911885,65.1938287 8.6824705,65.1553384 7.4737525,65.1553384 L11.4378401,52.2529277 Z M14.7595078,49.619259 L14.4942358,49.3509934 C12.0791065,49.4652979 11.7400196,49.4652979 9.09767897,49.5049545 L8.79549947,49.7720538 C7.7009638,53.4367956 6.87054686,55.9176696 4.60535397,62.6744645 C3.24554623,66.7975906 1.84998442,70.9078867 0.416361829,75.0100182 C0.264118723,75.3914219 0.113028973,75.7704929 0,76.1880542 L0.15108975,76.4551535 C2.03798158,76.3396826 2.41628264,76.3396826 4.04020911,76.3396826 L4.30317447,76.0749161 C5.20855961,72.6924364 5.43577092,71.7803332 6.53030658,68.2089011 C8.04120408,68.2089011 9.77585281,68.1704109 11.4378401,68.1704109 C12.9475842,68.1704109 14.4192676,68.2089011 15.9301651,68.2089011 C16.9116717,71.6438676 17.2126979,72.6761072 18.1561438,76.2627021 L18.4214159,76.5298013 C20.0072816,76.4551535 20.8342385,76.4166632 22.7995586,76.3770065 L22.9494949,76.0725834 C21.8168985,72.4078415 19.9300067,66.529325 18.7616562,62.8657495 C17.6290597,59.2383316 16.1942838,54.5051927 14.9486584,50.3062523 L14.7595078,49.619259 Z" id="Fill-3" fill="#514E86"></path>
        <path d="M56.1364405,49.3509934 C53.4694047,49.4256412 53.1211198,49.4652979 50.3017832,49.4652979 L50.0691997,49.7312308 C49.489512,51.8318673 49.4139518,52.0231524 47.8661502,56.9849003 L42.9606461,72.901217 L38.7469892,57.4817749 C37.9748593,54.8865964 37.3196115,52.6716554 36.6242223,49.6180926 L36.3526782,49.3509934 C33.9194064,49.4256412 33.2228366,49.4652979 30.3869712,49.4652979 L30.1532071,49.7312308 C30.1532071,53.0927158 30.1177883,53.5114435 29.7305427,60.3067286 C29.4589986,64.8485825 29.3031558,69.3916027 28.9182715,73.9334565 C28.8427114,74.696264 28.7624288,75.4987282 28.6868687,76.2615357 L28.8781302,76.5298013 C30.5038532,76.4154968 30.7364367,76.4154968 32.601827,76.4154968 L32.7942691,76.1472312 C32.8344104,73.170649 32.8344104,72.1768998 32.9890726,67.6723699 L33.2617973,60.8409272 C33.3786794,57.0233905 33.4164594,56.1836025 33.4542395,52.3672322 C33.9949665,54.8107822 34.1508093,55.420795 35.6974303,60.8794175 L37.2405095,66.2225691 C37.627755,67.4822512 39.3278576,73.170649 39.6371818,74.3533506 C39.8296239,74.965696 40.025608,75.614199 40.2180501,76.2615357 L40.449453,76.5298013 C42.6501412,76.4154968 42.8425834,76.4154968 44.9311121,76.4154968 L45.1613343,76.1472312 C46.0503462,73.2091393 46.5155132,71.7196819 47.9464328,67.4822512 L49.7209148,61.9489809 C51.3442766,56.6034965 51.9239643,54.5786741 52.5414321,52.3672322 C52.5414321,53.817033 52.5803928,59.6570593 52.5803928,62.3677085 L52.6594948,66.4138541 C52.7740156,70.6127945 52.8141569,71.9482908 52.7740156,76.2615357 L53.006599,76.5298013 C55.0160258,76.4528208 55.2486092,76.4154968 57.1801146,76.4154968 L57.3737374,76.1472312 C56.8696098,67.2921325 56.5591049,58.4731913 56.3666628,49.6180926 L56.1364405,49.3509934 Z" id="Fill-5" fill="#514E86"></path>
        <path d="M112.557358,74.5446356 C112.481324,70.955708 112.442723,67.3306228 112.442723,63.7416951 C112.442723,59.0470465 112.518756,54.2754173 112.59596,49.6180926 L112.366689,49.3509934 C110.834321,49.4268076 110.450644,49.4652979 108.729947,49.4652979 L108.499507,49.7323971 C108.652743,52.3672322 108.691345,53.2443442 108.844582,59.2371652 L109.151055,71.9109669 L104.403054,63.5504101 C101.875231,59.1228607 99.1965109,54.2754173 96.5938244,49.6180926 L96.2113172,49.3509934 C94.0285698,49.4268076 93.6460626,49.4268076 91.2726465,49.4652979 L91.0808081,49.7323971 C91.2726465,54.9239204 91.3100784,60.1539339 91.3100784,65.3454571 C91.3100784,68.9717087 91.2726465,72.6364505 91.1194097,76.2638684 L91.3486801,76.5298013 C93.1863522,76.4154968 93.339589,76.4154968 95.0240243,76.4154968 L95.2544644,76.1483976 C95.1760914,74.5831259 95.1760914,74.5061453 95.0626259,71.3382781 C95.0240243,69.7345162 94.946821,68.1692445 94.9093891,66.5666489 L94.5257122,53.4741196 L100.574473,64.2385698 C102.871855,68.2473914 105.129466,72.2538804 107.389417,76.2638684 L107.69706,76.5298013 C109.992103,76.4154968 110.14534,76.4154968 112.405291,76.4154968 L112.59596,76.1483976 L112.557358,74.5446356 Z" id="Fill-7" fill="#514E86"></path>
        <path d="M130.488345,52.2529277 L134.112192,65.1553384 C132.791599,65.1553384 131.430638,65.1938287 130.148105,65.1938287 C128.939387,65.1938287 127.732976,65.1553384 126.525411,65.1553384 L130.488345,52.2529277 Z M133.810013,49.619259 L133.545894,49.3509934 C131.129612,49.4652979 130.789371,49.4652979 128.148184,49.5049545 L127.846005,49.7720538 C126.750315,53.4367956 125.921052,55.9176696 123.655859,62.6744645 C122.297205,66.7975906 120.900489,70.9078867 119.466867,75.0100182 C119.314624,75.3914219 119.163534,75.7704929 119.050505,76.1880542 L119.201595,76.4551535 C121.08964,76.3396826 121.466788,76.3396826 123.090714,76.3396826 L123.354833,76.0749161 C124.259065,72.6924364 124.486276,71.7803332 125.580812,68.2089011 C127.091709,68.2089011 128.827511,68.1704109 130.488345,68.1704109 C131.999243,68.1704109 133.469773,68.2089011 134.98067,68.2089011 C135.961023,71.6438676 136.263203,72.6761072 137.205496,76.2627021 L137.470768,76.5298013 C139.057787,76.4551535 139.885897,76.4166632 141.850064,76.3770065 L142,76.0725834 C140.867404,72.4078415 138.980512,66.529325 137.813315,62.8657495 C136.678411,59.2383316 135.244789,54.5051927 133.999163,50.3062523 L133.810013,49.619259 Z" id="Fill-9" fill="#514E86"></path>
        <path d="M121.20202,17.1655629 C120.261206,17.9143347 115.413465,21.7381251 111.425433,24.4992944 C104.798024,29.0918394 93.5858841,35.5686563 88.2121212,38.6225166 C95.5752655,32.36081 102.201516,25.2480661 107.484905,17.1726157 C112.265446,17.5370101 117.071476,17.4958688 121.20202,17.1655629 M110.514744,23.1463332 C112.354661,21.8721282 114.37996,20.3698828 116.110965,19.0521856 C113.592086,19.1003797 110.95155,19.0463083 108.304062,18.8723393 C105.596325,22.9159419 102.563011,26.7103456 99.2782725,30.276709 C103.314967,27.8528984 107.417704,25.2903829 110.514744,23.1463332" id="Fill-12" fill="#E16F25"></path>
        <path d="M84.6262626,36.4768212 C85.7910906,33.626394 89.184852,25.2471609 90.8521084,20.3333126 C91.3687564,18.8057998 92.377168,15.6635874 92.8132379,14.3046358 C96.1311611,15.4322518 99.9906166,16.2006581 103.989899,16.6726294 C98.6456728,24.0742077 92.0015317,30.5597434 84.6262626,36.4768212 M92.4186421,20.845971 C91.4671091,23.6533861 89.9550842,27.5860922 88.6113253,30.9828901 C93.1900592,26.9234725 97.3777522,22.596682 101.019173,17.901382 C98.5354704,17.5142726 96.1252362,17.0051017 93.889193,16.3471319 C93.4057242,17.8502324 92.7883535,19.7543922 92.4186421,20.845971" id="Fill-14" fill="#03948F"></path>
        <path d="M93.9494949,11.2784602 C95.5617261,10.4233193 101.409718,7.30423299 104.551172,5.43117638 C106.885926,4.03842009 111.065568,1.0889864 112.59596,0 C110.797837,4.86375715 108.478281,9.37445345 105.733163,13.589404 C103.940885,13.3968253 102.302933,13.156102 100.836844,12.8981842 C97.6953895,12.3456669 95.3454369,11.707177 93.9494949,11.2784602 M105.397622,6.79642144 C103.509476,7.92323579 100.649783,9.49596141 98.3068449,10.7637708 C99.1544646,10.9540569 100.096784,11.1431966 101.125619,11.3254586 C102.278382,11.5283539 103.538704,11.7197863 104.900742,11.8837074 C106.394891,9.51774114 107.752251,7.05548557 108.956456,4.49235548 C107.664567,5.3658372 106.372677,6.21410029 105.397622,6.79642144" id="Fill-16" fill="#514E86"></path>
        <path d="M116.084594,0 L122.636364,13.1585782 C117.870088,13.6616458 113.524737,13.680192 109.727273,13.4390905 C111.351489,10.7011975 112.820147,7.85666341 114.11037,4.89969257 C114.904177,3.0833173 115.558439,1.42458533 116.084594,0 M120.154286,11.759494 L116.258454,3.93528656 C116.039985,4.45921867 115.812366,4.99937877 115.568734,5.55228943 C114.612505,7.74190837 113.561339,9.87357022 112.423244,11.9437976 C114.821823,12.0098686 117.407987,11.9646621 120.154286,11.759494" id="Fill-19" fill="#03948F"></path>
        <path d="M88.2121212,37.9072848 C84.1218827,40.9311928 80.2482758,43.7876229 76.5608549,47.318617 C69.5396496,54.0409972 65.9939175,64.8200663 67.2738003,74.4244635 C67.3604529,75.0862341 67.5864524,76.2760257 67.9576535,77.4669802 C68.114565,77.9729033 68.2000467,78.1996964 68.4155073,78.6428152 C68.7433821,79.3208684 69.4565099,80.2710734 69.4565099,80.2710734 L69.323018,80.6711597 C67.3311784,80.7095401 65.6110065,80.7467574 64.0020779,80.8211921 L63.7327521,80.5560186 L63.6823999,80.1919866 C61.6144465,69.1803091 65.2058469,56.1775046 73.7223956,48.3828001 C78.7704971,43.7608729 83.4860397,40.8718777 88.2121212,37.9072848" id="Fill-21" fill="#514E86"></path>
        <path d="M32.7956227,104.849537 C28.5044013,104.982176 27.5341624,105.015042 23.9526211,105.015042 C23.9194799,103.456244 23.8863386,102.099338 23.8863386,99.5463359 C23.8863386,98.7505036 23.8863386,90.7945281 24.2086088,84.596896 L24.016618,84.397351 C22.372126,84.4642572 22.0487131,84.4642572 20.3047973,84.4971235 L20.0808081,84.7283609 C20.2408004,87.3787877 20.3379385,90.2005883 20.3379385,95.3030707 C20.3379385,101.106308 20.2408004,105.080774 20.1745178,107.766415 L20.3687942,108 C26.4382154,107.899054 26.9204778,107.899054 32.666486,107.899054 L32.8264783,107.666643 C32.8927608,106.706479 32.8927608,106.20879 32.989899,105.114814 L32.7956227,104.849537 Z" id="Fill-23" fill="#E16F25"></path>
        <path d="M41.2547182,84.397351 C39.5134188,84.4971284 38.9640443,84.4971284 37.4611299,84.4971284 L37.2929293,84.7624191 C37.5313143,89.7360314 37.5313143,94.7072961 37.5313143,99.7149502 C37.5313143,103.99012 37.4611299,105.746204 37.3957858,107.768751 L37.5990785,108 C39.4105623,107.935438 39.8873323,107.935438 41.3914567,107.90257 L41.5959596,107.668974 C41.3914567,104.255411 41.3249026,101.537943 41.3249026,95.1721416 C41.3249026,89.469567 41.3914567,86.8507024 41.4943132,84.6285999 L41.2547182,84.397351 Z" id="Fill-25" fill="#E16F25"></path>
        <path d="M58.0676006,107.670115 C58.2002765,107.205223 58.3317782,106.774376 58.4644541,106.342356 C59.4260609,102.997718 60.5543931,99.6789069 61.6146261,96.3671401 C62.1805534,94.508747 64.7319227,86.2862673 65.2626263,84.6286229 L65.0959008,84.397351 C63.5390137,84.4971384 63.3722882,84.4971384 61.7813516,84.4971384 L61.5817507,84.7284103 C60.6541935,88.2092287 59.6914127,91.6912211 58.7309801,95.1379944 L55.780409,105.546405 L52.8944147,95.1051233 C50.9042762,87.7443369 50.7081977,86.9143408 50.1093949,84.6286229 L49.8769186,84.397351 C48.2190569,84.4630933 47.9220038,84.4971384 46.0645412,84.4971384 L45.8989899,84.7284103 C46.0645412,85.2919155 48.9822369,94.7083217 49.5458159,96.5948901 C50.672974,100.310502 51.7684307,104.056638 52.8274897,107.769902 L53.059966,108 C55.4457839,107.93778 55.6136835,107.900213 57.8679997,107.900213 L58.0676006,107.670115 Z" id="Fill-27" fill="#E16F25"></path>
        <path d="M74.2446172,84.397351 C72.5033178,84.4971284 71.9539433,84.4971284 70.4510288,84.4971284 L70.2828283,84.7624191 C70.5200032,89.7360314 70.5200032,94.7072961 70.5200032,99.7149502 C70.5200032,103.99012 70.4510288,105.746204 70.3856847,107.768751 L70.5889775,108 C72.4004613,107.935438 72.8772313,107.935438 74.3813557,107.90257 L74.5858586,107.668974 C74.3813557,104.255411 74.3123814,101.537943 74.3123814,95.1721416 C74.3123814,89.469567 74.3813557,86.8507024 74.4830021,84.6285999 L74.2446172,84.397351 Z" id="Fill-29" fill="#E16F25"></path>
        <path d="M98.9379773,106.273521 C98.8698388,103.158581 98.8381191,100.008432 98.8381191,96.8946661 C98.8381191,92.8161377 98.9027332,88.6730571 98.969697,84.6332601 L98.7699806,84.397351 C97.4436286,84.4642506 97.1099847,84.4971136 95.6191604,84.4971136 L95.4217935,84.7295016 C95.5533714,87.0193459 95.5850911,87.7798888 95.7190186,92.9839736 L95.9821743,103.987198 L91.8691909,96.7280039 C89.6781843,92.8853847 87.3591243,88.6730571 85.1035035,84.6332601 L84.7698596,84.397351 C82.8796025,84.4642506 82.5483082,84.4642506 80.4924039,84.4971136 L80.3232323,84.7295016 C80.4924039,89.2364222 80.5229487,93.7785531 80.5229487,98.2854736 C80.5229487,101.43445 80.4924039,104.615115 80.3596512,107.765265 L80.557018,108 C82.1488753,107.900237 82.2792784,107.900237 83.7419075,107.900237 L83.9416239,107.665502 C83.875835,106.306384 83.875835,106.241832 83.7759768,103.489558 C83.7419075,102.097577 83.6761185,100.738459 83.6420493,99.3488252 L83.310755,87.9770665 L88.550374,97.3265793 C90.5428389,100.804185 92.498885,104.287659 94.4584555,107.765265 L94.7227861,108 C96.7129014,107.900237 96.8468289,107.900237 98.8052246,107.900237 L98.969697,107.665502 L98.9379773,106.273521 Z" id="Fill-31" fill="#E16F25"></path>
        <path d="M122.47337,96.03937 C120.92726,96.1060584 120.564017,96.1060584 118.79088,96.1060584 L118.592959,96.337713 C118.660485,97.5603344 118.79088,99.541098 118.79088,102.085788 L118.760609,104.56379 C118.002689,104.794275 117.016578,105.125377 115.370343,105.125377 C110.078873,105.125377 107.24977,101.58855 107.24977,96.1388176 C107.24977,94.6178532 107.412764,91.7759898 109.058999,89.5308123 C111.097583,86.7544673 113.955792,86.6234304 115.140988,86.6234304 C118.197117,86.6234304 120.171668,87.9127402 121.189214,88.605364 L121.452332,88.5386755 C121.585055,87.021221 121.652581,86.4912235 121.816739,85.3329506 L121.652581,85.101296 C120.730503,84.675426 118.493998,83.6821192 114.943067,83.6821192 C113.199036,83.6821192 109.353552,83.8470853 106.396383,87.1850172 C104.554555,89.2348092 103.272727,92.3071573 103.272727,96.1388176 C103.272727,99.9388887 104.554555,102.814681 106.163535,104.56379 C108.59796,107.207929 112.148892,108 115.370343,108 C117.837367,108 120.040109,107.56945 122.341811,106.645172 L122.537403,106.414687 C122.505969,105.42372 122.47337,104.829374 122.47337,103.473376 C122.47337,101.491442 122.505969,98.8461343 122.636364,96.2382653 L122.47337,96.03937 Z" id="Fill-33" fill="#E16F25"></path>
      </g>
    </g>
  </g>
</svg>
