<?xml version="1.0" encoding="UTF-8"?>
<svg xmlns="http://www.w3.org/2000/svg" xmlns:xlink="http://www.w3.org/1999/xlink" width="96px" height="73px" viewBox="0 0 96 73" version="1.1">
  <title>Amana Living Logo</title>
  <g id="Desktop" stroke="none" stroke-width="1" fill="none" fill-rule="evenodd">
    <g id="Home-skinny-header" transform="translate(-120.000000, -12.000000)" fill="#FFFFFF">
      <g id="Logo/Amana-Living/White" transform="translate(120.000000, 12.000000)">
        <path d="M46.2043753,43.2937611 L46.9644558,43.2937611 C47.6258347,43.299961 48.2864364,43.3170109 48.9478153,43.3170109 C49.8128149,43.3170109 50.727554,43.2914361 51.6182005,43.2914361 L49.303763,35.1664247 C49.8563369,34.0930614 50.8728864,33.0506977 51.1293553,32.7957255 L51.2373831,32.7910756 L51.4145798,32.9677736 L51.542037,33.4265686 C52.3813898,36.2149882 53.3474226,39.359904 54.1113891,41.7693527 C54.899448,44.2051512 56.170912,48.1111086 56.9341013,50.5461321 L56.8330681,50.7484049 C55.5103103,50.7732046 54.951519,50.7995543 53.8821214,50.8499288 L53.7033704,50.6724557 C53.0691927,48.2878067 52.8647948,47.6042641 52.2034159,45.321139 C51.1853121,45.321139 50.1944096,45.2947893 49.1763058,45.2947893 C48.0797069,45.2947893 46.9333687,45.319589 45.9300313,45.321139 C45.9533466,44.9824677 45.9859881,44.6492213 46.0302873,44.3291498 C46.0846898,43.9556039 46.142201,43.6122826 46.2043753,43.2937611" id="Fill-1"></path>
        <path d="M7.63038363,34.7192545 L10.0479157,43.2922111 C9.16692452,43.2922111 8.25823409,43.3177858 7.40340337,43.3177858 C6.59858525,43.3177858 5.79222829,43.2922111 4.98587132,43.2922111 L7.63038363,34.7192545 Z M9.84632643,32.9693236 L9.66935878,32.7910756 C8.0581837,32.8670247 7.83197287,32.8670247 6.06922114,32.8933744 L5.8676319,33.0708475 C5.13744796,35.505871 4.58346226,37.154278 3.07231237,41.6438041 C2.16516079,44.3833992 1.23415704,47.1144695 0.277762276,49.8401148 C0.17619823,50.093537 0.0754036095,50.3454093 0,50.6228562 L0.100794621,50.8003293 C1.35957324,50.7236051 1.61194451,50.7236051 2.69529433,50.7236051 L2.87072313,50.5476821 C3.47472143,48.3002065 3.62629808,47.6941632 4.35648201,45.321139 C5.36442822,45.321139 6.5216428,45.2955643 7.63038363,45.2955643 C8.63756041,45.2955643 9.61934618,45.321139 10.6272924,45.321139 C11.2820727,47.6034891 11.4828925,48.2893567 12.1122818,50.6724557 L12.2892495,50.8499288 C13.3472083,50.8003293 13.8988857,50.7747546 15.2099852,50.7484049 L15.3100104,50.5461321 C14.5544355,48.1111086 13.2956569,44.2051512 12.5162298,41.7709027 C11.7606548,39.360679 10.8034906,36.2157632 9.97251207,33.4257936 L9.84632643,32.9693236 Z" id="Fill-3"></path>
        <path d="M37.4496037,32.7910756 C35.6703773,32.840675 35.4380303,32.8670247 33.5572014,32.8670247 L33.4020409,33.0437228 C33.0153211,34.4394826 32.9649136,34.5665812 31.932348,37.8633953 L28.6598002,48.43893 L25.8487958,38.1935417 C25.3336944,36.4691855 24.8965671,34.9974765 24.4326608,32.9685486 L24.2515089,32.7910756 C22.6282307,32.840675 22.1635368,32.8670247 20.2716812,32.8670247 L20.1157331,33.0437228 C20.1157331,35.2772485 20.0921046,35.5554704 19.8337663,40.0705712 C19.6526144,43.0883883 19.548649,46.1069804 19.2918859,49.1247976 C19.2414784,49.631642 19.1879205,50.1648362 19.137513,50.6716807 L19.265107,50.8499288 C20.3496553,50.7739796 20.5048158,50.7739796 21.7492503,50.7739796 L21.8776319,50.5957315 C21.9044109,48.6179531 21.9044109,47.9576603 22.0075887,44.9646429 L22.1895281,40.4255174 C22.2675022,37.88897 22.2927059,37.3309761 22.3179097,34.7952037 C22.6786382,36.418811 22.7826036,36.8241316 23.8143816,40.4510921 L24.8437968,44.0013284 C25.1021351,44.8383193 26.2363033,48.6179531 26.4426589,49.4037945 C26.5710404,49.8106651 26.7017848,50.2415604 26.8301663,50.6716807 L26.9845392,50.8499288 C28.4526569,50.7739796 28.5810385,50.7739796 29.9743326,50.7739796 L30.1279179,50.5957315 C30.7209933,48.6435278 31.0313143,47.6538636 31.9859059,44.8383193 L33.169694,41.1617593 C34.2526671,37.609973 34.6393869,36.2645877 35.0513105,34.7952037 C35.0513105,35.7585182 35.0773018,39.6389009 35.0773018,41.4399813 L35.1300722,44.128427 C35.206471,46.9183966 35.23325,47.8057619 35.206471,50.6716807 L35.3616315,50.8499288 C36.7021553,50.7987793 36.8573158,50.7739796 38.1458569,50.7739796 L38.2750261,50.5957315 C37.9387137,44.7119956 37.7315705,38.8522845 37.6031889,32.9685486 L37.4496037,32.7910756 Z" id="Fill-5"></path>
        <path d="M75.0889868,49.5308931 C75.0382635,47.1462441 75.0125117,44.7375704 75.0125117,42.3529214 C75.0125117,39.2335803 75.063235,36.0630899 75.1147386,32.9685486 L74.9617884,32.7910756 C73.9395187,32.84145 73.6835611,32.8670247 72.5356536,32.8670247 L72.381923,33.0444978 C72.48415,34.7952037 72.5099018,35.3779974 72.6121288,39.359904 L72.8165827,47.7809622 L69.6491074,42.2258227 C67.9627526,39.2839548 66.1757315,36.0630899 64.4394337,32.9685486 L64.1842565,32.7910756 C62.7281074,32.84145 62.4729302,32.84145 60.8895827,32.8670247 L60.7616039,33.0444978 C60.8895827,36.4939852 60.9145541,39.9690473 60.9145541,43.4185347 C60.9145541,45.8279835 60.8895827,48.263007 60.7873557,50.6732307 L60.940306,50.8499288 C62.1662493,50.7739796 62.2684762,50.7739796 63.3921925,50.7739796 L63.5459232,50.5965065 C63.4936391,49.5564679 63.4936391,49.5053184 63.4179444,47.4004414 C63.3921925,46.334828 63.3406889,45.2947893 63.3157174,44.2299509 L63.0597598,35.5306707 L67.0949938,42.6830678 C68.627618,45.3467137 70.13371,48.0088097 71.6413627,50.6732307 L71.846597,50.8499288 C73.3776605,50.7739796 73.4798875,50.7739796 74.9875402,50.7739796 L75.1147386,50.5965065 L75.0889868,49.5308931 Z" id="Fill-7"></path>
        <path d="M87.0510627,34.7192545 L89.4685948,43.2922111 C88.5876036,43.2922111 87.6796826,43.3177858 86.8240824,43.3177858 C86.0177255,43.3177858 85.2129074,43.2922111 84.4073198,43.2922111 L87.0510627,34.7192545 Z M89.2670055,32.9693236 L89.0908073,32.7910756 C87.4788628,32.8670247 87.2518825,32.8670247 85.4899002,32.8933744 L85.288311,33.0708475 C84.5573576,35.505871 84.0041413,37.154278 82.4929915,41.6438041 C81.5866093,44.3833992 80.6548361,47.1144695 79.6984414,49.8401148 C79.5968773,50.093537 79.4960827,50.3454093 79.4206791,50.6228562 L79.5214737,50.8003293 C80.7810217,50.7236051 81.0326236,50.7236051 82.1159734,50.7236051 L82.2921716,50.5476821 C82.8954005,48.3002065 83.0469772,47.6941632 83.7771611,45.321139 C84.7851073,45.321139 85.9430913,45.2955643 87.0510627,45.2955643 C88.0590089,45.2955643 89.0400253,45.321139 90.0479715,45.321139 C90.7019824,47.6034891 90.9035716,48.2893567 91.5321915,50.6724557 L91.7091591,50.8499288 C92.7678874,50.8003293 93.3203342,50.7747546 94.6306643,50.7484049 L94.7306895,50.5461321 C93.9751146,48.1111086 92.7163359,44.2051512 91.9376783,41.7709027 C91.1805645,39.360679 90.2241697,36.2157632 89.3931911,33.4257936 L89.2670055,32.9693236 Z" id="Fill-9"></path>
        <path d="M80.8559926,11.4055915 C80.228359,11.90311 76.9943458,14.4438126 74.3338598,16.2784608 C69.912599,19.3299595 62.432784,23.6334553 58.8478526,25.6625809 C63.7599352,21.5020143 68.1804232,16.7759793 71.7050647,11.4102777 C74.8942469,11.6523982 78.100434,11.625062 80.8559926,11.4055915 M73.7263229,15.379491 C74.9537639,14.5328505 76.3048765,13.5346894 77.4596603,12.6591506 C75.779272,12.691173 74.0177242,12.6552454 72.2515387,12.5396524 C70.4451599,15.2264084 68.4215828,17.7475852 66.2302761,20.1172415 C68.9232259,18.50675 71.6602337,16.8040965 73.7263229,15.379491" id="Fill-12"></path>
        <path d="M56.4556634,24.2368819 C57.2327406,22.3429266 59.4967783,16.7753778 60.6090343,13.5103905 C60.9536992,12.4954405 61.6264283,10.4076097 61.9173382,9.50465958 C64.1307829,10.2538996 66.7054934,10.7644643 69.3734847,11.0780637 C65.8082578,15.9960137 61.3758348,20.3053026 56.4556634,24.2368819 M61.6540964,13.8510243 C61.0193121,15.7164004 60.0106137,18.3294716 59.1141686,20.5864608 C62.1687223,17.8891966 64.9624057,15.0142775 67.3916612,11.8945037 C65.7347398,11.6372903 64.1268303,11.2989737 62.6351267,10.8617882 C62.3125962,11.8605175 61.9007374,13.1257291 61.6540964,13.8510243" id="Fill-14"></path>
        <path d="M62.6753552,7.493929 C63.7509028,6.92573396 67.6522005,4.8532692 69.7479196,3.60872402 C71.3054748,2.68331252 74.0937873,0.723572777 75.1147386,0 C73.9151793,3.23170452 72.3677634,6.22881913 70.5364465,9.0294266 C69.3407869,8.90146847 68.2480804,8.7415208 67.2700262,8.5701483 C65.1743071,8.20303033 63.6066125,7.77878818 62.6753552,7.493929 M70.3126016,4.51585578 C69.0529863,5.26456319 67.1452346,6.30955462 65.5822197,7.15194566 C66.1476817,7.27838048 66.7763194,7.40405365 67.4626732,7.52515688 C68.2317015,7.65996991 69.072485,7.78716639 69.9811239,7.89608314 C70.9778968,6.32402607 71.8834159,4.68798994 72.6867619,2.98492812 C71.8249199,3.56530965 70.9630778,4.12893476 70.3126016,4.51585578" id="Fill-16"></path>
        <path d="M77.4420678,0 L81.8128682,8.7431661 C78.6332025,9.07742738 75.7343423,9.08975038 73.2009873,8.92955142 C74.2845307,7.11036905 75.2642982,5.22032944 76.1250284,3.25558167 C76.6545912,2.04869819 77.0910608,0.946560177 77.4420678,0 M80.1570308,7.81355004 L77.5580527,2.61478584 C77.4123085,2.9629105 77.2604598,3.32181777 77.0979283,3.68919711 C76.4600112,5.1440809 75.7587602,6.56045532 74.9995168,7.93600982 C76.5996509,7.97991049 78.3249267,7.94987319 80.1570308,7.81355004" id="Fill-19"></path>
        <path d="M58.8478526,25.1873479 C56.1191827,27.1965718 53.5350316,29.0945157 51.0750885,31.440671 C46.3911194,35.9073304 44.0256993,43.0694409 44.8795316,49.4510452 C44.9373391,49.8907562 45.0881073,50.6813085 45.3357421,51.4726336 C45.4404205,51.8087922 45.4974468,51.959484 45.6411844,52.2539126 C45.8599154,52.7044425 46.3356554,53.3358024 46.3356554,53.3358024 L46.2466007,53.6016382 C44.9178095,53.6271399 43.7702527,53.6518688 42.6969082,53.7013266 L42.5172363,53.5251332 L42.4836454,53.2832535 C41.1040775,45.9665873 43.4999636,37.3269243 49.1815026,32.1477633 C52.5491796,29.0767418 55.6950007,27.1571601 58.8478526,25.1873479" id="Fill-21"></path>
        <path d="M21.8785348,69.666867 C19.0157858,69.7549982 18.3685225,69.7768361 15.9792135,69.7768361 C15.9571044,68.7410986 15.9349952,67.8395078 15.9349952,66.1431756 C15.9349952,65.6143879 15.9349952,60.328071 16.1499873,56.2100784 L16.0219069,56.0774915 C14.9248375,56.1219471 14.709083,56.1219471 13.5456862,56.143785 L13.3962591,56.2974298 C13.5029928,58.0584955 13.5677953,59.93343 13.5677953,63.3237546 C13.5677953,67.179693 13.5029928,69.8205118 13.4587745,71.6049752 L13.5883797,71.7601798 C17.637397,71.6931065 17.9591227,71.6931065 21.7923855,71.6931065 L21.8991192,71.5386818 C21.9433374,70.9007049 21.9433374,70.5700176 22.00814,69.8431295 L21.8785348,69.666867 Z" id="Fill-23"></path>
        <path d="M27.5217457,56.0774915 C26.3600944,56.1437883 25.993597,56.1437883 24.9909765,56.1437883 L24.8787669,56.3200596 C25.0377977,59.624757 25.0377977,62.9278944 25.0377977,66.2552107 C25.0377977,69.0958309 24.9909765,70.2626535 24.9473843,71.6065274 L25.0830045,71.7601798 C26.2914771,71.717282 26.6095386,71.717282 27.6129665,71.695443 L27.7493939,71.5402307 C27.6129665,69.2721023 27.568567,67.4664911 27.568567,63.2367592 C27.568567,59.4477057 27.6129665,57.7076113 27.6815838,56.231144 L27.5217457,56.0774915 Z" id="Fill-25"></path>
        <path d="M38.7379144,71.5409888 C38.8264248,71.2320933 38.9141519,70.9458189 39.0026623,70.6587645 C39.644167,68.4364328 40.3968972,66.2312619 41.1041973,64.0307713 C41.4817373,62.7959692 43.1838005,57.3325746 43.5378421,56.2311593 L43.4266167,56.0774915 C42.38799,56.1437949 42.2767645,56.1437949 41.2154228,56.1437949 L41.0822655,56.2974626 C40.4634759,58.6102788 39.8211879,60.9238751 39.1804665,63.2140703 L37.2120888,70.1298979 L35.2867914,63.1922292 C33.9591351,58.3013833 33.8283277,57.7498956 33.4288559,56.2311593 L33.2737668,56.0774915 C32.1677782,56.1211737 31.9696089,56.1437949 30.7304631,56.1437949 L30.6200208,56.2974626 C30.7304631,56.6718814 32.676909,62.9285759 33.0528824,64.1820989 C33.8048293,66.650923 34.5356277,69.1400281 35.2421445,71.6072922 L35.3972336,71.7601798 C36.9888545,71.7188378 37.1008633,71.6938765 38.6047571,71.6938765 L38.7379144,71.5409888 Z" id="Fill-27"></path>
        <path d="M49.5298857,56.0774915 C48.3682344,56.1437883 48.001737,56.1437883 46.9991165,56.1437883 L46.8869069,56.3200596 C47.0451305,59.624757 47.0451305,62.9278944 47.0451305,66.2552107 C47.0451305,69.0958309 46.9991165,70.2626535 46.9555243,71.6065274 L47.0911444,71.7601798 C48.299617,71.717282 48.6176786,71.717282 49.6211064,71.695443 L49.7575339,71.5402307 C49.6211064,69.2721023 49.5750925,67.4664911 49.5750925,63.2367592 C49.5750925,59.4477057 49.6211064,57.7076113 49.6889165,56.231144 L49.5298857,56.0774915 Z" id="Fill-29"></path>
        <path d="M66.0032592,70.6130275 C65.9578028,68.5433181 65.936642,66.4502134 65.936642,64.3812839 C65.936642,61.6713216 65.9797473,58.9184678 66.02442,56.2342404 L65.8911856,56.0774915 C65.006353,56.1219427 64.7837733,56.1437784 63.7892182,56.1437784 L63.6575514,56.2981877 C63.7453293,57.8196659 63.76649,58.3250056 63.8558354,61.7828395 L64.0313912,69.0938889 L61.2875479,64.2705459 C59.825889,61.7173325 58.2788033,58.9184678 56.7740392,56.2342404 L56.5514595,56.0774915 C55.2904358,56.1219427 55.0694236,56.1219427 53.6978938,56.1437784 L53.5850365,56.2981877 C53.6978938,59.2927936 53.7182708,62.3107947 53.7182708,65.3054006 C53.7182708,67.3977254 53.6978938,69.5111061 53.6093322,71.6042108 L53.740999,71.7601798 C54.802955,71.693893 54.8899491,71.693893 55.8656946,71.693893 L55.9989289,71.5379239 C55.95504,70.6348631 55.95504,70.5919716 55.8884228,68.7632345 C55.8656946,67.838338 55.8218057,66.9352772 55.7990775,66.0119404 L55.5780652,58.4560196 L59.0735069,64.668267 C60.4027152,66.9789485 61.7076279,69.2935293 63.0148917,71.6042108 L63.1912312,71.7601798 C64.5188721,71.693893 64.6082175,71.693893 65.9146976,71.693893 L66.02442,71.5379239 L66.0032592,70.6130275 Z" id="Fill-31"></path>
        <path d="M81.7041323,63.8129857 C80.6726949,63.8572966 80.4303693,63.8572966 79.2474784,63.8572966 L79.115442,64.0112186 C79.1604897,64.8235846 79.2474784,66.1396953 79.2474784,67.830505 L79.2272846,69.4770038 C78.7216628,69.6301484 78.0638108,69.850148 76.9655785,69.850148 C73.4355461,69.850148 71.5482021,67.5001169 71.5482021,63.8790634 C71.5482021,62.8684645 71.656938,60.9801993 72.7551703,59.4883999 C74.1151453,57.6436683 76.0219065,57.5566013 76.8125716,57.5566013 C78.8513691,57.5566013 80.1686265,58.4132782 80.847449,58.8734894 L81.0229798,58.8291785 C81.1115218,57.8209118 81.1565696,57.4687569 81.2660821,56.699147 L81.1565696,56.545225 C80.5414352,56.2622574 79.0494238,55.6022586 76.6805352,55.6022586 C75.5170614,55.6022586 72.9516715,55.7118697 70.9788922,57.9297455 C69.7501769,59.2917218 68.8950469,61.3331316 68.8950469,63.8790634 C68.8950469,66.4040058 69.7501769,68.3148151 70.8235552,69.4770038 C72.4476031,71.233891 74.8164917,71.7601798 76.9655785,71.7601798 C78.6113735,71.7601798 80.0808611,71.4741026 81.616367,70.8599695 L81.74685,70.7068249 C81.7258795,70.0483808 81.7041323,69.6534699 81.7041323,68.7524821 C81.7041323,67.435594 81.7258795,65.6779294 81.8128682,63.945141 L81.7041323,63.8129857 Z" id="Fill-33"></path>
      </g>
    </g>
  </g>
</svg>
