<svg width="25px" height="21px" viewBox="0 0 25 21" xmlns="http://www.w3.org/2000/svg" xmlns:xlink="http://www.w3.org/1999/xlink">
<title>icon - bathtub</title>
<g id="Desktop" stroke="none" stroke-width="1" fill="none" fill-rule="evenodd">
<g id="Retirement-Village-Location" transform="translate(-616.000000, -2529.000000)">
<g id="Group-6" transform="translate(121.000000, 2339.000000)">
<g id="Cards/Retirement-Village/Unit" transform="translate(409.000000, 85.000000)">
<g id="Group-7" transform="translate(16.000000, 105.000000)">
<g id="Group-3" transform="translate(49.000000, 0.000000)">
<g id="icon---bathtub" transform="translate(21.000000, 0.000000)">
<g>
<path d="M19.5833496,0.00331839623 C21.6015945,0.00331839623 23.228777,1.58985951 23.328505,3.61025422 L23.3333496,3.80709198 L23.3333496,11.6919976 L23.75,11.6919976 C24.4583496,11.6919976 25,12.2414151 25,12.9598726 C25,13.633473 24.5239401,14.1584595 23.8807705,14.2214515 L23.75,14.2277972 L23.2597656,14.2277972 L22.125,18.7923255 C21.8157552,19.9686462 20.7891688,20.8535923 19.5777578,20.9753373 L19.3947266,20.987816 L18.5,20.9900943 L5.70834961,20.9900943 C4.4356068,20.9900943 3.31475316,20.1428601 2.92555925,18.9263287 L2.875,18.7500778 L1.75073242,14.2277972 L1.25,14.2277972 C0.541650391,14.2277972 0,13.6783797 0,12.9598726 C0,12.2413656 0.541650391,11.6919481 1.29033203,11.6919481 C1.47880859,10.7171816 2.30976562,10.0013986 3.33334961,10.0013986 C3.70834961,10.0013986 4.08334961,10.128191 4.41669922,10.2972311 C4.75004883,9.62102123 5.45839844,9.15609906 6.25004883,9.15609906 C6.91669922,9.15609906 7.50004883,9.49422877 7.91669922,10.0013986 C8.88341743,10.0013986 9.67831715,10.6398594 9.92243228,11.5319633 L9.9597168,11.6919481 L22.5,11.6919481 L22.5,3.80704245 C22.5,2.15874057 21.2083496,0.848568396 19.5833496,0.848568396 C18.0209473,0.848568396 17.2257324,2.08598349 17.1012207,3.42899292 C18.0530273,3.62700708 18.75,4.4658184 18.75,5.49764151 C18.75,5.72305031 18.6183256,5.88165828 18.4134817,5.91412167 L18.3333496,5.92026651 L15,5.92026651 C14.75,5.92026651 14.5833496,5.75122642 14.5833496,5.49764151 C14.5833496,4.4542783 15.2960937,3.60843396 16.2643066,3.42280189 C16.4126953,1.39040802 17.7391113,0.00331839623 19.5833496,0.00331839623 Z M22.3632812,14.2146226 L2.68554688,14.2146226 L3.71409328,18.222386 C4.0190612,19.3834948 5.0863819,20.2075472 6.3062089,20.2075472 L18.0087664,20.2075472 L18.8273152,20.2055281 C20.0074744,20.1643562 21.0280694,19.3544375 21.3251306,18.2598269 L22.3632812,14.2146226 Z M23.75,12.5372972 L1.25,12.5372972 C1,12.5372972 0.833349609,12.7063373 0.833349609,12.9599222 C0.833349609,13.2135071 1,13.3825472 1.25,13.3825472 L1.25,13.3825472 L23.75,13.3825472 C24,13.3825472 24.1666504,13.2135071 24.1666504,12.9599222 C24.1666504,12.7063373 24,12.5372972 23.75,12.5372972 L23.75,12.5372972 Z M6.29165039,10.0013986 C5.66665039,10.0013986 5.16665039,10.4663208 5.04165039,11.100283 C5,11.2693726 4.91665039,11.3961651 4.75,11.4384127 C4.58334961,11.4806604 4.41669922,11.4384127 4.33334961,11.3116203 C4.04169922,11.0157382 3.70834961,10.8466981 3.33334961,10.8466981 C2.79165039,10.8466981 2.33334961,11.1848278 2.16665039,11.6919976 L2.16665039,11.6919976 L9.125,11.6919976 C8.95834961,11.1848278 8.5,10.8466981 7.95834961,10.8466981 L7.95834961,10.8466981 L7.83334961,10.8466981 C7.66665039,10.8889458 7.45834961,10.8044009 7.375,10.6353608 C7.16665039,10.2127358 6.75,10.0013986 6.29165039,10.0013986 Z M15,8.45616509 C15.25,8.45616509 15.4166504,8.62520519 15.4166504,8.87879009 L15.4166504,8.87879009 L15.4166504,9.34371226 C15.4166504,9.555 15.25,9.76633726 15,9.76633726 C14.75,9.76633726 14.5833496,9.59724764 14.5833496,9.34371226 L14.5833496,9.34371226 L14.5833496,8.87879009 C14.5833496,8.62520519 14.75,8.45616509 15,8.45616509 Z M16.6666504,8.45611557 C16.9166504,8.45611557 17.0833008,8.62515566 17.0833008,8.87874057 L17.0833008,8.87874057 L17.0833008,9.34366274 C17.0833008,9.55495047 16.9166504,9.76628774 16.6666504,9.76628774 C16.4166504,9.76628774 16.25,9.59724764 16.25,9.34366274 L16.25,9.34366274 L16.25,8.87874057 C16.25,8.62515566 16.4166504,8.45611557 16.6666504,8.45611557 Z M18.3333496,8.45611557 C18.5833496,8.45611557 18.75,8.62515566 18.75,8.87874057 L18.75,8.87874057 L18.75,9.34366274 C18.75,9.555 18.5833008,9.76628774 18.3333008,9.76628774 C18.0833008,9.76628774 17.9166504,9.59724764 17.9166504,9.34366274 L17.9166992,9.34366274 L17.9166992,8.87874057 C17.9166992,8.62515566 18.0833496,8.45611557 18.3333496,8.45611557 Z M15,6.76556604 C15.25,6.76556604 15.4166504,6.93460613 15.4166504,7.18819104 L15.4166504,7.18819104 L15.4166504,7.3995283 C15.4166504,7.65311321 15.25,7.8221533 15,7.8221533 C14.75,7.8221533 14.5833496,7.65311321 14.5833496,7.3995283 L14.5833496,7.3995283 L14.5833496,7.18819104 C14.5833496,6.93460613 14.75,6.76556604 15,6.76556604 Z M16.6666504,6.76556604 C16.9166504,6.76556604 17.0833008,6.93460613 17.0833008,7.18819104 L17.0833008,7.18819104 L17.0833008,7.3995283 C17.0833008,7.65311321 16.9166504,7.8221533 16.6666504,7.8221533 C16.4166504,7.8221533 16.25,7.65311321 16.25,7.3995283 L16.25,7.3995283 L16.25,7.18819104 C16.25,6.93460613 16.4166504,6.76556604 16.6666504,6.76556604 Z M18.3333496,6.76556604 C18.5833496,6.76556604 18.75,6.93460613 18.75,7.18819104 L18.75,7.18819104 L18.75,7.3995283 C18.75,7.65311321 18.5833496,7.8221533 18.3333496,7.8221533 C18.0833496,7.8221533 17.9166504,7.65311321 17.9166992,7.3995283 L17.9166992,7.3995283 L17.9166992,7.18819104 C17.9166992,6.93460613 18.0833496,6.76556604 18.3333496,6.76556604 Z M16.7083496,4.22971698 C16.1666504,4.22971698 15.6666504,4.5678467 15.5,5.07501651 L15.5,5.07501651 L17.875,5.07501651 C17.7083496,4.5678467 17.2500488,4.22971698 16.7083496,4.22971698 Z" id="Combined-Shape" fill="#514E86" fill-rule="nonzero"></path>
</g>
</g>
</g>
</g>
</g>
</g>
</g>
</svg>
