<svg width="22px" height="17px" viewBox="0 0 22 17" xmlns="http://www.w3.org/2000/svg" xmlns:xlink="http://www.w3.org/1999/xlink">
<title>icon - bed</title>
<g id="Desktop" stroke="none" stroke-width="1" fill="none" fill-rule="evenodd">
<g id="Retirement-Village-Location" transform="translate(-567.000000, -2533.000000)">
<g id="Group-6" transform="translate(121.000000, 2339.000000)">
<g id="Cards/Retirement-Village/Unit" transform="translate(409.000000, 85.000000)">
<g id="Group-7" transform="translate(16.000000, 105.000000)">
<g id="Group-4" transform="translate(0.000000, 3.000000)">
<g id="icon---bed" transform="translate(21.000000, 1.000000)">
<g>
<path d="M3.68902439,6.84232365 L18.2439024,6.84232365 L20.4573171,10.6514523 L1.6097561,10.6514523 L3.68902439,6.84232365 Z M21.8702134,10.8055104 C21.8695874,10.8044288 20.9995366,9.28710235 19.260061,6.25353112 L19.260061,0.541248963 C19.260061,0.249004149 19.0348963,0.0122033195 18.7570122,0.0122033195 L3.19248171,0.0122033195 C2.91459756,0.0122033195 2.68943293,0.249004149 2.68943293,0.541248963 L2.68943293,6.25353112 L0.081695122,10.8005726 C0.0348780488,10.8857137 0.00945731707,10.9764979 0.00945731707,11.0737718 L0.00945731707,14.4919004 L0.00945731707,16.4179793 C0.00945731707,16.7102241 0.234621951,16.9470249 0.512506098,16.9470249 L3.67936585,16.9470249 C3.95725,16.9470249 4.18241463,16.7102241 4.18241463,16.4179793 L4.18241463,15.0209461 L17.7672134,15.0209461 L17.7672134,16.4179793 C17.7672134,16.7102241 17.992378,16.9470249 18.2702622,16.9470249 L21.437122,16.9470249 C21.7150061,16.9470249 21.9401707,16.7102241 21.9401707,16.4179793 L21.9401707,11.0737718 C21.9401707,10.9757925 21.9143476,10.8841618 21.8702134,10.8055104 Z M16.9269207,4.92238174 C16.9269207,5.44578423 16.4364146,5.87163071 15.8334939,5.87163071 L13.2095244,5.87163071 C12.6066037,5.87163071 12.1160976,5.44578423 12.1160976,4.92238174 L12.1160976,4.06377593 C12.1160976,3.54037344 12.6066037,3.11452697 13.2095244,3.11452697 L15.8334939,3.11452697 C16.4364146,3.11452697 16.9269207,3.54037344 16.9269207,4.06377593 L16.9269207,4.92238174 Z M9.83353049,4.92238174 C9.83353049,5.44578423 9.34302439,5.87163071 8.74010366,5.87163071 L6.11613415,5.87163071 C5.51321341,5.87163071 5.02270732,5.44578423 5.02270732,4.92238174 L5.02270732,4.06377593 C5.02270732,3.54037344 5.51321341,3.11452697 6.11613415,3.11452697 L8.74010366,3.11452697 C9.34302439,3.11452697 9.83353049,3.54037344 9.83353049,4.06377593 L9.83353049,4.92238174 Z M3.69539634,1.07029461 L18.2539634,1.07029461 L18.2539634,5.87163071 L17.6821646,5.87163071 C17.8417317,5.58876763 17.9330183,5.2656971 17.9330183,4.92238174 L17.9330183,4.06377593 C17.9330183,2.95694191 16.9911768,2.05643568 15.8334939,2.05643568 L13.2095244,2.05643568 C12.0518415,2.05643568 11.11,2.95694191 11.11,4.06377593 L11.11,4.92238174 C11.11,5.2656971 11.2011524,5.58876763 11.3607866,5.87163071 L10.5885061,5.87163071 C10.7482073,5.58876763 10.839561,5.26583817 10.839561,4.92238174 L10.839561,4.06377593 C10.839561,2.95694191 9.89771951,2.05643568 8.74003659,2.05643568 L6.11606707,2.05643568 C4.95838415,2.05643568 4.01654268,2.95694191 4.01654268,4.06377593 L4.01654268,4.92238174 C4.01654268,5.26555602 4.10722561,5.58890871 4.26665854,5.87163071 L3.69539634,5.87163071 L3.69539634,1.07029461 L3.69539634,1.07029461 Z M3.17631707,15.8889336 L1.01555488,15.8889336 L1.01555488,15.0209461 L3.17631707,15.0209461 L3.17631707,15.8889336 Z M20.9340732,15.8889336 L18.773311,15.8889336 L18.773311,15.0209461 L20.9340732,15.0209461 L20.9340732,15.8889336 L20.9340732,15.8889336 Z M20.9340732,13.9628548 L1.01555488,13.9628548 L1.01555488,11.6028174 L20.9340732,11.6028174 L20.9340732,13.9628548 Z" id="Shape" fill="#514E86" fill-rule="nonzero"></path>
</g>
</g>
</g>
</g>
</g>
</g>
</g>
</svg>
