<?xml version="1.0" encoding="UTF-8"?>
<svg xmlns="http://www.w3.org/2000/svg" xmlns:xlink="http://www.w3.org/1999/xlink" width="90px" height="60px" viewBox="0 0 90 60" version="1.1">
  <title>Bus</title>
  <g id="Page-1" stroke="none" stroke-width="1" fill="none" fill-rule="evenodd">
    <g id="Bus">
      <path d="M52.7874564,-2.07123207e-12 C55.0087108,-2.07123207e-12 56.7073171,1.69860627 56.7073171,3.91986063 L56.7073171,3.91986063 L56.7073171,12.9355401 L61.4111498,12.9355401 C62.195122,12.9355401 62.71777,13.5888502 62.71777,14.2421603 L62.71777,14.2421603 L62.71777,26.2630662 C62.71777,27.0470383 62.195122,27.5696864 61.4111498,27.5696864 L61.4111498,27.5696864 L56.7073171,27.5696864 L56.7073171,48.2142857 C56.7073171,49.912892 55.6620209,51.3501742 54.0940767,51.8728223 L54.0940767,51.8728223 L54.0940767,58.5365854 C54.0940767,59.3205575 53.5714286,59.8432056 52.7874564,59.8432056 L52.7874564,59.8432056 L40.7665505,59.8432056 C39.9825784,59.8432056 39.4599303,59.3205575 39.4599303,58.5365854 L39.4599303,58.5365854 L39.4599303,52.1341463 L23.2578397,52.1341463 L23.2578397,58.5365854 C23.2578397,59.3205575 22.7351916,59.8432056 21.9512195,59.8432056 L21.9512195,59.8432056 L9.93031359,59.8432056 C9.14634146,59.8432056 8.62369338,59.3205575 8.62369338,58.5365854 L8.62369338,58.5365854 L8.62369338,51.8728223 C7.05574913,51.3501742 6.01045296,49.912892 6.01045296,48.2142857 L6.01045296,48.2142857 L6.01045296,27.5696864 L1.30662021,27.5696864 C0.522648084,27.5696864 6.39488462e-13,27.0470383 6.39488462e-13,26.2630662 L6.39488462e-13,26.2630662 L6.39488462e-13,14.2421603 C6.39488462e-13,13.4581882 0.522648084,12.9355401 1.30662021,12.9355401 L1.30662021,12.9355401 L6.01045296,12.9355401 L6.01045296,3.91986063 C6.01045296,1.69860627 7.70905923,-2.07123207e-12 9.93031359,-2.07123207e-12 L9.93031359,-2.07123207e-12 L52.7874564,-2.07123207e-12 Z M20.6445993,52.1341463 L11.2369338,52.1341463 L11.2369338,57.2299652 L20.6445993,57.2299652 L20.6445993,52.1341463 Z M51.4808362,52.1341463 L42.0731707,52.1341463 L42.0731707,57.2299652 L51.4808362,57.2299652 L51.4808362,52.1341463 Z M54.0940767,36.0627178 L8.62369338,36.0627178 L8.62369338,48.2142857 C8.62369338,48.9982578 9.14634146,49.5209059 9.93031359,49.5209059 L9.93031359,49.5209059 L52.7874564,49.5209059 C53.5714286,49.5209059 54.0940767,48.9982578 54.0940767,48.2142857 L54.0940767,48.2142857 L54.0940767,36.0627178 Z M47.0383275,37.761324 C49.78223,37.761324 52.0034843,39.9825784 52.0034843,42.7264808 C52.0034843,45.4703833 49.78223,47.6916376 47.0383275,47.6916376 C44.2944251,47.6916376 42.0731707,45.4703833 42.0731707,42.7264808 C42.0731707,39.9825784 44.2944251,37.761324 47.0383275,37.761324 Z M15.6794425,37.761324 C18.4233449,37.761324 20.6445993,39.9825784 20.6445993,42.7264808 C20.6445993,45.4703833 18.4233449,47.6916376 15.6794425,47.6916376 C12.9355401,47.6916376 10.7142857,45.4703833 10.7142857,42.7264808 C10.7142857,39.9825784 12.9355401,37.761324 15.6794425,37.761324 Z M47.0383275,40.5052265 C45.7317073,40.5052265 44.6864111,41.4198606 44.6864111,42.7264808 C44.6864111,44.033101 45.7317073,45.0783972 47.0383275,45.0783972 C48.3449477,45.0783972 49.3902439,44.1637631 49.3902439,42.8571429 C49.3902439,41.5505226 48.3449477,40.5052265 47.0383275,40.5052265 Z M15.6794425,40.5052265 C14.3728223,40.5052265 13.3275261,41.4198606 13.3275261,42.7264808 C13.3275261,44.033101 14.3728223,45.0783972 15.6794425,45.0783972 C16.9860627,45.0783972 18.0313589,44.1637631 18.0313589,42.8571429 C18.0313589,41.5505226 16.9860627,40.5052265 15.6794425,40.5052265 Z M54.0940767,9.53832753 L8.62369338,9.53832753 L8.62369338,33.4494774 L54.0940767,33.4494774 L54.0940767,9.53832753 Z M6.01045296,15.5487805 L2.61324042,15.5487805 L2.61324042,24.956446 L6.01045296,24.956446 L6.01045296,15.5487805 Z M60.1045296,15.5487805 L56.7073171,15.5487805 L56.7073171,24.956446 L60.1045296,24.956446 L60.1045296,15.5487805 Z M52.7874564,2.61324042 L9.93031359,2.61324042 C9.14634146,2.61324042 8.62369338,3.1358885 8.62369338,3.91986063 L8.62369338,3.91986063 L8.62369338,6.92508711 L54.0940767,6.92508711 L54.0940767,3.91986063 C54.0940767,3.1358885 53.5714286,2.61324042 52.7874564,2.61324042 L52.7874564,2.61324042 Z" id="Combined-Shape" fill="#444079" fill-rule="nonzero"></path>
      <g id="Group-16" transform="translate(73.000000, 9.869338)">
        <rect id="Rectangle" stroke="#444079" stroke-width="2" x="0" y="0" width="16" height="38" rx="1"></rect>
        <circle id="Oval" fill="#444079" fill-rule="nonzero" cx="8" cy="10" r="4"></circle>
        <rect id="Rectangle" stroke="#444079" stroke-width="2" x="4" y="38" width="8" height="10"></rect>
      </g>
    </g>
  </g>
</svg>
