<svg width="30px" height="22px" viewBox="0 0 30 22" xmlns="http://www.w3.org/2000/svg" xmlns:xlink="http://www.w3.org/1999/xlink">
<title>car</title>
<g id="Page-1" stroke="none" stroke-width="1" fill="none" fill-rule="evenodd">
<g id="car" transform="translate(1.000000, 1.000000)" stroke="#514E86">
<path d="M6.05008939,17.7760005 L6.0500895,18.3788831 C6.04882538,19.2700199 5.28312289,19.9921319 4.33835678,19.9933241 L2.58989789,19.9933241 C1.64496727,19.9921319 0.87926479,19.2700199 0.878000777,18.3790382 L0.877971894,12.3345503 C0.855279038,11.347327 1.1044313,10.3714253 1.60110185,9.50213053 L1.68524539,9.35485879 L1.50948886,9.33221923 C0.657428259,9.22246353 0.0169585497,8.54398819 1.24344979e-13,7.73542166 L1.24344979e-13,6.80823033 C0.00909927785,5.9365044 0.760375582,5.23395996 1.68467936,5.23281492 L2.20088621,5.23278648 L2.20088621,5.23278648 C2.63261135,5.2418064 3.05372246,5.36071905 3.41966085,5.57694201 L3.54291585,5.64977002 L3.59856337,5.52303745 C4.27174811,3.98991534 4.90027946,2.7261936 5.34440961,2.12374335 C6.15625637,1.02138766 7.23971485,0.515925166 8.68629498,0.277172597 C9.48286085,0.157034879 11.2624004,0.0758320288 12.7898435,0.0337973275 C12.8350672,0.011980419 12.8879616,0.000302608829 12.9437482,0.000302608829 C13.1974566,-0.000949173896 13.5476449,0.00168306025 13.9559476,0.00819206477 C14.364519,0.0016786054 14.7143292,-0.000948113961 14.9678228,0.000302608829 C15.0240136,0.000302608829 15.0772702,0.0121502758 15.124937,0.0333412666 C16.6504134,0.0758887548 18.4289883,0.157076838 19.2252759,0.277172597 C20.6718561,0.515925166 21.7553146,1.02138766 22.5671613,2.12374335 C23.0112915,2.7261936 23.6398228,3.98991534 24.3130076,5.52303745 L24.3130076,5.52303745 L24.3686551,5.64977002 L24.4919101,5.57694201 C24.8578485,5.36071905 25.2789596,5.2418064 25.7106847,5.23278648 L25.7106847,5.23278648 L26.2268916,5.23281492 C27.1511953,5.23395996 27.9024717,5.9365044 27.9115709,6.80823033 L27.9115709,6.80823033 L27.9115709,7.73542166 C27.8946124,8.54398819 27.2541427,9.22246353 26.4020821,9.33221923 L26.4020821,9.33221923 L26.2263255,9.35485879 L26.3104691,9.50213053 C26.8071396,10.3714253 27.0562919,11.347327 27.033599,12.3345503 L27.033599,12.3345503 L27.0335702,18.3790382 C27.0323061,19.2700199 26.2666037,19.9921319 25.321673,19.9933241 L25.321673,19.9933241 L23.5732141,19.9933241 C22.628448,19.9921319 21.8627456,19.2700199 21.8614814,18.3788831 L21.8614814,18.3788831 L21.8614815,17.7760005 L6.05008939,17.7760005 Z M22.2303894,17.0801877 C22.4341316,17.0801877 22.5992973,17.2359507 22.5992973,17.4280941 L22.5992973,17.4280941 L22.5992973,18.3790382 C22.5992973,18.8862968 23.0353347,19.2975111 23.5732141,19.2975111 L23.5732141,19.2975111 L25.3095406,19.2975111 C25.84742,19.2975111 26.2834574,18.8862968 26.2834574,18.3790382 L26.2834574,18.3790382 L26.2834574,12.3254668 C26.3161745,11.3093083 26.0145264,10.3049354 25.4196215,9.4529241 C25.3535749,9.3608322 25.2919969,9.28083441 25.2331045,9.21196514 C25.1519198,9.10976178 25.138434,8.96871638 25.2009241,8.85085125 C25.2634142,8.73298611 25.3911533,8.65853331 25.5308853,8.65853331 L25.5308853,8.65853331 L26.1801632,8.65853331 C26.7309594,8.6484884 27.1708175,8.22781187 27.1737551,7.71052923 L27.1737551,7.71052923 L27.1737551,6.83782313 C27.1737551,6.3400731 26.7483765,5.93533067 26.2195134,5.93094711 L26.2195134,5.93094711 L25.7276362,5.93094711 C25.2492582,5.95647764 24.8054524,6.14889985 24.4781736,6.46983383 C24.3940361,6.54382942 24.2700643,6.57587075 24.1513674,6.55118841 C24.0326706,6.52650608 23.9344829,6.44826797 23.8888634,6.34201936 C23.1222999,4.54516897 22.3908085,3.08279349 21.9771579,2.5224653 C21.2969216,1.59517081 20.3803642,1.17562165 19.1138298,0.962330199 C18.1330406,0.815224424 15.5783359,0.728889751 13.9553325,0.703592881 C12.3331962,0.728891064 9.77852291,0.815225542 8.7977411,0.962330199 C7.53120668,1.17562165 6.61464933,1.59517081 5.93441298,2.5224653 C5.52076245,3.08279349 4.78927101,4.54516897 4.02270749,6.34201936 C3.97708802,6.44826797 3.87890038,6.52650608 3.76020349,6.55118841 C3.64150661,6.57587075 3.51753483,6.54382942 3.43339736,6.46983383 C3.10611854,6.14889985 2.66231275,5.95647764 2.18393471,5.93094711 L1.69205752,5.93094711 C1.16319447,5.93533067 0.737815779,6.3400731 0.737815779,6.83782313 L0.737815779,7.71052923 L0.737815779,7.71052923 C0.740753436,8.22781187 1.18061156,8.6484884 1.7314077,8.65853331 L2.38068558,8.65853331 C2.52041758,8.65853331 2.64815678,8.73298611 2.71064683,8.85085125 C2.77313688,8.96871638 2.75965109,9.10976178 2.67846643,9.21196514 C2.61957402,9.28083441 2.55799598,9.3608322 2.49194941,9.4529241 C1.89704449,10.3049354 1.59539647,11.3093083 1.62811349,12.3254668 L1.62811349,18.3790382 C1.62811349,18.8862968 2.0641509,19.2975111 2.60203031,19.2975111 L4.33835678,19.2975111 C4.87623619,19.2975111 5.31227361,18.8862968 5.31227361,18.3790382 L5.31227361,17.4280941 C5.31227361,17.2359507 5.4774393,17.0801877 5.6811815,17.0801877 L22.2303894,17.0801877 Z" id="Combined-Shape" stroke-width="0.5" fill="#514E86" fill-rule="nonzero"></path>
<path d="M5.41064905,7.23418633 C8.13569267,6.58587881 10.9533975,6.26172506 13.8637634,6.26172506 C16.7741294,6.26172506 19.6949918,6.58587881 22.6263506,7.23418633" id="Line-9" stroke-width="0.633433725" stroke-linecap="round" stroke-linejoin="round"></path>
<ellipse id="Oval" stroke-width="0.75" cx="6.59354839" cy="11.3392857" rx="2.16774194" ry="1.60714286"></ellipse>
<ellipse id="Oval" stroke-width="0.75" cx="21.1354839" cy="11.3392857" rx="2.16774194" ry="1.60714286"></ellipse>
</g>
</g>
</svg>
