<?xml version="1.0" encoding="UTF-8"?>
<svg xmlns="http://www.w3.org/2000/svg" xmlns:xlink="http://www.w3.org/1999/xlink" width="58px" height="60px" viewBox="0 0 58 60" version="1.1">
  <title>Fill 3</title>
  <g id="Desktop" stroke="none" stroke-width="1" fill="none" fill-rule="evenodd">
    <g id="Retirement-Villages" transform="translate(-398.000000, -2580.000000)" fill="#514D85">
      <g id="Group-20" transform="translate(-395.000000, 2399.000000)">
        <g id="Group-19" transform="translate(515.000000, 161.000000)">
          <g id="Group-2" transform="translate(278.000000, 20.000000)">
            <path d="M55.2609161,18.3279743 L54.3670741,18.3279743 C54.1063702,17.1618815 53.4579962,16.1153003 52.5015176,15.3555473 C51.5348816,14.5889651 50.3583283,14.1962838 49.1597675,14.2218934 C48.3962775,12.2260479 46.4646985,10.8294682 44.2758014,10.8294682 C42.9756676,10.8294682 41.7534064,11.307515 40.808778,12.1492189 C39.7761197,11.3245881 38.343941,10.8294682 36.8491258,10.8294682 C35.174865,10.8294682 32.6761704,11.8487323 31.5063885,13.5714082 C29.7203975,13.1258003 27.8311406,13.4792135 26.3786474,14.5701847 C25.4052399,15.3009134 24.7450157,16.2860314 24.4369111,17.4043195 L24.4369111,3.20632843 C24.4369111,1.43755513 23.0098112,0 21.2576777,0 L17.2455462,0 C15.4934128,0 14.0680057,1.43755513 14.0680057,3.20632843 L14.0680057,31.566457 L12.0754829,31.566457 C11.4338805,31.566457 10.9124727,32.0923086 10.9124727,32.7376718 L10.9124727,37.7213101 L5.7931959,37.7213101 C4.14094256,37.7213101 3.45024649,39.04789 3.03718316,39.8417893 L1.23595616,43.3059215 C0.892301003,43.9666505 0.692540865,45.0712802 1.25288498,46.0068862 C1.40693729,46.2629827 1.69134155,46.6163959 2.1805846,46.8724924 L0.750098871,51.7775944 C0.0695600974,53.8314885 -0.4924769,56.6434283 0.67561204,58.4343966 C1.09544691,59.0746379 1.92495934,59.8668298 3.50103297,59.9965854 C3.53150485,60 3.56197674,60 3.59244863,60 L35.5303703,60 C35.5608422,60 35.5913141,60 35.6217859,59.9965854 C36.1618155,59.9521953 36.6087365,59.8275617 36.9879421,59.6619526 L49.0057152,59.6619526 C50.8272568,59.6619526 52.3186863,58.4224454 52.4778172,56.7834277 L55.1508787,28.9491506 L55.2609161,28.9491506 C56.7726602,28.9491506 58,27.7096435 58,26.1867228 L58,21.0904021 C58,19.5674814 56.7726602,18.3279743 55.2609161,18.3279743 L55.2609161,18.3279743 Z M27.766811,16.4516404 C28.8248626,15.6526193 30.3416854,15.5109126 31.629969,16.0811541 C31.9380736,16.217739 32.2901931,16.212617 32.594912,16.0674957 C32.8996308,15.9223743 33.12817,15.650912 33.2178928,15.3214011 C33.5158401,14.2355519 35.5472991,13.1753123 36.8491258,13.1753123 C38.0967802,13.1753123 39.3664421,13.7421393 39.8658424,14.5275019 C40.0791456,14.8655493 40.448194,15.0670119 40.8443285,15.0670119 C41.240463,15.0670119 41.6078185,14.8655493 41.8245075,14.5275019 C42.3611513,13.6806761 43.2786936,13.1753123 44.2758014,13.1753123 C45.7096729,13.1753123 46.9454771,14.2509177 47.1537017,15.678229 C47.1994095,16.0060325 47.3788551,16.2962752 47.6514091,16.4789574 C47.9222703,16.6667615 48.2574611,16.7265174 48.5740301,16.6479811 C49.4475575,16.4362746 50.3549425,16.6360299 51.0642603,17.197735 C51.4485446,17.5033435 51.7431062,17.8926102 51.9310162,18.3279743 L26.613958,18.3279743 C26.7409242,17.5733432 27.1353659,16.9262727 27.766811,16.4516404 L27.766811,16.4516404 Z M16.3906405,3.20632843 C16.3906405,2.72828159 16.7766177,2.3424295 17.2455462,2.3424295 L21.2576777,2.3424295 C21.7215276,2.3424295 22.1125834,2.73681814 22.1125834,3.20632843 L22.1125834,31.566457 L16.3906405,31.566457 L16.3906405,3.20632843 Z M13.2368004,37.7230174 L25.2681164,37.7230174 L25.2681164,33.9105939 L13.2368004,33.9105939 L13.2368004,37.7230174 Z M3.2945013,44.3951854 L5.09572831,40.9293458 C5.50709876,40.1388612 5.61205747,40.0671542 5.7931959,40.0671542 L33.4108814,40.0671542 C33.60387,40.0671542 33.718986,40.1781294 34.1066561,40.9293458 L35.6911941,43.9751871 C35.9366621,44.4464047 35.9078831,44.6820135 35.8774112,44.7349401 C35.8418607,44.7929886 35.7098158,44.8561591 35.5693066,44.8561591 L35.5100557,44.8561591 L35.4998984,44.8561591 L3.63646357,44.8561591 C3.36729525,44.8561591 3.26233653,44.8015252 3.23863618,44.789574 C3.21493582,44.7264036 3.22001447,44.5368921 3.2945013,44.3951854 L3.2945013,44.3951854 Z M36.5037777,57.1436701 C36.3801973,57.3348889 36.139808,57.5926927 35.4778909,57.6558632 L31.8348077,57.6558632 L31.8348077,54.3863643 C31.8348077,53.7410011 31.3150928,53.2151495 30.6734903,53.2151495 C30.0318879,53.2151495 29.5121729,53.7410011 29.5121729,54.3863643 L29.5121729,57.6558632 L20.7227269,57.6558632 L20.7227269,52.0883248 C20.7227269,51.4412543 20.2047048,50.9171101 19.5614095,50.9171101 C18.919807,50.9171101 18.400092,51.4412543 18.400092,52.0883248 L18.400092,57.6558632 L9.61233887,57.6558632 L9.61233887,54.3863643 C9.61233887,53.7410011 9.09262394,53.2151495 8.45102146,53.2151495 C7.80772611,53.2151495 7.28801117,53.7410011 7.28801117,54.3863643 L7.28801117,57.6558632 L3.64492798,57.6558632 C2.9847038,57.5926927 2.7426216,57.3348889 2.61565541,57.1436701 C2.11794795,56.3822098 2.24660702,54.6441681 2.96100344,52.5049085 C2.96269633,52.49125 2.96777498,52.4758842 2.97454651,52.4622258 L4.50491231,47.1985886 L34.6179066,47.1985886 L36.1499653,52.4622258 C36.1550439,52.4758842 36.1567368,52.49125 36.1618155,52.5049085 C36.8762119,54.6441681 37.0031781,56.3822098 36.5037777,57.1436701 L36.5037777,57.1436701 Z M50.1619539,56.5580628 C50.1297892,56.9302564 49.6845611,57.3195231 49.0057152,57.3195231 L38.934757,57.3195231 C39.396914,55.6053837 38.9245997,53.4422218 38.37272,51.781009 L36.9354628,46.8434681 C37.3163613,46.6266397 37.6397019,46.3227385 37.8631624,45.9505449 C38.1594168,45.4571323 38.5369296,44.4054292 37.7497393,42.8893378 L36.1652012,39.8417893 C35.7538308,39.04789 35.0648276,37.7213101 33.4108814,37.7213101 L27.5924441,37.7213101 L27.5924441,32.7376718 C27.5924441,32.0923086 27.0727292,31.566457 26.4311267,31.566457 L24.4369111,31.566457 L24.4369111,28.9491506 L29.2209971,28.9491506 C29.7914985,33.3079134 33.5006041,36.6815582 37.9748926,36.6815582 C42.450874,36.6815582 46.1565939,33.3079134 46.7270953,28.9491506 L52.8147008,28.9491506 L50.1619539,56.5580628 Z M31.5724109,28.9491506 L44.3756815,28.9491506 C43.8254946,32.0086504 41.1659762,34.3391287 37.9748926,34.3391287 C34.7821162,34.3391287 32.1225978,32.0086504 31.5724109,28.9491506 L31.5724109,28.9491506 Z M55.2609161,26.6050138 L24.4369111,26.6050138 L24.4369111,20.6704038 L25.4390976,20.6704038 L25.4407905,20.6704038 L55.2609161,20.6704038 C55.4843766,20.6704038 55.6756723,20.8616225 55.6756723,21.0904021 L55.6756723,26.1867228 C55.6756723,26.4137951 55.4843766,26.6050138 55.2609161,26.6050138 L55.2609161,26.6050138 Z" id="Fill-3"></path>
          </g>
        </g>
      </g>
    </g>
  </g>
</svg>
