<?xml version="1.0" encoding="UTF-8"?>
<svg xmlns="http://www.w3.org/2000/svg" xmlns:xlink="http://www.w3.org/1999/xlink" width="83px" height="61px" viewBox="0 0 83 61" version="1.1">
  <title>Community</title>
  <g id="Page-1" stroke="none" stroke-width="1" fill="none" fill-rule="evenodd">
    <g id="Community" transform="translate(1.000000, 1.000000)">
      <path d="M48.5308511,5.85 C49.1257298,5.85 49.6079728,6.33224894 49.6079787,6.92712766 L49.6079787,6.92712766 L49.6079787,9.66981243 L57.5525182,16.6212766 L71.1505319,16.6212766 C71.7454106,16.6212825 72.2276596,17.1035255 72.2276596,17.6984043 L72.2276596,17.6984043 L72.2276596,31.7010638 C72.2276596,32.2959425 71.7454106,32.7781855 71.1505319,32.7781915 L71.1505319,32.7781915 L70.0734043,32.7781915 L70.0734043,58.6292553 C70.0733983,59.224134 69.5911553,59.706383 68.9962766,59.706383 L68.9962766,59.706383 L10.831383,59.706383 C10.2365043,59.706383 9.7542613,59.224134 9.7542553,58.6292553 L9.7542553,58.6292553 L9.7542553,32.7781915 L8.67712766,32.7781915 C8.08224894,32.7781855 7.6,32.2959425 7.6,31.7010638 L7.6,31.7010638 L7.6,17.6984043 C7.6,17.1035255 8.08224894,16.6212825 8.67712766,16.6212766 L8.67712766,16.6212766 L22.2751413,16.6212766 L30.2196809,9.66981243 L30.2196809,6.92712766 C30.2196868,6.33224894 30.7019298,5.85 31.2968085,5.85 L31.2968085,5.85 L48.5308511,5.85 Z M53.9164894,37.0867021 L44.2223404,37.0867021 L44.2223404,57.5521277 L53.9164894,57.5521277 L53.9164894,37.0867021 Z M67.9191489,32.7781915 L11.9085106,32.7781915 L11.9085106,57.5521277 L42.0680851,57.5521277 L42.0680851,54.3207447 L16.2170213,54.3207447 C15.6221426,54.3207387 15.1398996,53.8384957 15.1398936,53.243617 L15.1398936,53.243617 L15.1398936,36.0095745 C15.1398996,35.4146958 15.6221426,34.9324528 16.2170213,34.9324468 L16.2170213,34.9324468 L63.6106383,34.9324468 C64.205517,34.9324528 64.68776,35.4146958 64.687766,36.0095745 L64.687766,36.0095745 L64.687766,53.243617 C64.68776,53.8384957 64.205517,54.3207387 63.6106383,54.3207447 L63.6106383,54.3207447 L56.0707447,54.3207447 L56.0707447,57.5521277 L67.9191489,57.5521277 L67.9191489,32.7781915 Z M42.0680851,37.0867021 L17.2941489,37.0867021 L17.2941489,52.1664894 L42.0680851,52.1664894 L42.0680851,37.0867021 Z M62.5335106,37.0867021 L56.0707447,37.0867021 L56.0707447,52.1664894 L62.5335106,52.1664894 L62.5335106,37.0867021 Z M48.5308511,46.7808511 L48.5308511,51.0893617 L46.3765957,51.0893617 L46.3765957,46.7808511 L48.5308511,46.7808511 Z M30.2196809,18.7755319 L9.7542553,18.7755319 L9.7542553,30.6239362 L70.0734043,30.6239362 L70.0734043,18.7755319 L49.6079787,18.7755319 L49.6079787,24.1611702 C49.6079728,24.7560489 49.1257298,25.2382919 48.5308511,25.2382979 L48.5308511,25.2382979 L31.2968085,25.2382979 C30.7019298,25.2382919 30.2196868,24.7560489 30.2196809,24.1611702 L30.2196809,24.1611702 L30.2196809,18.7755319 Z M47.4537234,8.00425532 L32.3739362,8.00425532 L32.3739362,23.0840426 L47.4537234,23.0840426 L47.4537234,8.00425532 Z M49.6079787,12.5321822 L49.6079787,16.6212766 L54.2812317,16.6212766 L49.6079787,12.5321822 Z M30.2196809,12.5321822 L25.5464279,16.6212766 L30.2196809,16.6212766 L30.2196809,12.5321822 Z" id="Combined-Shape" fill="#444079" fill-rule="nonzero"></path>
      <g id="Group-14" transform="translate(8.294987, 10.328322) rotate(-8.000000) translate(-8.294987, -10.328322) translate(1.294987, 1.828322)" stroke="#444079" stroke-width="1.8">
        <path d="M9.94086689,1.34907169 C10.9285754,1.30417585 12.1149747,1.29695187 13.5000009,1.32670428 L13.5000009,1.32670428 L13.5000009,9.4050525 C12.4637541,9.37262725 11.2504367,9.38768724 9.85913311,9.45092831 C8.54699978,9.51057074 7.75289011,9.61647653 7.03766067,9.71209363 C6.2919093,9.81179113 5.63853489,9.9 4.5,9.9 C3.2984303,9.9 2.09844135,9.80003897 0.899995563,9.60025819 L0.899995563,9.60025819 L0.899995563,9.60025365 L0.899995563,1.54938332 C1.9453815,1.71660107 3.1406489,1.8 4.5,1.8 C6.171389,1.8 7.17289062,1.66411563 8.11032666,1.53630808 C8.69101905,1.45713801 9.2450968,1.3806976 9.94086689,1.34907169 Z" id="Rectangle"></path>
        <line x1="13.5" y1="0.45" x2="13.5" y2="16.65" id="Line" stroke-linecap="round" stroke-linejoin="round"></line>
      </g>
      <g id="Group-14" transform="translate(72.605359, 10.331902) scale(-1, 1) rotate(-9.000000) translate(-72.605359, -10.331902) translate(65.605359, 1.831902)" stroke="#444079" stroke-width="1.8">
        <path d="M9.94086689,1.34907169 C10.9285754,1.30417585 12.1149747,1.29695187 13.5000009,1.32670428 L13.5000009,1.32670428 L13.5000009,9.4050525 C12.4637541,9.37262725 11.2504367,9.38768724 9.85913311,9.45092831 C8.54699978,9.51057074 7.75289011,9.61647653 7.03766067,9.71209363 C6.2919093,9.81179113 5.63853489,9.9 4.5,9.9 C3.2984303,9.9 2.09844135,9.80003897 0.899995563,9.60025819 L0.899995563,9.60025819 L0.899995563,9.60025365 L0.899995563,1.54938332 C1.9453815,1.71660107 3.1406489,1.8 4.5,1.8 C6.171389,1.8 7.17289062,1.66411563 8.11032666,1.53630808 C8.69101905,1.45713801 9.2450968,1.3806976 9.94086689,1.34907169 Z" id="Rectangle"></path>
        <line x1="13.5" y1="0.45" x2="13.5" y2="16.65" id="Line" stroke-linecap="round" stroke-linejoin="round"></line>
      </g>
      <polygon id="Rectangle" stroke="#444079" stroke-width="1.8" stroke-linejoin="round" points="34.6 14.85 45.4 14.85 44.5 21.15 35.5 21.15"></polygon>
      <path d="M34.6,10.35 L45.4,10.35 C44.5,13.35 42.7,14.85 40,14.85 C37.3,14.85 35.5,13.35 34.6,10.35 Z" id="Rectangle" stroke="#444079" stroke-width="1.8" stroke-linejoin="round" transform="translate(40.000000, 12.600000) rotate(-180.000000) translate(-40.000000, -12.600000) "></path>
      <line x1="40" y1="17.1" x2="40" y2="18.9" id="Line-2" stroke="#444079" stroke-width="0.9" stroke-linecap="round" stroke-linejoin="round"></line>
      <line x1="42.25" y1="17.1" x2="42.025" y2="18.9" id="Line-2" stroke="#444079" stroke-width="0.9" stroke-linecap="round" stroke-linejoin="round"></line>
      <line x1="37.75" y1="17.1" x2="37.975" y2="18.9" id="Line-2" stroke="#444079" stroke-width="0.9" stroke-linecap="round" stroke-linejoin="round"></line>
    </g>
  </g>
</svg>
