<?xml version="1.0" encoding="UTF-8"?>
<svg xmlns="http://www.w3.org/2000/svg" xmlns:xlink="http://www.w3.org/1999/xlink" width="60px" height="60px" viewBox="0 0 60 60" version="1.1">
  <title>Combined Shape</title>
  <g id="Desktop" stroke="none" stroke-width="1" fill="none" fill-rule="evenodd">
    <g id="Our-Home-Care-Services" transform="translate(-641.000000, -1534.000000)" fill="#514D85">
      <g id="Group-12" transform="translate(639.000000, 1534.000000)">
        <path d="M32,1.09423581e-12 C48.5701601,1.09423581e-12 62,13.4312959 62,29.9990621 C62,46.4030077 48.8374139,59.7310602 32.4961524,59.9959809 L32,60 L32,60 C15.4298399,60 2,46.5687041 2,29.9990621 C2.01688344,13.4406753 15.4373437,0.0187587932 32,1.09423581e-12 Z M32,1.99781147 C16.5347674,1.99781147 3.99974987,14.5361888 3.99974987,29.9990621 C4.01663332,45.4544318 16.5422711,57.9815539 32,57.9984368 C47.4652326,57.9984368 60.0002501,45.4638112 60.0002501,29.9990621 C60.0002501,14.5361888 47.4652326,1.99781147 32,1.99781147 Z M29.5757579,49.1446649 L29.6925963,49.1495388 L29.6925963,49.1495388 C29.7057279,49.1532906 29.7207354,49.1532906 29.7338669,49.1551665 L29.7301151,49.1532906 C30.4842421,49.2414569 31.2421211,49.2855401 32.0002345,49.2855401 L32.5688086,49.2772745 C33.1373167,49.2607433 33.7054621,49.2194154 34.2717609,49.1532906 C34.8570535,49.0838831 35.3916958,49.5059559 35.4592296,50.0931061 C35.5267634,50.6821322 35.1084292,51.214882 34.5193847,51.2824136 C33.9622311,51.3480694 33.4027847,51.3918399 32.8425741,51.4137252 L32.2821653,51.4283154 L32.2821653,51.4283154 L31.7215866,51.4283154 C30.9741862,51.4185886 30.2272386,51.3699547 29.4843672,51.2824136 C28.8953227,51.2261373 28.4657329,50.700891 28.522011,50.1118649 C28.5745373,49.5621072 29.0356011,49.151248 29.5757579,49.1446649 Z M23.8676341,13.9228456 L24.0762898,13.9232533 C24.5641941,13.9346445 25.0586949,14.0194551 25.5452726,14.1848366 C26.9953727,14.6781929 28.1284392,15.8130999 28.6218109,17.2594028 L29.3102801,19.5235892 C29.888069,21.4313584 30.0081291,23.4498046 29.6629565,25.4157261 C29.3496748,27.0683758 28.2991496,28.4902923 26.8096548,29.2800375 L27.5787894,46.5006097 C27.6838419,47.4610599 27.3705603,48.4215101 26.7214857,49.138096 C26.0495118,49.8752519 25.1493203,50.2810217 24.226274,50.3465413 L24.0282033,50.3553701 C23.1029397,50.3722372 22.1694899,50.0482209 21.4332166,49.3744568 C21.3506753,49.3012975 21.2737619,49.2206347 21.1968484,49.138096 C20.5646573,48.4402689 20.2513757,47.5098327 20.3395448,46.5718931 L21.1143072,29.2762858 C19.6285643,28.4902923 18.579915,27.0683758 18.2647574,25.4157261 C17.9195848,23.4498046 18.0415208,21.4313584 18.6193097,19.5235892 L19.3096548,17.2594028 C19.9918878,15.2436438 21.855352,13.9619537 23.8676341,13.9228456 Z M44.8603052,13.9280288 C45.4493497,13.9280288 45.9295898,14.4101297 45.9295898,14.9991559 L45.9295898,24.6430514 C45.9295898,24.9281851 45.8151576,25.1983117 45.6144322,25.4009067 L42.7386193,28.2803814 L43.6522011,46.5570736 C43.7478739,48.5548851 42.2077289,50.2525559 40.2117309,50.3482257 C38.2157329,50.4457715 36.518009,48.9056745 36.4223362,46.9097389 C36.4167084,46.7934344 36.4167084,46.675254 36.4223362,46.5570736 L37.335918,28.2803814 L34.4563532,25.4009067 C34.2575038,25.1983117 34.1430715,24.9281851 34.1430715,24.6430514 L34.1430715,14.9991559 C34.1430715,14.4101297 34.6233117,13.9280288 35.2142321,13.9280288 C35.8070285,13.9280288 36.2853927,14.4101297 36.2853927,14.9991559 L36.2853927,24.2003439 L39.1874687,27.0985775 C39.3994497,27.3143036 39.5138819,27.6069408 39.5007504,27.9108332 L38.5627814,46.6621229 C38.5402701,47.0654369 38.6865933,47.4612475 38.967984,47.7520088 C39.2606303,48.0483977 39.6466046,48.1979991 40.0330478,48.2001094 L40.1778046,48.1939858 C40.5147755,48.1635591 40.8432185,48.0201423 41.1009255,47.763264 C41.1065533,47.7613882 41.1084292,47.7538846 41.1121811,47.7520088 C41.3898199,47.4612475 41.5398949,47.0654369 41.5155078,46.6621229 L40.570035,27.9108332 C40.5569035,27.6069408 40.6713357,27.3143036 40.8833167,27.0985775 L43.7853927,24.2003439 L43.7853927,14.9991559 C43.7853927,14.4101297 44.2675088,13.9280288 44.8603052,13.9280288 Z M24.0071674,16.0715264 L23.8395804,16.0737575 C23.5595756,16.0859737 23.2766864,16.1409459 22.9996248,16.2426763 C22.2398699,16.5240582 21.6414457,17.1262154 21.3581791,17.8859465 L20.6697099,20.1501329 C20.1913457,21.7371268 20.090045,23.4141629 20.3770635,25.044302 C20.6078039,26.2317336 21.4557279,27.2071909 22.5981741,27.6030014 C23.0333917,27.7680788 23.3129065,28.1920275 23.2922711,28.6534938 L22.4781141,46.7407222 C22.4424712,47.0971393 22.5587794,47.4498046 22.8007754,47.7105518 C23.4442221,48.3502267 24.4834917,48.3502267 25.1288144,47.7105518 C25.382066,47.4291699 25.4983742,47.0483664 25.442096,46.6694388 L24.6373187,28.6534938 C24.6148074,28.1920275 24.8961981,27.7680788 25.3295398,27.6030014 C26.4738619,27.2071909 27.31991,26.2317336 27.5525263,25.044302 C27.8376688,23.4141629 27.7382441,21.7371268 27.2561281,20.1501329 L26.5695348,17.8859465 C26.1815764,16.835887 25.2235965,16.1604872 24.173644,16.0793646 L24.0071674,16.0715264 L24.0071674,16.0715264 Z M16.451286,15.8109522 L16.5685991,15.8197813 C16.7634806,15.8452157 16.9536107,15.9243663 17.1157454,16.0590277 C17.1176213,16.0627794 17.1176213,16.0627794 17.1213732,16.0665312 C17.5734742,16.4473347 17.6316283,17.1226512 17.248937,17.5747382 C10.7882066,25.2433328 11.2834542,36.5830233 18.3857554,43.660716 C18.8078414,44.079037 18.8078414,44.7581054 18.3876313,45.1764264 C18.2083452,45.3557069 17.9815099,45.4584974 17.7478818,45.4845027 L17.6306903,45.4911052 C17.3568034,45.4915742 17.0829165,45.3874629 16.8737494,45.1783023 C8.9798024,37.3164921 8.43015258,24.7162107 15.6056153,16.194091 C15.8242961,15.9346837 16.1379223,15.8045206 16.451286,15.8109522 Z M48.4886312,16.9406439 L48.6057091,16.9508676 C48.8772511,16.9895576 49.1342546,17.1316555 49.3124687,17.3680163 C49.3180965,17.3755198 49.3237244,17.3848992 49.3293522,17.3924027 C55.5255753,25.9088948 54.6138694,37.6650305 47.1795273,45.1254025 C47.0002412,45.304683 46.7727167,45.407129 46.538301,45.4327405 L46.4207104,45.4391433 C46.1458854,45.4391433 45.8710605,45.3345631 45.6618934,45.1254025 C45.2435593,44.7070814 45.2435593,44.0261373 45.6618934,43.6078162 C49.273074,40.0023761 51.2972111,35.1044552 51.2859555,30.0001876 C51.2972111,25.9220259 50.0046898,21.9489136 47.5978614,18.6548695 C47.2451851,18.1821479 47.338982,17.5087072 47.8117184,17.154166 C48.0143197,17.0022198 48.2534443,16.9329654 48.4886312,16.9406439 Z M41.6434467,13.9280288 C42.2362431,13.9280288 42.7146073,14.4101297 42.7146073,14.9991559 L42.7146073,23.5738002 C42.7146073,24.1235579 42.2978989,24.5785379 41.7603724,24.6367585 L41.6434467,24.6430514 L41.6434467,24.6430514 C41.0506503,24.6430514 40.5722861,24.1628263 40.5722861,23.5738002 L40.5722861,14.9991559 C40.5722861,14.4101297 41.0506503,13.9280288 41.6434467,13.9280288 Z M38.4282766,13.9280288 C39.021073,13.9280288 39.4994372,14.4101297 39.4994372,14.9991559 L39.4994372,23.5738002 C39.4994372,24.1235579 39.0827289,24.5785379 38.5452023,24.6367585 L38.4282766,24.6430514 L38.4282766,24.6430514 C37.8373562,24.6430514 37.3571161,24.1628263 37.3571161,23.5738002 L37.3571161,14.9991559 C37.3571161,14.4101297 37.8373562,13.9280288 38.4282766,13.9280288 Z M31.836791,8.57451791 L32.3284165,8.57671046 C34.7859166,8.61565342 37.2316014,9.07414774 39.5574037,9.94534938 C40.1108054,10.1516961 40.3921961,10.7707363 40.183967,11.3259966 C40.0424189,11.7045831 39.6977735,11.9668962 39.3022479,12.0114606 L39.1822161,12.018196 L39.1822161,12.018196 C39.0546523,12.018196 38.9252126,11.9956855 38.8070285,11.9487885 C36.627939,11.1339065 34.3326913,10.7208379 32.0306903,10.7164708 L31.5702325,10.7210488 C30.1887834,10.7511431 28.8075288,10.9285353 27.4501001,11.2547131 L27.3350231,11.2756519 L27.3350231,11.2756519 L27.2206798,11.284008 C26.727914,11.2936397 26.2778889,10.962201 26.1575788,10.4630921 C26.0168834,9.88719712 26.3695598,9.30942629 26.9454727,9.17061122 C28.5566148,8.78389149 30.1977276,8.58586967 31.836791,8.57451791 Z" id="Combined-Shape"></path>
      </g>
    </g>
  </g>
</svg>
