<?xml version="1.0" encoding="UTF-8"?>
<svg xmlns="http://www.w3.org/2000/svg" xmlns:xlink="http://www.w3.org/1999/xlink" width="62px" height="62px" viewBox="0 0 62 62" version="1.1">
  <title>Combined Shape</title>
  <g id="Retirement-Villages" transform="translate(-506.000000, -2741.000000)" fill="#514D85">
    <g id="Group-20" transform="translate(-70.000000, 2381.000000)">
      <g id="Group-19" transform="translate(190.000000, 179.000000)">
        <g id="Group-11" transform="translate(387.000000, 182.000000)">
          <path d="M10.9693647,0 C11.6612028,0 12.2224734,0.562966312 12.2224734,1.25310875 L12.2224734,5.08026227 C13.2704047,4.19002939 14.2572914,3.95602532 14.6422112,3.89498078 L14.7405607,3.88141533 L14.7405607,3.88311101 C14.77617,3.88141533 14.8151707,3.87971965 14.8524757,3.87971965 C15.1831336,3.87971965 15.5070088,4.0136785 15.7393172,4.24598689 C15.9716256,4.48168664 16.1038888,4.80386615 16.1038888,5.1328284 C16.1038888,5.46009496 15.9716256,5.78227447 15.7393172,6.01797423 C15.5527922,6.20280353 15.3120054,6.32489261 15.0525661,6.36558897 L15.0525661,6.36728465 L15.0390007,6.37067601 C14.9491296,6.39102419 14.2962921,6.54872259 13.6536288,7.16086367 C12.8770066,7.90018087 12.4123898,9.00237395 12.2716482,10.4420077 C12.4954782,10.4945738 12.7006557,10.54714 12.8871806,10.6030974 C14.3285101,7.25412616 17.6079584,5.09382772 21.2655437,5.09382772 C21.524983,5.09382772 21.7895094,5.10569749 22.0540357,5.12774135 C23.5784535,2.01446982 26.7900746,0.00508704499 30.2577436,0.00508704499 C34.1340719,0.00508704499 37.5864798,2.46043409 38.8701108,6.11801944 C38.9633733,6.11462808 39.0566358,6.1129324 39.1498983,6.1129324 C40.8269274,6.1129324 42.4395207,6.61824553 43.8113272,7.57291431 C44.8541714,6.99299118 45.9987565,6.70133394 47.2128646,6.70133394 C51.0942799,6.70133394 54.2516392,9.85869319 54.2516392,13.7401085 C54.2516392,14.7134298 54.0566358,15.6579245 53.6700203,16.544766 C56.0185395,17.753787 57.47513,20.1430025 57.47513,22.8001357 C57.47513,25.2096993 56.2254126,27.4598689 54.1956817,28.7468913 L58.7468913,28.7468913 C59.4387294,28.7468913 60,29.3081619 60,30 L60,58.7468913 C60,59.4387294 59.4387294,60 58.7468913,60 L1.25480443,60 C0.561270631,60 -1.8189894e-12,59.4387294 -1.8189894e-12,58.7468913 L-1.8189894e-12,30 C-1.8189894e-12,29.3081619 0.561270631,28.7468913 1.25480443,28.7468913 L1.89407642,28.7468913 C0.637576306,23.9684603 -1.8189894e-12,20.8416233 -1.8189894e-12,19.4494687 C-1.8189894e-12,15.4256161 2.73683021,11.8901198 6.81494461,10.631924 C6.25876102,7.32364911 2.80126611,4.99039114 2.76565679,4.96665159 C2.18742935,4.5868189 2.02633959,3.80680534 2.40108524,3.23027357 C2.75559575,2.69217726 3.45427689,2.51745422 4.0187364,2.80123144 L4.13746326,2.86909338 C4.1985078,2.90809405 5.58896676,3.82376215 6.90990278,5.38548496 L6.90990278,1.25310875 C6.90990278,0.562966312 7.47286909,0 8.16470721,0 L10.9693647,0 Z M57.4937825,31.2531087 L2.5062175,31.2531087 L2.5062175,38.330884 L39.2753787,38.330884 C39.9689125,38.330884 40.5301831,38.8921546 40.5301831,39.5806014 C40.5301831,40.2707438 39.9689125,40.8337102 39.2753787,40.8337102 L2.5062175,40.8337102 L2.5062175,47.9097897 L12.704047,47.9097897 C13.3975808,47.9097897 13.9588515,48.4710604 13.9588515,49.1645942 C13.9588515,49.8564323 13.3975808,50.4177029 12.704047,50.4177029 L2.5062175,50.4177029 L2.5062175,57.4937825 L57.4937825,57.4937825 L57.4937825,50.4177029 L20.7229256,50.4177029 C20.0310875,50.4177029 19.4698169,49.8564323 19.4698169,49.1645942 C19.4698169,48.4710604 20.0310875,47.9097897 20.7229256,47.9097897 L57.4937825,47.9097897 L57.4937825,40.8337102 L47.2942573,40.8337102 C46.6041149,40.8337102 46.0428442,40.2707438 46.0428442,39.5806014 C46.0428442,38.8921546 46.6041149,38.330884 47.2942573,38.330884 L57.4937825,38.330884 L57.4937825,31.2531087 Z M53.1821727,52.9530861 L53.1411372,53.0288831 L53.1411372,53.0288831 L53.1923468,52.9615645 C53.4585688,53.161655 53.6315284,53.4550079 53.6773118,53.7856658 C53.7247909,54.1163238 53.6383111,54.4486774 53.436525,54.7165951 C53.1957382,55.0319919 52.8311666,55.2134298 52.4360728,55.2134298 C52.1630681,55.2134298 51.9002374,55.1252544 51.6797988,54.9590775 C51.401707,54.7471173 51.2287475,54.4537644 51.1846597,54.1214108 C51.1371806,53.7890572 51.2236604,53.460095 51.4254465,53.1921773 C51.8459756,52.6427764 52.6310762,52.5393398 53.1821727,52.9530861 Z M8.31952295,52.9564775 L8.27882659,53.0327832 L8.32969704,52.9649559 C8.59591906,53.1684377 8.76718291,53.4634863 8.81127063,53.7941442 C8.85535835,54.1248022 8.76718291,54.4554601 8.56370111,54.7199864 C8.32630567,55.0319919 7.9634298,55.2117341 7.56833597,55.2117341 C7.29024418,55.2117341 7.02741352,55.121863 6.8069749,54.9539905 C6.24909564,54.5266787 6.14396337,53.7381868 6.56110106,53.1887859 C6.76627854,52.9225639 7.06302284,52.7513 7.39537644,52.7072123 C7.722643,52.6665159 8.05499661,52.7546914 8.31952295,52.9564775 Z M16.7557088,47.9097897 C17.4458512,47.9097897 18.0071219,48.4710604 18.0071219,49.1645942 C18.0071219,49.8564323 17.4458512,50.4177029 16.7557088,50.4177029 C16.0486095,50.4177029 15.4873389,49.8564323 15.4873389,49.1645942 C15.4873389,48.4710604 16.0486095,47.9097897 16.738752,47.9097897 L16.7557088,47.9097897 Z M8.31952295,43.3735021 L8.27882659,43.4498078 L8.32969704,43.3819806 C8.59591906,43.5854624 8.76718291,43.880511 8.81127063,44.2128646 C8.85535835,44.5452182 8.76718291,44.8741804 8.56370111,45.1404024 C8.32630567,45.4473208 7.95325571,45.6321501 7.56833597,45.6321501 C7.29193986,45.6321501 7.0291092,45.542279 6.8069749,45.3727108 C6.24909564,44.9437034 6.14396337,44.1552114 6.56110106,43.6058105 C6.9833258,43.0581054 7.77012209,42.9563645 8.31952295,43.3735021 Z M53.1820032,43.3701108 L53.1921773,43.3785892 C53.7415781,43.7957269 53.8517974,44.5842189 53.4363554,45.1353154 C53.1938729,45.4490165 52.8293014,45.6304544 52.4359032,45.6304544 C52.1595071,45.6304544 51.8983721,45.542279 51.6796292,45.3761022 C51.4015374,45.1624463 51.2285779,44.8707891 51.1827945,44.5367398 C51.1370111,44.2060818 51.2234908,43.8771196 51.425277,43.6108976 C51.6270631,43.3446756 51.9221117,43.1734117 52.2527696,43.1276283 C52.5834275,43.0835406 52.9157811,43.1683247 53.1820032,43.3701108 Z M43.2605697,38.3285101 C43.9507122,38.3285101 44.5119828,38.8897807 44.5119828,39.5833145 C44.5119828,40.2734569 43.9507122,40.8347276 43.2605697,40.8347276 C42.5534705,40.8347276 41.9921999,40.2734569 41.9921999,39.5833145 C41.9921999,38.8897807 42.5534705,38.3285101 43.2436129,38.3285101 L43.2605697,38.3285101 Z M53.1821727,33.7888311 L53.1411372,33.8647976 L53.1411372,33.8647976 L53.1923468,33.7973095 C53.4585688,33.9974 53.6315284,34.2907529 53.6773118,34.6214108 C53.7247909,34.9520687 53.6383111,35.2844223 53.436525,35.55234 C53.1957382,35.8677368 52.8311666,36.0491748 52.4360728,36.0491748 C52.1630681,36.0491748 51.9002374,35.9609993 51.6797988,35.7948225 C51.401707,35.5828623 51.2287475,35.2895094 51.1846597,34.9571558 C51.1371806,34.6248022 51.2236604,34.2958399 51.4254465,34.0279222 C51.8459756,33.4768257 52.6310762,33.3750848 53.1821727,33.7888311 Z M8.31952295,33.792392 L8.27882659,33.8686977 L8.32969704,33.8008704 C8.59591906,34.0060479 8.76718291,34.3010965 8.81127063,34.6317545 C8.85535835,34.9624124 8.76718291,35.2913746 8.56370111,35.555901 C8.32630567,35.8679064 7.9634298,36.0476487 7.56833597,36.0476487 C7.29024418,36.0476487 7.02741352,35.9577775 6.8069749,35.789905 C6.24909564,35.3625933 6.14396337,34.5724056 6.56110106,34.0230047 C6.98671716,33.4736039 7.77351345,33.3735587 8.31952295,33.792392 Z M9.89938955,12.6769161 C7.22869093,12.6769161 4.77673525,13.9944608 3.46088628,16.1259326 L8.49366946,16.1259326 C9.18550757,16.1259326 9.7467782,16.6872033 9.7467782,17.3790414 C9.7467782,18.0725752 9.18550757,18.6338458 8.49366946,18.6338458 L2.71478634,18.6338458 C2.66561158,18.6338458 2.61304544,18.6304544 2.56387068,18.6236717 C2.52487,18.9170246 2.5062175,19.186638 2.5062175,19.4494687 C2.5062175,20.6449243 3.23027357,24.0312005 4.49016505,28.7468913 L13.646846,28.7468913 C13.9181551,26.8663803 14.8117793,25.1130454 16.171716,23.7751526 L12.5039566,23.7751526 C11.8121185,23.7751526 11.2508478,23.213882 11.2508478,22.5237395 C11.2508478,21.8302057 11.8121185,21.2689351 12.5039566,21.2689351 L17.0755144,21.2689351 C17.221343,20.4346597 17.295953,19.8225187 17.295953,19.4494687 C17.295953,15.7155777 13.9758083,12.6769161 9.89938955,12.6769161 Z M22.2880398,23.7751526 C19.330771,23.7751526 16.7838571,25.8591454 16.1903685,28.7468913 L28.3840154,28.7468913 C27.7922225,25.8591454 25.2453086,23.7751526 22.2880398,23.7751526 Z M33.7406738,26.0219308 C32.3688673,26.0219308 31.2531087,27.1834728 31.2531087,28.6112367 C31.2531087,28.6553244 31.2548044,28.7011078 31.2565001,28.7468913 L36.221456,28.7468913 C36.2231517,28.7011078 36.2248474,28.6553244 36.2248474,28.6112367 C36.2248474,27.1834728 35.1090889,26.0219308 33.7406738,26.0219308 Z M47.2366041,20.8043183 L42.8888763,28.0058784 L42.7430477,28.7468913 L43.5281483,28.7468913 L48.4880172,21.636898 L47.2366041,20.8043183 Z M30.2577436,2.51130454 C27.4598689,2.51130454 24.95026,4.28498757 24.0142437,6.92346823 C23.8090662,7.50847841 23.2020122,7.85609315 22.5864798,7.73230839 C22.1489939,7.64413294 21.7030296,7.60004522 21.2655437,7.60004522 C18.6033235,7.60004522 16.2242822,9.17024644 15.1831336,11.606941 C15.8088402,11.9782953 16.390459,12.4157811 16.9161203,12.9126159 C18.1573593,10.9880172 20.2549175,9.84343206 22.5457834,9.84343206 C22.6509157,9.84343206 22.7560479,9.84512774 22.8645716,9.85021479 C23.2579697,9.11428894 23.783631,8.46314719 24.422903,7.91374633 C24.945173,7.46778205 25.7370563,7.52882659 26.1881076,8.05279222 C26.4068506,8.30884015 26.5119828,8.63101967 26.4848519,8.96676464 C26.4611124,9.29911825 26.3051097,9.60264526 26.0507574,9.81969252 C25.4860954,10.3046575 25.0587836,10.9269726 24.8129098,11.6222021 C24.6060366,12.208908 23.9972869,12.554827 23.3834501,12.432738 C23.1104454,12.3767805 22.8289622,12.3496496 22.5457834,12.3496496 C20.8094054,12.3496496 19.2375085,13.4365815 18.6236717,15.0593489 C19.3952069,16.4023287 19.8004748,17.9199638 19.8004748,19.4494687 C19.8004748,19.8123446 19.7597784,20.2837441 19.6749943,20.880624 C20.2803527,19.6546462 21.1638028,18.5880624 22.2524305,17.7707438 C23.7734569,16.6210717 25.5878363,16.0157133 27.5005652,16.0157133 C31.4243726,16.0157133 34.8479539,18.6491069 35.9026679,22.3711282 L35.9026679,16.3633281 C35.9026679,15.6714899 36.4639385,15.1102193 37.1557766,15.1102193 L39.8112141,15.1102193 L40.1825684,13.1313588 C40.2436129,12.8007009 40.4369206,12.5056523 40.7116211,12.320823 C40.9947999,12.1326023 41.3424147,12.0664707 41.6662898,12.134298 L44.6371241,12.7430477 C45.3103097,12.8820936 45.7494913,13.5434095 45.6172281,14.2148994 L44.3166403,20.7958399 L45.7681438,18.3896676 C45.9444947,18.0963147 46.2378476,17.8860502 46.5685055,17.8114402 C46.9008591,17.7385259 47.2535609,17.8029618 47.5367398,17.9928781 L50.9416686,20.2583088 C51.2248474,20.4465295 51.4164594,20.7347954 51.4808953,21.0688447 C51.5419399,21.4045896 51.4673299,21.7505087 51.2774135,22.0201221 L46.5837667,28.7468913 L47.8470495,28.7468913 C47.97253,28.524757 48.0793579,28.2924486 48.1624463,28.0584445 C48.3421886,27.5514357 48.8152837,27.2275605 49.3392494,27.2275605 C49.4172507,27.2275605 49.4986435,27.2343432 49.5800362,27.2513 C49.8649107,27.3055618 50.1514809,27.3343884 50.4363554,27.3343884 C52.9374859,27.3343884 54.9706082,25.2995704 54.9706082,22.8001357 C54.9706082,20.7212299 53.5631924,18.915329 51.5487226,18.4066245 C51.141759,18.3031879 50.8161881,18.0081393 50.6754465,17.6113498 C50.5330093,17.2179516 50.5991409,16.7787701 50.8517974,16.4413294 C51.4351119,15.6579245 51.7454217,14.7236039 51.7454217,13.7401085 C51.7454217,11.2389781 49.7122993,9.20585575 47.2128646,9.20585575 C46.2225865,9.20585575 45.2814832,9.51955686 44.4946869,10.1113498 C44.0182003,10.4691386 43.3551888,10.440312 42.9092245,10.0469139 C41.8714673,9.12615872 40.5369659,8.6191499 39.1498983,8.6191499 C36.0230613,8.6191499 33.4795388,11.1643681 33.4795388,14.2912051 C33.4795388,14.9813475 32.9182681,15.5426181 32.22643,15.5426181 C31.5345919,15.5426181 30.9733213,14.9813475 30.9733213,14.2912051 C30.9733213,10.850667 33.1387068,7.77130907 36.3723717,6.60128872 C35.3566584,4.15102871 32.9097897,2.51130454 30.2577436,2.51130454 Z M38.9260683,17.6164368 L38.4088854,17.6164368 L38.4088854,26.6696812 C38.4088854,26.7120733 38.4071897,26.7527696 38.4037983,26.7917703 C38.6225413,27.3818675 38.7310649,27.9923129 38.7310649,28.6112367 C38.7310649,28.6553244 38.7310649,28.7011078 38.7293692,28.7468913 L38.9260683,28.7468913 L38.9260683,17.6164368 Z M27.5005652,18.5219308 C25.4606602,18.5219308 23.4987565,19.5698621 22.3406059,21.2689351 C25.3775718,21.2875876 28.2093602,22.9086593 29.77617,25.5166177 C30.6884468,24.3025096 32.1043409,23.5614967 33.6016279,23.5191047 C33.020009,20.6177934 30.4697038,18.5219308 27.5005652,18.5219308 Z M8.69918607,21.2970834 C9.02814832,21.2970834 9.35202351,21.4310423 9.5843319,21.6650463 C9.81833597,21.9024418 9.95229482,22.2246213 9.95229482,22.5518879 C9.95229482,22.8791544 9.81833597,23.2013339 9.5843319,23.4370337 C9.3537192,23.6710378 9.029844,23.8049966 8.69918607,23.8049966 C8.37022383,23.8049966 8.04634863,23.6710378 7.81404024,23.4370337 C7.58003617,23.2030296 7.44607732,22.8808501 7.44607732,22.5518879 C7.44607732,22.2229256 7.58003617,21.9007461 7.81404024,21.6650463 C8.04804431,21.4310423 8.37191951,21.2970834 8.69918607,21.2970834 Z M42.4106941,14.8439973 L41.4475469,20.012435 C41.4458512,20.0276961 41.4407642,20.0480443 41.4373728,20.0666968 L41.4356771,22.4440425 L42.9143116,14.9491296 L42.4106941,14.8439973 Z M9.71795162,2.5062175 L9.41781596,2.5062175 L9.41781596,10.1825684 C9.51786118,10.1774813 9.61621072,10.17409 9.71795162,10.1723943 L9.71795162,2.5062175 Z" id="Combined-Shape"></path>
        </g>
      </g>
    </g>
  </g>
</svg>
