<?xml version="1.0" encoding="UTF-8"?>
<svg xmlns="http://www.w3.org/2000/svg" xmlns:xlink="http://www.w3.org/1999/xlink" width="60" zoomAndPan="magnify" viewBox="0 0 45 44.999999" height="60" preserveAspectRatio="xMidYMid meet" version="1.0">
  <defs>
    <clipPath id="35c31aefde">
      <path d="M 1.503906 3 L 23 3 L 23 23 L 1.503906 23 Z M 1.503906 3 " clip-rule="nonzero"></path>
    </clipPath>
    <clipPath id="a9f61e5be1">
      <path d="M 26 8 L 43.503906 8 L 43.503906 25 L 26 25 Z M 26 8 " clip-rule="nonzero"></path>
    </clipPath>
    <clipPath id="cb83dc71f1">
      <path d="M 16 0.542969 L 35 0.542969 L 35 44.792969 L 16 44.792969 Z M 16 0.542969 " clip-rule="nonzero"></path>
    </clipPath>
  </defs>
  <g clip-path="url(#35c31aefde)">
    <path fill="#524e86" d="M 21.367188 21.757812 C 21.367188 21.746094 21.378906 21.746094 21.378906 21.734375 C 20.15625 20.585938 19.757812 19.300781 20.839844 17.835938 L 22.433594 15.671875 C 22.5 15.582031 22.484375 15.46875 22.394531 15.402344 C 22.304688 15.339844 22.175781 15.351562 22.113281 15.441406 L 18.253906 20.394531 C 18.214844 20.445312 18.136719 20.460938 18.085938 20.421875 C 18.035156 20.382812 18.019531 20.304688 18.058594 20.253906 L 21.878906 15.082031 C 21.90625 15.042969 21.894531 14.992188 21.867188 14.964844 C 21.828125 14.941406 21.777344 14.941406 21.75 14.976562 L 17.800781 20.058594 C 17.761719 20.113281 17.6875 20.125 17.636719 20.085938 C 17.582031 20.046875 17.570312 19.96875 17.609375 19.917969 L 21.429688 14.746094 C 21.457031 14.707031 21.441406 14.65625 21.417969 14.632812 C 21.378906 14.605469 21.328125 14.605469 21.300781 14.644531 L 17.351562 19.714844 C 17.3125 19.765625 17.234375 19.777344 17.183594 19.738281 C 17.132812 19.699219 17.121094 19.621094 17.160156 19.570312 L 20.980469 14.398438 C 21.003906 14.359375 20.992188 14.308594 20.96875 14.285156 C 20.929688 14.257812 20.878906 14.257812 20.851562 14.296875 L 16.902344 19.367188 C 16.863281 19.417969 16.785156 19.429688 16.734375 19.390625 C 16.683594 19.351562 16.671875 19.277344 16.707031 19.222656 L 20.53125 14.066406 C 20.554688 14.027344 20.542969 13.976562 20.515625 13.949219 C 20.476562 13.921875 20.425781 13.921875 20.402344 13.960938 L 16.503906 19.03125 C 16.464844 19.082031 16.386719 19.09375 16.335938 19.058594 C 16.285156 19.019531 16.269531 18.941406 16.308594 18.890625 L 20.117188 13.730469 C 20.144531 13.691406 20.128906 13.640625 20.105469 13.613281 C 20.066406 13.589844 20.015625 13.589844 19.988281 13.628906 L 16.050781 18.683594 C 16.015625 18.734375 15.9375 18.75 15.886719 18.710938 C 15.832031 18.671875 15.820312 18.59375 15.859375 18.542969 L 19.667969 13.382812 C 19.695312 13.34375 19.679688 13.292969 19.65625 13.265625 C 19.617188 13.242188 19.566406 13.242188 19.539062 13.28125 L 15.601562 18.335938 C 15.5625 18.386719 15.488281 18.402344 15.433594 18.363281 C 15.382812 18.324219 15.371094 18.246094 15.410156 18.195312 L 19.21875 13.046875 C 19.242188 13.011719 19.230469 12.957031 19.203125 12.933594 C 19.164062 12.90625 19.113281 12.90625 19.089844 12.945312 L 15.152344 17.988281 C 15.113281 18.039062 15.035156 18.054688 14.984375 18.015625 C 14.933594 17.976562 14.921875 17.898438 14.957031 17.847656 L 18.765625 12.703125 C 18.792969 12.664062 18.792969 12.609375 18.753906 12.585938 C 18.714844 12.558594 18.664062 12.558594 18.636719 12.597656 L 14.714844 17.640625 C 14.675781 17.691406 14.597656 17.707031 14.546875 17.667969 C 14.496094 17.628906 14.484375 17.550781 14.519531 17.5 L 18.316406 12.355469 C 18.34375 12.316406 18.328125 12.265625 18.304688 12.238281 C 18.265625 12.210938 18.214844 12.210938 18.1875 12.25 L 14.265625 17.292969 C 14.226562 17.347656 14.148438 17.359375 14.097656 17.320312 C 14.046875 17.28125 14.03125 17.203125 14.070312 17.152344 L 17.867188 12.019531 C 17.890625 11.980469 17.878906 11.929688 17.855469 11.902344 C 17.816406 11.878906 17.761719 11.878906 17.738281 11.917969 L 13.8125 16.945312 C 13.773438 17 13.699219 17.011719 13.648438 16.972656 C 13.59375 16.933594 13.582031 16.855469 13.621094 16.804688 L 17.417969 11.671875 C 17.441406 11.632812 17.429688 11.582031 17.402344 11.554688 C 17.363281 11.53125 17.3125 11.53125 17.289062 11.570312 L 13.375 16.597656 C 13.335938 16.652344 13.261719 16.664062 13.210938 16.625 C 13.15625 16.585938 13.144531 16.507812 13.183594 16.457031 L 16.980469 11.324219 C 17.003906 11.285156 16.992188 11.234375 16.964844 11.207031 C 16.925781 11.183594 16.875 11.183594 16.851562 11.222656 L 12.9375 16.253906 C 12.898438 16.304688 12.824219 16.316406 12.773438 16.277344 C 12.71875 16.238281 12.707031 16.164062 12.746094 16.109375 L 16.527344 10.988281 C 16.554688 10.953125 16.542969 10.898438 16.515625 10.875 C 16.476562 10.847656 16.425781 10.847656 16.398438 10.886719 L 12.488281 15.90625 C 12.449219 15.957031 12.371094 15.96875 12.320312 15.929688 C 12.269531 15.890625 12.257812 15.816406 12.296875 15.761719 L 16.078125 10.644531 C 16.105469 10.605469 16.105469 10.554688 16.066406 10.527344 C 16.027344 10.5 15.976562 10.5 15.949219 10.539062 L 12.039062 15.558594 C 12 15.609375 11.921875 15.621094 11.871094 15.582031 C 11.820312 15.542969 11.808594 15.46875 11.84375 15.414062 L 15.628906 10.296875 C 15.652344 10.257812 15.652344 10.207031 15.613281 10.179688 C 15.578125 10.152344 15.523438 10.152344 15.5 10.191406 L 11.601562 15.210938 C 11.5625 15.261719 11.484375 15.273438 11.433594 15.234375 C 11.382812 15.195312 11.371094 15.121094 11.40625 15.070312 L 15.191406 9.960938 C 15.214844 9.921875 15.203125 9.871094 15.175781 9.84375 C 15.140625 9.820312 15.085938 9.820312 15.0625 9.859375 L 11.164062 14.863281 C 11.125 14.914062 11.046875 14.925781 10.996094 14.886719 C 10.945312 14.851562 10.933594 14.773438 10.96875 14.722656 L 14.738281 9.613281 C 14.765625 9.574219 14.765625 9.523438 14.726562 9.496094 C 14.6875 9.472656 14.636719 9.472656 14.613281 9.511719 L 10.714844 14.515625 C 10.675781 14.566406 10.597656 14.578125 10.546875 14.542969 C 10.496094 14.503906 10.480469 14.425781 10.519531 14.375 L 14.289062 9.265625 C 14.316406 9.226562 14.300781 9.175781 14.277344 9.152344 C 14.238281 9.125 14.1875 9.125 14.160156 9.164062 L 10.261719 14.167969 C 10.222656 14.21875 10.148438 14.230469 10.09375 14.195312 C 10.042969 14.15625 10.03125 14.078125 10.070312 14.027344 L 13.839844 8.933594 C 13.867188 8.894531 13.851562 8.839844 13.828125 8.816406 C 13.789062 8.789062 13.738281 8.789062 13.710938 8.828125 L 9.824219 13.820312 C 9.785156 13.871094 9.710938 13.886719 9.660156 13.847656 C 9.605469 13.808594 9.59375 13.730469 9.632812 13.679688 L 13.402344 8.585938 C 13.429688 8.546875 13.414062 8.496094 13.390625 8.46875 C 13.351562 8.441406 13.300781 8.441406 13.273438 8.480469 L 9.425781 13.550781 C 9.386719 13.601562 9.3125 13.613281 9.257812 13.574219 C 9.207031 13.539062 9.195312 13.460938 9.234375 13.410156 L 12.992188 8.328125 C 13.015625 8.289062 13.015625 8.238281 12.976562 8.210938 C 12.9375 8.183594 12.886719 8.183594 12.863281 8.222656 L 8.976562 13.214844 C 8.9375 13.265625 8.859375 13.28125 8.808594 13.242188 C 8.757812 13.203125 8.746094 13.125 8.785156 13.074219 L 12.539062 7.992188 C 12.566406 7.953125 12.554688 7.902344 12.527344 7.875 C 12.488281 7.851562 12.4375 7.851562 12.410156 7.890625 L 8.527344 12.867188 C 8.488281 12.921875 8.410156 12.933594 8.359375 12.894531 C 8.308594 12.855469 8.292969 12.777344 8.332031 12.726562 L 12.089844 7.644531 C 12.117188 7.605469 12.101562 7.554688 12.078125 7.53125 C 12.039062 7.503906 11.988281 7.503906 11.960938 7.542969 L 8.089844 12.519531 C 8.050781 12.574219 7.972656 12.585938 7.921875 12.546875 C 7.871094 12.507812 7.855469 12.429688 7.894531 12.378906 L 11.640625 7.3125 C 11.664062 7.273438 11.652344 7.21875 11.625 7.195312 C 11.589844 7.167969 11.535156 7.167969 11.511719 7.207031 L 7.636719 12.1875 C 7.601562 12.238281 7.523438 12.25 7.472656 12.210938 C 7.417969 12.171875 7.40625 12.097656 7.445312 12.046875 L 11.1875 6.976562 C 11.214844 6.9375 11.203125 6.886719 11.175781 6.859375 C 11.136719 6.835938 11.085938 6.835938 11.0625 6.875 L 7.1875 11.839844 C 7.148438 11.890625 7.074219 11.902344 7.019531 11.863281 C 6.96875 11.828125 6.957031 11.75 6.996094 11.699219 L 10.738281 6.628906 C 10.765625 6.589844 10.75 6.539062 10.726562 6.511719 C 10.6875 6.488281 10.636719 6.488281 10.609375 6.527344 L 6.75 11.492188 C 6.710938 11.542969 6.636719 11.554688 6.582031 11.519531 C 6.53125 11.480469 6.519531 11.402344 6.558594 11.351562 L 10.300781 6.292969 C 10.328125 6.253906 10.328125 6.203125 10.289062 6.179688 C 10.25 6.152344 10.199219 6.152344 10.171875 6.191406 L 6.3125 11.15625 C 6.273438 11.207031 6.199219 11.222656 6.144531 11.183594 C 6.09375 11.144531 6.082031 11.066406 6.121094 11.015625 L 9.851562 5.960938 C 9.878906 5.921875 9.863281 5.871094 9.839844 5.84375 C 9.800781 5.816406 9.75 5.816406 9.722656 5.855469 L 5.863281 10.808594 C 5.824219 10.863281 5.746094 10.875 5.695312 10.835938 C 5.644531 10.796875 5.632812 10.71875 5.671875 10.667969 L 9.402344 5.613281 C 9.425781 5.574219 9.414062 5.523438 9.386719 5.496094 C 9.347656 5.472656 9.296875 5.472656 9.273438 5.507812 L 5.414062 10.460938 C 5.375 10.515625 5.296875 10.527344 5.246094 10.488281 C 5.195312 10.449219 5.179688 10.371094 5.21875 10.320312 L 8.949219 5.277344 C 8.976562 5.238281 8.964844 5.1875 8.9375 5.160156 C 8.910156 5.136719 8.847656 5.136719 8.820312 5.175781 L 4.976562 10.128906 C 4.9375 10.179688 4.859375 10.191406 4.808594 10.152344 C 4.757812 10.117188 4.742188 10.039062 4.78125 9.988281 L 8.511719 4.941406 C 8.539062 4.90625 8.527344 4.851562 8.5 4.828125 C 8.460938 4.800781 8.410156 4.800781 8.382812 4.839844 L 4.539062 9.78125 C 4.5 9.832031 4.421875 9.84375 4.371094 9.804688 C 4.320312 9.769531 4.304688 9.691406 4.34375 9.640625 L 8.0625 4.597656 C 8.089844 4.558594 8.074219 4.507812 8.050781 4.480469 C 8.011719 4.453125 7.960938 4.453125 7.933594 4.492188 L 4.125 9.445312 C 4.085938 9.496094 4.011719 9.511719 3.957031 9.472656 C 3.90625 9.433594 3.894531 9.355469 3.933594 9.304688 L 7.652344 4.273438 C 7.675781 4.234375 7.664062 4.183594 7.636719 4.160156 C 7.613281 4.132812 7.546875 4.132812 7.523438 4.171875 L 3.675781 9.113281 C 3.636719 9.164062 3.558594 9.175781 3.507812 9.136719 C 3.457031 9.097656 3.445312 9.023438 3.484375 8.96875 L 7.199219 3.941406 C 7.226562 3.902344 7.226562 3.851562 7.1875 3.824219 C 7.148438 3.796875 7.097656 3.796875 7.074219 3.835938 L 3.238281 8.765625 C 3.199219 8.816406 3.121094 8.828125 3.070312 8.789062 C 3.019531 8.75 3.007812 8.675781 3.046875 8.621094 L 6.761719 3.59375 C 6.789062 3.554688 6.777344 3.503906 6.75 3.476562 C 6.710938 3.449219 6.660156 3.449219 6.636719 3.488281 L 2.722656 8.507812 L 2.621094 8.429688 L 6.363281 3.414062 C 6.429688 3.335938 6.402344 3.21875 6.324219 3.15625 C 6.25 3.089844 6.132812 3.105469 6.070312 3.179688 L 1.953125 7.902344 C 1.527344 8.46875 1.644531 9.265625 2.210938 9.679688 L 19.527344 22.992188 Z M 21.367188 21.757812 " fill-opacity="1" fill-rule="nonzero"></path>
  </g>
  <path fill="#524e86" d="M 38.015625 36.449219 L 26.191406 25.964844 L 25.574219 27.664062 L 37.652344 36.953125 C 37.808594 37.070312 38.027344 37.015625 38.117188 36.835938 C 38.167969 36.707031 38.128906 36.542969 38.015625 36.449219 Z M 38.015625 36.449219 " fill-opacity="1" fill-rule="nonzero"></path>
  <path fill="#524e86" d="M 12.0625 34.496094 C 12.5 34.828125 13.054688 34.996094 13.609375 34.355469 C 13.96875 33.929688 13.957031 33.609375 13.878906 33.402344 C 14.007812 33.261719 14.136719 33.105469 14.25 32.953125 C 14.558594 32.5 14.765625 32.023438 14.867188 31.535156 C 15.011719 30.894531 15.175781 30.277344 15.394531 29.710938 C 16.851562 27.636719 19.179688 25.851562 21.328125 26.03125 C 21.480469 26.042969 21.636719 26.054688 21.789062 26.054688 C 21.367188 24.667969 21.328125 23.609375 21.507812 22.710938 L 16.347656 26.160156 C 15.074219 27.007812 13.492188 27.199219 12 26.800781 C 11.988281 26.800781 11.972656 26.789062 11.960938 26.789062 C 10.3125 26.378906 8.550781 27.058594 7.636719 28.488281 C 6.210938 30.726562 7.289062 33.699219 9.839844 34.46875 C 10.570312 34.714844 11.34375 34.703125 12.0625 34.496094 Z M 8.667969 29.582031 C 9.273438 28.308594 10.789062 27.753906 12.0625 28.359375 C 13.335938 28.964844 13.890625 30.480469 13.285156 31.753906 C 12.683594 33.027344 11.164062 33.582031 9.890625 32.976562 C 8.617188 32.371094 8.0625 30.855469 8.667969 29.582031 Z M 8.667969 29.582031 " fill-opacity="1" fill-rule="nonzero"></path>
  <g clip-path="url(#a9f61e5be1)">
    <path fill="#524e86" d="M 43.070312 8.328125 L 28.699219 17.910156 L 26.332031 24.410156 C 26.78125 23.984375 27.21875 23.507812 27.722656 23.03125 C 29.394531 21.488281 31.054688 19.945312 32.726562 18.402344 C 36.210938 15.171875 39.699219 11.953125 43.171875 8.726562 C 43.210938 8.6875 43.261719 8.648438 43.300781 8.609375 C 43.46875 8.457031 43.261719 8.199219 43.070312 8.328125 Z M 43.070312 8.328125 " fill-opacity="1" fill-rule="nonzero"></path>
  </g>
  <g clip-path="url(#cb83dc71f1)">
    <path fill="#524e86" d="M 34.039062 0.734375 C 34.011719 0.789062 33.988281 0.839844 33.960938 0.890625 C 31.660156 5.035156 29.355469 9.1875 27.039062 13.332031 C 25.933594 15.3125 24.828125 17.308594 23.734375 19.289062 C 22.535156 21.425781 21.148438 22.644531 22.34375 26.222656 C 23.027344 28.253906 21.84375 30.945312 20.183594 32.847656 C 19.679688 33.195312 19.113281 33.503906 18.523438 33.800781 C 18.074219 34.019531 17.660156 34.339844 17.300781 34.738281 C 16.15625 36.027344 15.988281 37.90625 16.863281 39.382812 C 17.300781 40.117188 17.917969 40.65625 18.613281 40.980469 C 19.449219 41.367188 20.128906 41.984375 20.59375 42.78125 C 20.980469 43.449219 21.546875 44.09375 22.34375 44.3125 C 22.871094 44.453125 23.773438 43.335938 23.152344 42.898438 C 23.011719 42.792969 22.832031 42.664062 22.640625 42.523438 C 21.984375 42.046875 21.984375 41.070312 22.640625 40.59375 C 22.832031 40.453125 23.027344 40.285156 23.191406 40.105469 C 24.363281 38.882812 24.609375 37.003906 23.824219 35.5 C 23.808594 35.484375 23.808594 35.472656 23.796875 35.460938 C 23.0625 34.109375 22.871094 32.527344 23.398438 31.085938 L 34.386719 0.902344 C 34.464844 0.683594 34.152344 0.542969 34.039062 0.734375 Z M 22.28125 35.769531 C 23.167969 36.863281 22.988281 38.472656 21.894531 39.359375 C 20.800781 40.246094 19.191406 40.066406 18.304688 38.972656 C 17.417969 37.878906 17.597656 36.269531 18.691406 35.382812 C 19.785156 34.496094 21.390625 34.675781 22.28125 35.769531 Z M 24.3125 24.113281 C 24.066406 24.394531 23.644531 24.433594 23.359375 24.191406 C 23.078125 23.945312 23.039062 23.519531 23.28125 23.238281 C 23.527344 22.957031 23.953125 22.917969 24.234375 23.160156 C 24.503906 23.40625 24.542969 23.828125 24.3125 24.113281 Z M 24.3125 24.113281 " fill-opacity="1" fill-rule="nonzero"></path>
  </g>
</svg>
