<?xml version="1.0" encoding="UTF-8"?>
<svg xmlns="http://www.w3.org/2000/svg" xmlns:xlink="http://www.w3.org/1999/xlink" width="77px" height="60px" viewBox="0 0 77 60" version="1.1">
  <title>Combined Shape</title>
  <g id="Desktop" stroke="none" stroke-width="1" fill="none" fill-rule="evenodd">
    <g id="Retirement-Village-Location" transform="translate(-336.000000, -4418.000000)" fill="#444079" fill-rule="nonzero">
      <g id="Group-5" transform="translate(0.000000, 4046.000000)">
        <g id="Group-24" transform="translate(326.000000, 372.000000)">
          <path d="M55.3229167,1.13686838e-12 L55.4612127,0.00912368817 C55.6892087,0.0393478741 55.9024475,0.143721715 56.0668629,0.308137109 C56.2641672,0.505441398 56.375008,0.773045744 56.375,1.05207615 L56.375,1.05207615 L56.375,5.20833333 L76.4583333,5.20833333 L76.5601039,5.21517995 C76.9261795,5.26484237 77.2083333,5.57863757 77.2083333,5.95833333 L77.2083333,5.95833333 L77.2083333,6.5625 L77.2014867,6.66427056 C77.1518243,7.03034612 76.8380291,7.3125 76.4583333,7.3125 L76.4583333,7.3125 L74.6041667,7.3125 L74.6041667,10.4166667 L81.3645833,10.4166667 L81.5028768,10.4257872 C81.7308696,10.4560074 81.9441093,10.5603835 82.1085296,10.7248038 C82.3058338,10.9221081 82.4166747,11.1897124 82.4166667,11.4687428 L82.4166667,11.4687428 L82.4166667,26.0416667 L85.2708333,26.0416667 L85.4091268,26.0507872 C85.6371196,26.0810074 85.8503593,26.1853835 86.0147796,26.3498038 C86.212078,26.5471022 86.3229167,26.8147064 86.3229167,27.09375 L86.3229167,27.09375 L86.3229167,58.34375 L86.313793,58.482046 C86.2835688,58.7100421 86.179195,58.9232808 86.0147796,59.0876962 C85.8174811,59.2849947 85.5498769,59.3958333 85.2708333,59.3958333 L85.2708333,59.3958333 L11.0520833,59.3958333 L10.9137873,59.3867096 C10.6857913,59.3564855 10.4725525,59.2521116 10.3081371,59.0876962 C10.1108386,58.8903978 10,58.6227936 10,58.34375 L10,58.34375 L10,27.09375 L10.0091237,26.955454 C10.0393479,26.7274579 10.1437217,26.5142192 10.3081371,26.3498038 C10.5054414,26.1524995 10.7730457,26.0416586 11.0520761,26.0416667 L11.0520761,26.0416667 L15.2083333,26.0416667 L15.2083333,11.46875 L15.2174538,11.3304565 C15.247674,11.1024637 15.3520502,10.889224 15.5164704,10.7248038 C15.7137747,10.5274995 15.9813791,10.4166586 16.2604095,10.4166667 L16.2604095,10.4166667 L19.1145833,10.4166667 L19.1145833,7.3125 L17.2604167,7.3125 L17.1586461,7.30565338 C16.7925705,7.25599096 16.5104167,6.94219577 16.5104167,6.5625 L16.5104167,6.5625 L16.5104167,5.95833333 L16.5172633,5.85656278 C16.5669257,5.49048721 16.8807209,5.20833333 17.2604167,5.20833333 L17.2604167,5.20833333 L30.8333333,5.20833333 L30.8333333,1.05208333 L30.8424538,0.91378984 C30.872674,0.685797075 30.9770502,0.47255735 31.1414704,0.308137109 C31.3387689,0.110838636 31.6063731,1.13686838e-12 31.8854167,1.13686838e-12 L31.8854167,1.13686838e-12 L55.3229167,1.13686838e-12 Z M71.1979167,46.375 L62.8854167,46.375 L62.8854167,57.2916667 L71.1979167,57.2916667 L71.1979167,46.375 Z M51.6666667,28.1458333 L12.1041667,28.1458333 L12.1041667,57.2916667 L15.2083333,57.2916667 L15.2083333,32.3020833 L15.2174538,32.1637898 C15.247674,31.9357971 15.3520502,31.7225574 15.5164704,31.5581371 C15.7137747,31.3608328 15.9813791,31.249992 16.2604095,31.25 L16.2604095,31.25 L33.1875,31.25 L33.3257935,31.2591205 C33.5537863,31.2893407 33.767026,31.3937169 33.9314462,31.5581371 C34.1287505,31.7554414 34.2395914,32.0230457 34.2395833,32.3020761 L34.2395833,32.3020761 L34.2395833,57.2916667 L39.9479167,57.2916667 L39.9479167,45.4832926 L38.6772313,40.3697746 L38.6526297,40.2342094 C38.6214564,39.9619152 38.697748,39.6860079 38.8686454,39.4671259 C39.0680257,39.2117635 39.3739377,39.0625001 39.6979167,39.0625 L39.6979167,39.0625 L51.6666667,39.0625 L51.6666667,28.1458333 Z M32.1354167,33.3541667 L17.3125,33.3541667 L17.3125,57.2916667 L32.1354167,57.2916667 L32.1354167,33.3541667 Z M45.15625,46.375 L42.0520833,46.375 L42.0520833,57.2916667 L45.15625,57.2916667 L45.15625,46.375 Z M55.5729167,46.375 L47.2604167,46.375 L47.2604167,57.2916667 L55.5729167,57.2916667 L55.5729167,46.375 Z M60.78125,46.375 L57.6770833,46.375 L57.6770833,57.2916667 L60.78125,57.2916667 L60.78125,46.375 Z M76.40625,46.375 L73.3020833,46.375 L73.3020833,57.2916667 L76.40625,57.2916667 L76.40625,46.375 Z M84.21875,28.1458333 L53.7708333,28.1458333 L53.7708333,39.0625 L78.7604167,39.0625 L78.8808891,39.0694124 C79.1592091,39.1014737 79.4152302,39.2436838 79.5896879,39.4671259 C79.7890682,39.7224882 79.8596795,40.0554683 79.7811022,40.369774 L79.7811022,40.369774 L78.517881,45.4226587 L78.5104167,57.2916667 L84.21875,57.2916667 L84.21875,28.1458333 Z M77.4129529,41.1666667 L41.0453804,41.1666667 L41.8214221,44.2708333 L76.6369112,44.2708333 L77.4129529,41.1666667 Z M60.53125,31 L60.53125,36.2083333 L57.9270833,36.2083333 L57.9270833,31 L60.53125,31 Z M65.7395833,31 L65.7395833,36.2083333 L63.1354167,36.2083333 L63.1354167,31 L65.7395833,31 Z M70.9479167,31 L70.9479167,36.2083333 L68.34375,36.2083333 L68.34375,31 L70.9479167,31 Z M76.15625,31 L76.15625,36.2083333 L73.5520833,36.2083333 L73.5520833,31 L76.15625,31 Z M81.3645833,31 L81.3645833,36.2083333 L78.7604167,36.2083333 L78.7604167,31 L81.3645833,31 Z M46.2083333,32.3020833 L46.2083333,34.90625 L43.6041667,34.90625 L43.6041667,32.3020833 L46.2083333,32.3020833 Z M41,32.3020833 L41,34.90625 L38.3958333,34.90625 L38.3958333,32.3020833 L41,32.3020833 Z M54.2708333,2.10416667 L32.9375,2.10416667 L32.9375,6.51041667 L47.5104167,6.51041667 L47.6487102,6.51953717 C47.8767029,6.54975735 48.0899426,6.65413353 48.2543629,6.81855378 C48.4516672,7.01585806 48.562508,7.28346241 48.5625,7.56249281 L48.5625,7.56249281 L48.5625,26.0416667 L54.2708333,26.0416667 L54.2708333,2.10416667 Z M46.4583333,8.61458333 L32.9375,8.61458333 L32.9375,26.0416667 L46.4583333,26.0416667 L46.4583333,8.61458333 Z M30.8333333,12.5208333 L17.3125,12.5208333 L17.3125,26.0416667 L30.8333333,26.0416667 L30.8333333,12.5208333 Z M80.3125,12.5208333 L56.375,12.5208333 L56.375,26.0416667 L80.3125,26.0416667 L80.3125,12.5208333 Z M22.7708333,20.5833333 L22.7708333,23.1875 L20.1666667,23.1875 L20.1666667,20.5833333 L22.7708333,20.5833333 Z M27.9791667,20.5833333 L27.9791667,23.1875 L25.375,23.1875 L25.375,20.5833333 L27.9791667,20.5833333 Z M67.0416667,20.5833333 L67.0416667,23.1875 L64.4375,23.1875 L64.4375,20.5833333 L67.0416667,20.5833333 Z M72.25,20.5833333 L72.25,23.1875 L69.6458333,23.1875 L69.6458333,20.5833333 L72.25,20.5833333 Z M77.4583333,20.5833333 L77.4583333,23.1875 L74.8541667,23.1875 L74.8541667,20.5833333 L77.4583333,20.5833333 Z M61.8333333,20.5833333 L61.8333333,23.1875 L59.2291667,23.1875 L59.2291667,20.5833333 L61.8333333,20.5833333 Z M41,12.7708333 L41,15.375 L43.6041667,15.375 L43.6041667,17.9791667 L41,17.9791667 L41,20.5833333 L38.3958333,20.5833333 L38.3958333,17.9791667 L35.7916667,17.9791667 L35.7916667,15.375 L38.3958333,15.375 L38.3958333,12.7708333 L41,12.7708333 Z M22.7708333,15.375 L22.7708333,17.9791667 L20.1666667,17.9791667 L20.1666667,15.375 L22.7708333,15.375 Z M27.9791667,15.375 L27.9791667,17.9791667 L25.375,17.9791667 L25.375,15.375 L27.9791667,15.375 Z M67.0416667,15.375 L67.0416667,17.9791667 L64.4375,17.9791667 L64.4375,15.375 L67.0416667,15.375 Z M61.8333333,15.375 L61.8333333,17.9791667 L59.2291667,17.9791667 L59.2291667,15.375 L61.8333333,15.375 Z M72.25,15.375 L72.25,17.9791667 L69.6458333,17.9791667 L69.6458333,15.375 L72.25,15.375 Z M77.4583333,15.375 L77.4583333,17.9791667 L74.8541667,17.9791667 L74.8541667,15.375 L77.4583333,15.375 Z M65.9895833,7.3125 L61.5833333,7.3125 L61.5833333,10.4166667 L65.9895833,10.4166667 L65.9895833,7.3125 Z M59.4791667,7.3125 L56.375,7.3125 L56.375,10.4166667 L59.4791667,10.4166667 L59.4791667,7.3125 Z M72.5,7.3125 L68.09375,7.3125 L68.09375,10.4166667 L72.5,10.4166667 L72.5,7.3125 Z M30.8333333,7.3125 L27.7291667,7.3125 L27.7291667,10.4166667 L30.8333333,10.4166667 L30.8333333,7.3125 Z M25.625,7.3125 L21.21875,7.3125 L21.21875,10.4166667 L25.625,10.4166667 L25.625,7.3125 Z" id="Combined-Shape"></path>
        </g>
      </g>
    </g>
  </g>
</svg>
