<?xml version="1.0" encoding="UTF-8"?>
<svg xmlns="http://www.w3.org/2000/svg" xmlns:xlink="http://www.w3.org/1999/xlink" width="50px" height="60px" viewBox="0 0 50 60" version="1.1">
  <title>Combined Shape</title>
  <g id="Desktop" stroke="none" stroke-width="1" fill="none" fill-rule="evenodd">
    <g id="Retirement-Villages" transform="translate(-617.000000, -2580.000000)" fill="#514E86">
      <g id="Group-20" transform="translate(-395.000000, 2399.000000)">
        <g id="Group-19" transform="translate(515.000000, 161.000000)">
          <g id="Group-17" transform="translate(496.000000, 20.000000)">
            <path d="M46.0001756,2.92033064e-12 C48.7581546,2.92033064e-12 51,2.24361413 51,4.9998537 L51,4.9998537 L51,55.0019019 C51,57.759897 48.7581546,60 46.0001756,60 L46.0001756,60 L5.99982444,60 C3.24184544,60 1,57.759897 1,55.0019019 L1,55.0019019 L1,4.9998537 C1,2.24361413 3.24184544,2.92033064e-12 5.99982444,2.92033064e-12 L5.99982444,2.92033064e-12 Z M48.5000878,17.5012435 L3.49991222,17.5012435 L3.49991222,55.0019019 C3.49991222,56.3782661 4.62171272,57.5000731 5.99982444,57.5000731 L5.99982444,57.5000731 L46.0001756,57.5000731 C47.3782873,57.5000731 48.5000878,56.3782661 48.5000878,55.0019019 L48.5000878,55.0019019 L48.5000878,17.5012435 Z M26,19.9995904 C35.6502932,19.9995904 43.5011411,27.8504842 43.5011411,37.5008339 C43.5011411,47.149428 35.6502932,55.0003219 26,55.0003219 C16.3514624,55.0003219 8.49885889,47.149428 8.49885889,37.5008339 C8.49885889,27.8504842 16.3514624,19.9995904 26,19.9995904 Z M26,22.5012728 C17.7278185,22.5012728 10.9987711,29.228604 10.9987711,37.5008339 C10.9987711,45.7713082 17.7278185,52.500395 26,52.500395 C34.2721815,52.500395 41.0012289,45.7713082 41.0012289,37.5008339 C41.0012289,29.228604 34.2721815,22.5012728 26,22.5012728 Z M26,25.0008485 C30.597802,25.0008485 34.8146484,27.5569535 37.0020716,31.6720016 C37.2092272,32.063493 37.1951828,32.537496 36.9599382,32.9166984 C36.4947158,33.6645697 35.9978933,35.2621354 35.9978933,37.4987272 C35.9978933,39.7370746 36.4947158,41.3363958 36.9599382,42.0860228 C37.1951828,42.461714 37.2092272,42.9392281 37.0020716,43.3307195 C34.8146484,47.4440121 30.597802,50.000117 26,50.000117 C19.1076858,50.000117 13.4986833,44.3928373 13.4986833,37.4987272 C13.4986833,30.6081283 19.1076858,25.0008485 26,25.0008485 Z M26,27.5007754 C20.4857975,27.5007754 16.0021067,31.9862481 16.0021067,37.4987272 C16.0021067,43.0147175 20.4857975,47.5001902 26,47.5001902 C29.4602015,47.5001902 32.6482918,45.6831787 34.4723149,42.7197823 C33.8490924,41.367996 33.4979811,39.5158732 33.4979811,37.4987272 C33.4979811,35.4850923 33.8490924,33.6329695 34.4723149,32.2811833 C32.6482918,29.3160312 29.4602015,27.5007754 26,27.5007754 Z M26.0005267,30.0022822 C26.6887048,30.0022822 27.2504828,30.5587969 27.2504828,31.2504901 C27.2504828,31.9404278 26.6887048,32.5004535 26.0005267,32.5004535 C23.2407921,32.5004535 21.0007022,34.7423121 21.0007022,37.5003072 C21.0007022,38.1902449 20.4406798,38.7502706 19.7507461,38.7502706 C19.0608125,38.7502706 18.50079,38.1902449 18.50079,37.5003072 C18.50079,33.3641923 21.8626804,30.0022822 26.0005267,30.0022822 Z M46.0001756,2.49992685 L5.99982444,2.49992685 C4.62171272,2.49992685 3.49991222,3.62173391 3.49991222,4.9998537 L3.49991222,4.9998537 L3.49991222,15.0013167 L48.5000878,15.0013167 L48.5000878,4.9998537 C48.5000878,3.62173391 47.3782873,2.49992685 46.0001756,2.49992685 L46.0001756,2.49992685 Z M29.7493417,10.0000585 C30.4410309,10.0000585 30.9992978,10.5600843 30.9992978,11.2500219 C30.9992978,11.9399596 30.4410309,12.4999854 29.7493417,12.4999854 L29.7493417,12.4999854 L27.2494294,12.4999854 C26.5612514,12.4999854 25.9994733,11.9399596 25.9994733,11.2500219 C25.9994733,10.5600843 26.5612514,10.0000585 27.2494294,10.0000585 L27.2494294,10.0000585 Z M37.2499561,10.0000585 C37.9416453,10.0000585 38.4999122,10.5600843 38.4999122,11.2500219 C38.4999122,11.9399596 37.9416453,12.4999854 37.2499561,12.4999854 L37.2499561,12.4999854 L34.7500439,12.4999854 C34.0583547,12.4999854 33.5000878,11.9399596 33.5000878,11.2500219 C33.5000878,10.5600843 34.0583547,10.0000585 34.7500439,10.0000585 L34.7500439,10.0000585 Z M22.2504828,5.00002926 C22.9404164,5.00002926 23.5004389,5.56005501 23.5004389,6.24999269 C23.5004389,9.69616994 20.6950599,12.4980542 17.2506583,12.4980542 L17.2506583,12.4980542 L9.74916611,12.4980542 C9.05747691,12.4980542 8.49921,11.9415396 8.49921,11.2498464 L8.49921,11.2498464 L8.49921,6.24999269 C8.49921,5.56005501 9.05747691,5.00002926 9.74916611,5.00002926 L9.74916611,5.00002926 Z M20.7863488,7.49995611 L10.9991222,7.49995611 L10.9991222,9.99988296 L17.2506583,9.99988296 C18.8780591,9.99988296 20.2702152,8.95356526 20.7863488,7.49995611 L20.7863488,7.49995611 Z M34.7500439,4.9998537 C35.4417331,4.9998537 36,5.55987945 36,6.24981713 C36,6.94151037 35.4417331,7.49978055 34.7500439,7.49978055 L34.7500439,7.49978055 L32.2501317,7.49978055 C31.560198,7.49978055 31.0001756,6.94151037 31.0001756,6.24981713 C31.0001756,5.55987945 31.560198,4.9998537 32.2501317,4.9998537 L32.2501317,4.9998537 Z M42.2508339,5.00002926 C42.9407675,5.00002926 43.50079,5.56005501 43.50079,6.24999269 C43.50079,6.93993036 42.9407675,7.49995611 42.2508339,7.49995611 L42.2508339,7.49995611 L39.7509217,7.49995611 C39.060988,7.49995611 38.5009656,6.93993036 38.5009656,6.24999269 C38.5009656,5.56005501 39.060988,5.00002926 39.7509217,5.00002926 L39.7509217,5.00002926 Z" id="Combined-Shape"></path>
          </g>
        </g>
      </g>
    </g>
  </g>
</svg>
