<?xml version="1.0" encoding="UTF-8"?>
<svg xmlns="http://www.w3.org/2000/svg" xmlns:xlink="http://www.w3.org/1999/xlink" width="72px" height="60px" viewBox="0 0 72 60" version="1.1">
  <title>Medical</title>
  <g id="Page-1" stroke="none" stroke-width="1" fill="none" fill-rule="evenodd">
    <g id="Medical" fill="#444079" fill-rule="nonzero">
      <path d="M70.6117021,11.9680851 L55.502798,11.9680851 L46.6755319,4.24423604 L46.6755319,1.19680851 C46.6755253,0.53583216 46.1396998,0 45.4787234,0 L26.3297872,0 C25.6688109,0 25.1329853,0.53583216 25.1329787,1.19680851 L25.1329787,4.24423604 L16.3057126,11.9680851 L1.19680851,11.9680851 C0.53583216,11.9680917 0,12.5039173 0,13.1648936 L0,28.7234043 C0,29.3843806 0.53583216,29.9202062 1.19680851,29.9202128 L2.39361702,29.9202128 L2.39361702,58.643617 C2.39362363,59.3045934 2.92944918,59.8404255 3.59042553,59.8404255 L68.2180851,59.8404255 C68.8790615,59.8404255 69.414887,59.3045934 69.4148936,58.643617 L69.4148936,29.9202128 L70.6117021,29.9202128 C71.2726785,29.9202062 71.8085106,29.3843806 71.8085106,28.7234043 L71.8085106,13.1648936 C71.8085106,12.5039173 71.2726785,11.9680917 70.6117021,11.9680851 Z M51.8680352,11.9680851 L46.6755319,11.9680851 L46.6755319,7.42464694 L51.8680352,11.9680851 Z M27.5265957,2.39361702 L44.2819149,2.39361702 L44.2819149,19.1489362 L27.5265957,19.1489362 L27.5265957,2.39361702 Z M25.1329787,7.42464694 L25.1329787,11.9680851 L19.9404754,11.9680851 L25.1329787,7.42464694 Z M38.2978723,51.462766 L10.7712766,51.462766 L10.7712766,34.7074468 L38.2978723,34.7074468 L38.2978723,51.462766 Z M40.6914894,52.6595745 L40.6914894,34.7074468 L51.462766,34.7074468 L51.462766,57.4468085 L40.6914894,57.4468085 L40.6914894,52.6595745 Z M67.0212766,57.4468085 L53.856383,57.4468085 L53.856383,53.856383 L62.2340426,53.856383 C62.8950189,53.8563764 63.4308445,53.3205508 63.4308511,52.6595745 L63.4308511,33.5106383 C63.4308445,32.8496619 62.8950189,32.3138364 62.2340426,32.3138298 L9.57446809,32.3138298 C8.91349173,32.3138364 8.37766618,32.8496619 8.37765957,33.5106383 L8.37765957,52.6595745 C8.37766618,53.3205508 8.91349173,53.8563764 9.57446809,53.856383 L38.2978723,53.856383 L38.2978723,57.4468085 L4.78723404,57.4468085 L4.78723404,29.9202128 L67.0212766,29.9202128 L67.0212766,57.4468085 Z M53.856383,51.462766 L53.856383,34.7074468 L61.037234,34.7074468 L61.037234,51.462766 L53.856383,51.462766 Z M69.4148936,27.5265957 L2.39361702,27.5265957 L2.39361702,14.3617021 L25.1329787,14.3617021 L25.1329787,20.3457447 C25.1329853,21.006721 25.6688109,21.5425466 26.3297872,21.5425532 L45.4787234,21.5425532 C46.1396998,21.5425466 46.6755253,21.006721 46.6755319,20.3457447 L46.6755319,14.3617021 L69.4148936,14.3617021 L69.4148936,27.5265957 Z" id="Shape"></path>
      <polygon id="Path" points="37.1010638 5.98404255 34.7074468 5.98404255 34.7074468 9.57446809 31.1170213 9.57446809 31.1170213 11.9680851 34.7074468 11.9680851 34.7074468 15.5585106 37.1010638 15.5585106 37.1010638 11.9680851 40.6914894 11.9680851 40.6914894 9.57446809 37.1010638 9.57446809"></polygon>
      <rect id="Rectangle" x="43.0851064" y="45.4787234" width="2.39361702" height="4.78723404"></rect>
    </g>
  </g>
</svg>
