<?xml version="1.0" encoding="UTF-8"?>
<svg xmlns="http://www.w3.org/2000/svg" xmlns:xlink="http://www.w3.org/1999/xlink" width="54px" height="60px" viewBox="0 0 54 60" version="1.1">
  <title>Combined Shape</title>
  <g id="Desktop" stroke="none" stroke-width="1" fill="none" fill-rule="evenodd">
    <g id="Retirement-Villages" transform="translate(-509.000000, -2580.000000)" fill="#514D85">
      <g id="Group-20" transform="translate(-395.000000, 2399.000000)">
        <g id="Group-19" transform="translate(515.000000, 161.000000)">
          <g id="Group-10" transform="translate(372.000000, 20.000000)">
            <path d="M58.6056415,7.9146577 C58.9908235,7.8953468 59.3516048,8.10250003 59.5258953,8.44482952 C61.931104,13.1391323 62.2308836,18.6567814 60.3468035,23.586326 L60.3468035,23.586326 L56.1952041,34.4425595 C56.0191707,34.8937322 55.5520722,35.1430183 55.097174,35.0517304 C55.0414011,35.0411972 54.987371,35.0253974 54.933341,35.0060865 C54.4296415,34.8094665 54.1804061,34.2424284 54.3721256,33.7350786 L54.3721256,33.7350786 L58.523725,22.878845 C59.9285063,19.2097752 59.9755647,15.1720428 58.7084729,11.4994618 L58.7084729,11.4994618 L51.4091873,30.594425 L56.8679654,42.9797302 C57.4588101,42.5987789 58.0897417,42.2862935 58.7590171,42.0492962 C60.8714178,41.2926603 63.1912242,41.354104 65.2861959,42.2143166 C67.3794246,43.0780402 69.075271,44.6720667 70.0582694,46.6997106 C71.165014,48.974885 71.2992176,51.5397229 70.4451943,53.9167184 C69.589428,56.2937139 67.8534947,58.1721372 65.5633177,59.2043923 C63.8395848,59.9820946 61.9555047,60.1892479 60.1237117,59.8276075 C59.6060689,59.7222753 59.091912,59.5730548 58.5864696,59.3799458 C56.2422625,58.4758449 54.3947834,56.7045092 53.375184,54.3942241 L53.375184,54.3942241 L50.8009135,48.5500454 L48.7129135,54.0044952 C47.8327466,56.3095137 46.1159853,58.1300043 43.8746096,59.1324153 C42.1282189,59.9118732 40.2319384,60.1225375 38.3949167,59.757386 C37.8737882,59.6573205 37.3578883,59.5045889 36.8524459,59.3097244 C34.5640118,58.4231788 32.7566195,56.690465 31.7614208,54.4328459 C30.767965,52.1769824 30.7034775,49.6630551 31.5853874,47.3597921 C32.4672973,45.0547735 34.1858015,43.2360384 36.4254342,42.2336275 C38.6668099,41.2312165 41.1626496,41.1715283 43.4475979,42.0580739 C43.8815812,42.2266053 44.3033642,42.4249809 44.7042323,42.6567116 L44.7042323,42.6567116 L46.3303626,38.4100705 L40.2981688,24.7221577 C38.170082,19.8944341 38.1944827,14.3697629 40.3609134,9.56310583 C40.5195177,9.2084876 40.8715845,8.98202348 41.2550236,8.98377901 C41.6384627,8.98729008 41.9887865,9.21199867 42.1439051,9.56837244 L42.1439051,9.56837244 L45.0963859,16.2674971 C45.314249,16.7625582 45.0911572,17.3436406 44.599658,17.5648381 C44.106416,17.7825246 43.5295144,17.5595715 43.3099084,17.0645104 L43.3099084,17.0645104 L41.3299685,12.5685832 C40.2476246,16.3043634 40.4986029,20.329807 42.0829034,23.9233889 L42.0829034,23.9233889 L50.3390437,42.6567116 L53.3350972,39.8092325 L44.6571739,20.1173872 C44.4375679,19.6223261 44.6606597,19.0412437 45.1521589,18.8200462 C45.643658,18.5988487 46.2205596,18.8235573 46.4401656,19.3186184 L46.4401656,19.3186184 L50.2902424,28.0541646 L57.7498752,8.54489506 C57.8893076,8.18501021 58.2239454,7.93572413 58.6056415,7.9146577 Z M32.5699544,0 C33.3873767,0 34.1594836,0.361640379 34.6858409,0.997144347 C35.2104552,1.62913724 35.4300612,2.45599461 35.2854001,3.26705216 L35.2854001,3.26705216 L35.2766856,3.30391842 C35.0413935,4.6311035 33.9015337,5.58962606 32.5629827,5.58962606 L32.5629827,5.58962606 L27.6044184,5.58962606 C26.7015937,5.58962606 25.8754568,5.93546661 25.3665286,6.46388289 L25.3665286,6.46388289 L31.7403316,6.46388289 C32.2788893,6.46388289 32.7146155,6.90452239 32.7146155,7.44698295 C32.7146155,7.98944352 32.2788893,8.43183855 31.7403316,8.43183855 L31.7403316,8.43183855 L24.6414801,8.43183855 C24.5247055,8.99009894 24.4166454,9.55362594 24.3155569,10.1153974 L24.3155569,10.1153974 L31.4161513,10.1153974 C31.9564519,10.1153974 32.393921,10.5542814 32.393921,11.0984975 C32.393921,11.640958 31.9564519,12.0833531 31.4161513,12.0833531 L31.4161513,12.0833531 L24.0000911,12.0833531 C23.9199175,12.6416135 23.8484584,13.2033849 23.7839709,13.7669119 L23.7839709,13.7669119 L31.1860879,13.7669119 C31.7263884,13.7669119 32.1638575,14.2057959 32.1638575,14.750012 C32.1638575,15.290717 31.7263884,15.7313565 31.1860879,15.7313565 L31.1860879,15.7313565 L23.5957372,15.7313565 C23.5521646,16.293128 23.5173065,16.8548994 23.4876771,17.4149153 L23.4876771,17.4149153 L31.037941,17.4149153 C31.5782415,17.4149153 32.0157106,17.8537993 32.0157106,18.3980154 C32.0157106,18.9422315 31.5782415,19.3811155 31.037941,19.3811155 L31.037941,19.3811155 L23.4231896,19.3811155 C23.416218,19.9446425 23.416218,20.5029029 23.4231896,21.0646743 L23.4231896,21.0646743 L30.964739,21.0646743 C31.5050395,21.0646743 31.9407657,21.5053138 31.9407657,22.0495299 C31.9407657,22.5919905 31.5050395,23.03263 30.964739,23.03263 L30.964739,23.03263 L23.4876771,23.03263 C23.5173065,23.5926459 23.5521646,24.1544174 23.5957372,24.7161888 L23.5957372,24.7161888 L30.964739,24.7161888 C31.5050395,24.7161888 31.9407657,25.1568283 31.9407657,25.6992889 C31.9407657,26.243505 31.5050395,26.6841445 30.964739,26.6841445 L30.964739,26.6841445 L23.7839709,26.6841445 C23.8484584,27.2424049 23.9199175,27.8059319 24.0000911,28.3659478 L24.0000911,28.3659478 L31.1860879,28.3659478 C31.7263884,28.3659478 32.1638575,28.8065873 32.1638575,29.3490479 C32.1638575,29.8915084 31.7263884,30.3321479 31.1860879,30.3321479 L31.1860879,30.3321479 L24.3155569,30.3321479 C24.4166454,30.8939194 24.5247055,31.4556908 24.6414801,32.0157068 L24.6414801,32.0157068 L31.7403316,32.0157068 C32.2788893,32.0157068 32.7146155,32.4563463 32.7146155,32.9988068 C32.7146155,33.5430229 32.2788893,33.9819069 31.7403316,33.9819069 L31.7403316,33.9819069 L25.3665286,33.9819069 C25.8754568,34.5120787 26.7015937,34.8544082 27.6044184,34.8544082 L27.6044184,34.8544082 L32.5647257,34.8544082 C33.8980479,34.8544082 35.0413935,35.8164418 35.2766856,37.1401158 L35.2766856,37.1401158 L35.2854001,37.1804932 C35.4300612,37.9897952 35.2104552,38.8201636 34.6858409,39.4521565 C34.1594836,40.0841494 33.3908626,40.4475453 32.5699544,40.4475453 L32.5699544,40.4475453 L29.3072365,40.4475453 C28.4462415,40.4475453 27.721193,41.1269377 27.6567056,41.9924169 L27.6567056,41.9924169 L26.6249059,56.284234 C26.4802448,58.3189 24.7826554,59.9094154 22.7591429,59.9094154 C20.7443449,59.9094154 19.0833565,58.3873659 18.8951228,56.3667442 C18.6180009,53.4121774 18.2171328,48.7371855 17.847637,43.2423584 C17.811036,42.7016533 18.2171328,42.2329253 18.7556904,42.1943035 C19.2907622,42.1574372 19.7578607,42.5682326 19.7944617,43.1089376 C20.1622146,48.5826983 20.5648257,53.2418904 20.8402046,56.1841684 C20.9325786,57.1883349 21.7569726,57.9449709 22.7591429,57.9449709 C23.7630561,57.9449709 24.606622,57.1532242 24.6815669,56.1437911 L24.6815669,56.1437911 L25.7133666,41.8484629 C25.8475703,39.9612619 27.4266421,38.4831007 29.3054936,38.4831007 L29.3054936,38.4831007 L32.5699544,38.4831007 C32.8993634,38.4831007 33.0997974,38.2987695 33.1904285,38.1934373 C33.2810595,38.0845941 33.4222348,37.8511078 33.3629761,37.5298448 L33.3629761,37.5298448 L33.3577474,37.4894675 C33.2880312,37.1032496 32.9533934,36.8206083 32.5629827,36.8206083 L32.5629827,36.8206083 L27.6044184,36.8206083 C25.3560711,36.8206083 23.4127322,35.4512904 22.9822347,33.5658449 C20.9604651,24.7126778 20.9604651,15.7366231 22.9822347,6.88345596 C23.4127322,4.99625495 25.3560711,3.62693701 27.6044184,3.62693701 L27.6044184,3.62693701 L32.5629827,3.62693701 C32.9533934,3.62693701 33.2880312,3.34780681 33.3577474,2.95807786 L33.3577474,2.95807786 L33.3612332,2.93350036 C33.4222348,2.59468194 33.2810595,2.36646229 33.1904285,2.25586353 C33.0997974,2.14702031 32.8993634,1.96268905 32.5699544,1.96268905 L32.5699544,1.96268905 L23.2732998,1.96268905 C21.9033766,1.96268905 20.6938006,2.90190071 20.3312764,4.24488562 C19.4329334,7.58153224 18.9698785,13.1513451 18.9487655,20.6890561 L18.9488315,21.8061531 C18.9633319,26.8960283 19.1696303,32.8337112 19.569627,39.5434444 C19.6009993,40.0841494 19.1914166,40.5511219 18.6511161,40.5827216 C18.1143014,40.6178323 17.6524316,40.2017703 17.6193164,39.6610653 C17.1959997,32.5428591 17.0148715,26.7223899 17.0007158,21.9630558 L17,21.083058 C17.0132457,11.5385991 17.7167797,6.44520399 18.4506821,3.72700255 C19.0415268,1.53258277 21.0232096,0 23.2732998,0 L23.2732998,0 Z M54.1751774,41.7139889 L51.1791239,44.5632235 L51.6270504,45.5814343 C51.6270504,45.5831898 51.6287933,45.5867009 51.6287933,45.5884564 L51.6287933,45.5884564 L55.1581757,53.5972108 C55.9651406,55.4247236 57.4309236,56.8291523 59.2853744,57.5436554 C61.0857951,58.2388476 63.0326199,58.1914481 64.7668102,57.4102346 C66.5724597,56.5974216 67.9371542,55.1175049 68.6081725,53.2461037 C69.2844196,51.3747025 69.1746166,49.3575918 68.30665,47.5634342 C67.5328002,45.9676522 66.1959922,44.7141996 64.5472042,44.0348072 C62.8966733,43.3554149 61.0735948,43.3080154 59.4126065,43.9013865 C58.5620689,44.2068497 57.7847333,44.6562669 57.1050004,45.2443714 C56.8731941,45.4480136 56.5577283,45.5287682 56.2562058,45.4585468 C55.9546832,45.3918364 55.7037049,45.1846832 55.5782158,44.8985308 L55.5782158,44.8985308 L54.1751774,41.7139889 Z M47.4510504,40.9485753 L46.0880988,44.5088019 C45.9782958,44.8002208 45.736032,45.0179073 45.4397382,45.1004175 C45.1417014,45.1864387 44.8227499,45.1232394 44.5804861,44.9336416 C44.0244994,44.4965131 43.4057682,44.1471615 42.7469502,43.8908533 C40.9447865,43.19215 38.9822757,43.241305 37.216713,44.0295406 C35.4528933,44.8195317 34.1003991,46.252049 33.4084659,48.067273 C32.7113039,49.8807415 32.7635911,51.8592304 33.5461554,53.6375882 C34.3287197,55.4106793 35.75093,56.7764862 37.5548366,57.4734339 C39.3552573,58.1756483 41.3195111,58.1247377 43.079845,57.3365021 C44.8454076,56.546511 46.2013876,55.1122383 46.8933208,53.2987698 L46.8933208,53.2987698 L49.6819686,46.009785 L47.4510504,40.9485753 Z M59.5028889,45.5117395 C61.608318,44.5690168 64.0536135,44.9903454 65.730288,46.5808608 C66.1206987,46.9512789 66.1398707,47.5762496 65.7721177,47.9694897 C65.400879,48.3644852 64.7856336,48.3837961 64.3917371,48.0116225 C63.2867354,46.9653232 61.6797771,46.6879485 60.2941678,47.3094082 C59.3756569,47.718448 58.6750091,48.4627952 58.3124849,49.405518 C57.9517036,50.3499962 57.9795901,51.3752292 58.3856869,52.3003965 C59.2240242,54.2051529 61.4479708,55.0688765 63.3425084,54.2209527 C64.8762646,53.5345382 65.7773465,51.8878456 65.5333398,50.2165755 C65.4531661,49.677626 65.8244049,49.1790538 66.354248,49.1000547 C66.8893198,49.0193001 67.3843047,49.3932292 67.4627355,49.9286676 C67.83746,52.4706835 66.4657939,54.9740776 64.1320443,56.0168659 C63.0218139,56.515438 61.8348957,56.6242813 60.7229223,56.4030837 C58.9573597,56.0519766 57.3870024,54.874012 56.6026952,53.0974098 C55.325146,50.2007757 56.625353,46.7967917 59.5028889,45.5117395 Z M37.8347471,45.4283516 C39.229071,44.8068919 40.7785134,44.7682701 42.2007238,45.3195083 C45.1375185,46.4570956 46.6050444,49.7908581 45.475642,52.7489359 C44.9248841,54.1796976 43.8582263,55.3120182 42.4639024,55.9352335 C41.3798156,56.4215169 40.2016119,56.5514265 39.0565234,56.3249624 C38.7358289,56.2600076 38.4133915,56.1687197 38.0996686,56.0458322 C35.1628739,54.9064895 33.6936051,51.5744825 34.8247504,48.6181601 C35.3720225,47.1838874 36.4404232,46.0515668 37.8347471,45.4283516 Z M41.500076,47.1522877 C39.5671945,46.4044295 37.3903063,47.3769963 36.646086,49.3238855 C35.9018656,51.2707748 36.8691778,53.463439 38.8003164,54.2112973 C40.731455,54.9626666 42.9083431,53.9883442 43.6525635,52.0432105 C44.4002697,50.0945658 43.4312146,47.9019015 41.500076,47.1522877 Z M49.9847112,37.1248427 C50.336778,36.9001341 50.8003907,36.9317337 51.124571,37.1950641 C51.4470084,37.4583945 51.5655259,37.9165893 51.417379,38.3063183 C51.1071419,39.1138648 49.932424,39.1366867 49.6082437,38.3326513 C49.4304674,37.8955229 49.5873289,37.3811509 49.9847112,37.1248427 Z" id="Combined-Shape"></path>
          </g>
        </g>
      </g>
    </g>
  </g>
</svg>
