<?xml version="1.0" encoding="UTF-8"?>
<svg xmlns="http://www.w3.org/2000/svg" xmlns:xlink="http://www.w3.org/1999/xlink" width="56px" height="61px" viewBox="0 0 56 61" version="1.1">
  <title>Perth</title>
  <g id="Page-1" stroke="none" stroke-width="1" fill="none" fill-rule="evenodd">
    <g id="Perth" transform="translate(1.000000, 1.000000)" fill="#444079" fill-rule="nonzero" stroke="#444079" stroke-width="0.25">
      <path d="M42.4593919,0.0263254992 C42.6683848,-0.0329763643 42.893092,0.00915623105 43.0664062,0.140140697 C43.2401588,0.272649506 43.3428656,0.47806325 43.3446212,0.696570553 L43.3446212,0.696570553 L43.3446212,22.0495663 L53.8472347,22.0495663 C54.2313003,22.059938 54.5439869,22.3616532 54.5680643,22.7451036 L54.5680643,22.7451036 L54.5680643,59.1027362 C54.5646318,59.4854401 54.2552308,59.794841 53.872527,59.7982736 L53.872527,59.7982736 L43.4647594,59.7982736 C43.4067926,59.8128804 43.3474517,59.8213576 43.2877136,59.8235658 C43.2278977,59.8222641 43.1684555,59.8137723 43.1106677,59.7982736 L43.1106677,59.7982736 L42.8198067,59.7982736 C42.7618398,59.8128804 42.7024989,59.8213576 42.6427608,59.8235658 L42.6427608,59.8235658 L0.69553732,59.8235658 C0.312833482,59.8201333 0.00343252788,59.5107323 -3.55271368e-13,59.1280285 L-3.55271368e-13,59.1280285 L-3.55271368e-13,12.0717673 C0.00343252788,11.6890634 0.312833482,11.3796625 0.69553732,11.37623 L0.69553732,11.37623 L4.71700764,11.37623 L4.71700764,6.03956179 C4.72044017,5.65685795 5.02984113,5.34745699 5.41254496,5.34402447 L5.41254496,5.34402447 L10.4140906,5.34402447 L10.4140906,0.905231749 C10.4140906,0.521097094 10.7254933,0.209694429 11.1096279,0.209694429 C11.4937626,0.209694429 11.8051652,0.521097094 11.8051652,0.905231749 L11.8051652,0.905231749 L11.8051652,5.34402447 L16.8130339,5.34402447 C17.1957378,5.34745699 17.5051387,5.65685795 17.5085713,6.03956179 L17.5085713,6.03956179 L17.5085713,11.382553 L18.5834926,11.382553 L18.5834926,7.0196371 C18.5827938,6.70396766 18.796263,6.42801975 19.101984,6.34939205 L19.101984,6.34939205 L42.4593919,0.0263254992 Z M20.8345043,12.7673046 L1.39107464,12.7673046 L1.39107464,58.4324912 L7.27152653,58.4324912 L7.27152653,48.4673383 C7.27495906,48.0846345 7.58436001,47.7752335 7.96706385,47.771801 L7.96706385,47.771801 L14.631576,47.771801 C15.0142798,47.7752335 15.3236808,48.0846345 15.3271133,48.4673383 L15.3271133,48.4673383 L15.3271133,58.4324912 L20.8281812,58.4324912 L20.8345043,12.7673046 Z M41.9409004,1.60076907 L19.9745672,7.54445162 L19.9745672,11.382553 L21.5300416,11.382553 C21.9127454,11.3859855 22.2221464,11.6953865 22.2255789,12.0780903 L22.2255789,12.0780903 L22.2255789,58.4324912 L32.3108701,58.4324912 L32.3108701,53.6901913 L30.401304,53.6901913 C30.0186001,53.6867588 29.7091992,53.3773578 29.7057666,52.994654 L29.7057666,52.994654 L29.7057666,12.1729363 C29.7091992,11.7902325 30.0186001,11.4808315 30.401304,11.477399 L30.401304,11.477399 L32.9937612,11.477399 C33.3789321,11.4773834 33.6921516,11.7877811 33.6956216,12.1729363 L33.6956216,12.1729363 L33.6956216,22.0495663 L35.1499269,22.0495663 L35.1499269,12.2235209 C35.1533595,11.840817 35.4627604,11.5314161 35.8454643,11.5279835 L35.8454643,11.5279835 L38.4379215,11.5279835 C38.8206254,11.5314161 39.1300263,11.840817 39.1334589,12.2235209 L39.1334589,12.2235209 L39.1334589,22.0495663 L41.9409004,22.0495663 L41.9409004,1.60076907 Z M47.606368,53.1337614 L43.9769278,53.1337614 L43.9769278,58.4071989 L47.606368,58.4071989 L47.606368,53.1337614 Z M53.1580205,23.4406409 L33.7209139,23.4406409 L33.7209139,58.4071989 L37.5653384,58.4071989 L37.5653384,52.4382241 C37.5687709,52.0555203 37.8781718,51.7461193 38.2608757,51.7426868 L38.2608757,51.7426868 L48.3019054,51.7426868 C48.6846092,51.7461193 48.9940101,52.0555203 48.9974427,52.4382241 L48.9974427,52.4382241 L48.9974427,58.4071989 L53.1580205,58.4071989 L53.1580205,23.4406409 Z M13.9360387,49.1628756 L8.66260117,49.1628756 L8.66260117,58.4071989 L13.9360387,58.4071989 L13.9360387,49.1628756 Z M42.5858532,53.1337614 L38.956413,53.1337614 L38.956413,58.4071989 L42.5858532,58.4071989 L42.5858532,53.1337614 Z M27.4294627,11.37623 C27.8146179,11.3797 28.125,11.6929195 28.125,12.0780903 L28.125,12.0780903 L28.125,52.8934849 C28.1215675,53.2761887 27.8121665,53.5855897 27.4294627,53.5891699 L27.4294627,53.5891699 L24.8370054,53.5891699 C24.6517063,53.5917781 24.473188,53.5193837 24.3421473,53.388343 C24.2111066,53.2573023 24.1387122,53.078784 24.1414681,52.8934849 L24.1414681,52.8934849 L24.1414681,12.0717673 C24.1449006,11.6890634 24.4543016,11.3796625 24.8370054,11.37623 L24.8370054,11.37623 L27.4294627,11.37623 Z M32.2982239,12.8684737 L31.0968413,12.8684737 L31.0968413,52.2991166 L32.2982239,52.2991166 L32.2982239,12.8684737 Z M26.7339254,12.7673046 L25.5325427,12.7673046 L25.5325427,52.1979476 L26.7339254,52.1979476 L26.7339254,12.7673046 Z M51.4191772,43.143307 C51.6038513,43.142641 51.7811565,43.2157038 51.9117417,43.346289 C52.0423269,43.4768742 52.1153897,43.6541795 52.1147237,43.8388536 L52.1147237,43.8388536 L52.1147237,46.4313109 C52.111282,46.8140147 51.801881,47.1234157 51.4191772,47.1268482 L51.4191772,47.1268482 L35.6873876,47.1268482 C35.3046838,47.1234157 34.9952828,46.8140147 34.9918503,46.4313109 L34.9918503,46.4313109 L34.9918503,43.8388536 C34.9952828,43.4561498 35.3046838,43.1467488 35.6873876,43.143307 L35.6873876,43.143307 L51.4191772,43.143307 Z M50.7236398,44.5217448 L36.3829249,44.5217448 L36.389248,45.7231274 L50.7236398,45.7231274 L50.7236398,44.5217448 Z M6.23454362,38.363078 C6.61967772,38.365691 6.93317565,38.6735908 6.94272707,39.0586153 L6.94272707,39.0586153 L6.94272707,41.6510726 C6.93929454,42.0337764 6.62989359,42.3431774 6.24718975,42.3466099 L6.24718975,42.3466099 L3.65473246,42.3466099 C3.27202863,42.3431774 2.96262767,42.0337764 2.95919514,41.6510726 L2.95919514,41.6510726 L2.95919514,39.0586153 C2.96262767,38.6759115 3.27202863,38.3665105 3.65473246,38.363078 L3.65473246,38.363078 L6.23454362,38.363078 Z M18.3242469,38.363078 C18.7069507,38.3665105 19.0163516,38.6759115 19.0197842,39.0586153 L19.0197842,39.0586153 L19.0197842,41.6384264 C19.0163516,42.0211303 18.7069507,42.3305312 18.3242469,42.334002 L18.3242469,42.334002 L15.7317896,42.334002 C15.3514228,42.3367733 15.0404218,42.0314268 15.0362522,41.6510726 L15.0362522,41.6510726 L15.0362522,39.0586153 C15.0396848,38.6759115 15.3490857,38.3665105 15.7317896,38.363078 L15.7317896,38.363078 L18.3242469,38.363078 Z M12.2920414,38.363078 C12.6772122,38.363078 12.9904317,38.6734601 12.9939018,39.0586153 L12.9939018,39.0586153 L12.9939018,41.6384264 C12.9904692,42.0211303 12.6810683,42.3305312 12.2983644,42.3340261 L12.2983644,42.3340261 L9.71855328,42.3340261 C9.33576219,42.3375519 9.02069917,42.0337411 9.01036983,41.6510726 L9.01036983,41.6510726 L9.01036983,39.0586153 C9.01380236,38.6759115 9.32320331,38.3665105 9.70590715,38.363078 L9.70590715,38.363078 L12.2920414,38.363078 Z M51.4191772,37.2502183 C51.801881,37.2536508 52.111282,37.5630517 52.1147145,37.9457556 L52.1147145,37.9457556 L52.1147145,40.5382129 C52.111282,40.9209167 51.801881,41.2303177 51.4191772,41.2337502 L51.4191772,41.2337502 L35.6873876,41.2337502 C35.3046838,41.2303177 34.9952828,40.9209167 34.9918503,40.5382129 L34.9918503,40.5382129 L34.9918503,37.9457556 C34.9952828,37.5630517 35.3046838,37.2536508 35.6873876,37.2502183 L35.6873876,37.2502183 L51.4191772,37.2502183 Z M11.6091502,39.7541526 L10.4077675,39.7541526 L10.4077675,40.9555353 L11.6091502,40.9555353 L11.6091502,39.7541526 Z M17.6287095,39.7541526 L16.4273269,39.7541526 L16.4273269,40.9555353 L17.6287095,40.9555353 L17.6287095,39.7541526 Z M5.53900629,39.7415065 L4.33762365,39.7415065 L4.33762365,40.9428891 L5.53900629,40.9428891 L5.53900629,39.7415065 Z M50.7236398,38.6412929 L36.3829249,38.6412929 L36.389248,39.8426755 L50.7236398,39.8426755 L50.7236398,38.6412929 Z M18.4380621,32.5332014 C18.6227362,32.5325354 18.8000414,32.6055981 18.9306266,32.7361834 C19.0612118,32.8667686 19.1342746,33.0440738 19.1336086,33.2287479 L19.1336086,33.2287479 L19.1336086,35.8212052 C19.1301668,36.2039091 18.8207659,36.51331 18.4380621,36.5167425 L18.4380621,36.5167425 L15.8456048,36.5167425 C15.4629009,36.51331 15.1535,36.2039091 15.1500674,35.8212052 L15.1500674,35.8212052 L15.1500674,33.2287479 C15.1535,32.8460441 15.4629009,32.5366431 15.8456048,32.5332014 L15.8456048,32.5332014 L18.4380621,32.5332014 Z M12.4058566,32.5332106 C12.5911556,32.5304548 12.769674,32.6028491 12.9007147,32.7338898 C13.0317554,32.8649305 13.1041497,33.0434489 13.1013939,33.2287479 L13.1013939,33.2287479 L13.1013939,35.8212052 C13.0979614,36.2039091 12.7885604,36.51331 12.4058566,36.5167425 L12.4058566,36.5167425 L9.81339928,36.5167425 C9.43069544,36.51331 9.12129449,36.2039091 9.11786196,35.8212052 L9.11786196,35.8212052 L9.11786196,33.2287479 C9.12129449,32.8460441 9.43069544,32.5366431 9.81339928,32.5332106 L9.81339928,32.5332106 L12.4058566,32.5332106 Z M6.34835881,32.5332106 C6.53365787,32.5304548 6.71217622,32.6028491 6.84321693,32.7338898 C6.97425764,32.8649305 7.04665197,33.0434489 7.04389613,33.2287479 L7.04389613,33.2287479 L7.04389613,35.8212052 C7.04046361,36.2039091 6.73106265,36.51331 6.34835881,36.5167425 L6.34835881,36.5167425 L3.76854766,36.5167425 C3.38584382,36.51331 3.07644287,36.2039091 3.07301034,35.8212052 L3.07301034,35.8212052 L3.07301034,33.2287479 C3.07644287,32.8460441 3.38584382,32.5366431 3.76854766,32.5332106 L3.76854766,32.5332106 L6.34835881,32.5332106 Z M51.4191772,31.331828 C51.801881,31.3352605 52.111282,31.6446615 52.1147145,32.0273653 L52.1147145,32.0273653 L52.1147145,34.6198226 C52.111282,35.0025264 51.801881,35.3119274 51.4191772,35.3153599 L51.4191772,35.3153599 L35.6873876,35.3153599 C35.3046838,35.3119274 34.9952828,35.0025264 34.9918503,34.6198226 L34.9918503,34.6198226 L34.9918503,32.0273653 C34.9952828,31.6446615 35.3046838,31.3352605 35.6873876,31.331828 L35.6873876,31.331828 L51.4191772,31.331828 Z M17.7425247,33.9116391 L16.5411421,33.9116391 L16.5411421,35.1130218 L17.7425247,35.1130218 L17.7425247,33.9116391 Z M11.7292884,33.9116391 L10.5215827,33.9116391 L10.5215827,35.1130218 L11.7229654,35.1130218 L11.7292884,33.9116391 Z M5.65914456,33.9116391 L4.45776192,33.9116391 L4.45776192,35.1130218 L5.65914456,35.1130218 L5.65914456,33.9116391 Z M50.7236398,32.7229026 L36.3829249,32.7229026 L36.389248,33.9242853 L50.7236398,33.9242853 L50.7236398,32.7229026 Z M51.4191772,25.5272529 C51.801881,25.5306854 52.111282,25.8400864 52.1147145,26.2227902 L52.1147145,26.2227902 L52.1147145,28.8152475 C52.111282,29.1979513 51.801881,29.5073523 51.4191772,29.5107848 L51.4191772,29.5107848 L35.6873876,29.5107848 C35.3046838,29.5073523 34.9952828,29.1979513 34.9918503,28.8152475 L34.9918503,28.8152475 L34.9918503,26.2227902 C34.9952828,25.8400864 35.3046838,25.5306854 35.6873876,25.5272529 L35.6873876,25.5272529 L51.4191772,25.5272529 Z M50.7236398,26.9183275 L36.3829249,26.9183275 L36.389248,28.1197102 L50.7236398,28.1197102 L50.7236398,26.9183275 Z M12.2920414,20.7470146 C12.6747452,20.7504471 12.9841462,21.0598481 12.9875787,21.4425519 L12.9875787,21.4425519 L12.9875787,24.0350092 C12.9841462,24.417713 12.6747452,24.727114 12.2920414,24.7305465 L12.2920414,24.7305465 L9.71223022,24.7305465 C9.32762308,24.7291958 9.01520097,24.4195883 9.01036983,24.0350092 L9.01036983,24.0350092 L9.01036983,21.4425519 C9.01380236,21.0598481 9.32320331,20.7504471 9.70590715,20.7470146 L9.70590715,20.7470146 L12.2920414,20.7470146 Z M18.3242469,20.7470146 C18.7069507,20.7504471 19.0163516,21.0598481 19.0197842,21.4425519 L19.0197842,21.4425519 L19.0197842,24.0350092 C19.0163516,24.417713 18.7069507,24.727114 18.3242469,24.7305557 L18.3242469,24.7305557 L15.7317896,24.7305557 C15.5471154,24.7312217 15.3698102,24.658159 15.239225,24.5275738 C15.1086398,24.3969885 15.035577,24.2196833 15.036243,24.0350092 L15.036243,24.0350092 L15.036243,21.4425519 C15.0396848,21.0598481 15.3490857,20.7504471 15.7317896,20.7470146 L15.7317896,20.7470146 L18.3242469,20.7470146 Z M6.24718975,20.7470146 C6.62989359,20.7504471 6.93929454,21.0598481 6.94272707,21.4425519 L6.94272707,21.4425519 L6.94272707,24.0350092 C6.93929454,24.417713 6.62989359,24.727114 6.24718975,24.7305557 L6.24718975,24.7305557 L3.65473246,24.7305557 C3.47005832,24.7312217 3.29275309,24.658159 3.16216788,24.5275738 C3.03158267,24.3969885 2.95851991,24.2196833 2.95918592,24.0350092 L2.95918592,24.0350092 L2.95918592,21.4425519 C2.96262767,21.0598481 3.27202863,20.7504471 3.65473246,20.7470146 L3.65473246,20.7470146 L6.24718975,20.7470146 Z M5.55165243,22.1507353 L4.35026978,22.1507353 L4.35026978,23.352118 L5.55165243,23.352118 L5.55165243,22.1507353 Z M11.6091502,22.1507353 L10.4077675,22.1507353 L10.4077675,23.352118 L11.6091502,23.352118 L11.6091502,22.1507353 Z M17.6287095,22.1507353 L16.4273269,22.1507353 L16.4273269,23.352118 L17.6287095,23.352118 L17.6287095,22.1507353 Z M37.7360612,12.9190582 L36.5346785,12.9190582 L36.5346785,22.0495663 L37.7360612,22.0495663 L37.7360612,12.9190582 Z M12.4185027,14.9171472 C12.6046476,14.9171472 12.7831686,14.991093 12.9147929,15.1227174 C13.0464173,15.2543417 13.1203631,15.4328627 13.1203631,15.6190076 L13.1203631,15.6190076 L13.1203631,18.2114649 C13.1169306,18.5941687 12.8075296,18.9035697 12.4248258,18.9070118 L12.4248258,18.9070118 L9.83236848,18.9070118 C9.64658912,18.9076954 9.46831063,18.8337672 9.33753963,18.7018073 C9.20676864,18.5698475 9.13445676,18.3909073 9.13683116,18.2051418 L9.13683116,18.2051418 L9.13683116,15.6126845 C9.14026369,15.2299807 9.44966464,14.9205797 9.83236848,14.9171472 L9.83236848,14.9171472 L12.4185027,14.9171472 Z M18.4380621,14.9234703 C18.8207659,14.9269028 19.1301668,15.2363038 19.1335994,15.6190076 L19.1335994,15.6190076 L19.1335994,18.2114649 C19.1301668,18.5941687 18.8207659,18.9035697 18.4380621,18.9070022 L18.4380621,18.9070022 L15.8456048,18.9070022 C15.4629009,18.9035697 15.1535,18.5941687 15.1500674,18.2114649 L15.1500674,18.2114649 L15.1500674,15.6190076 C15.1535,15.2363038 15.4629009,14.9269028 15.8456048,14.9234703 L15.8456048,14.9234703 L18.4380621,14.9234703 Z M6.34835881,14.9171376 C6.53413817,14.916454 6.71241666,14.9903823 6.84318766,15.1223421 C6.97395866,15.2543019 7.04627054,15.4332421 7.04389613,15.6190076 L7.04389613,15.6190076 L7.04389613,18.2051418 C7.04046361,18.5878457 6.73106265,18.8972466 6.34835881,18.9006791 L6.34835881,18.9006791 L3.76854766,18.9006791 C3.38584382,18.8972466 3.07644287,18.5878457 3.07301034,18.2051418 L3.07301034,18.2051418 L3.07301034,15.6126845 C3.07644287,15.2299807 3.38584382,14.9205797 3.76854766,14.9171376 L3.76854766,14.9171376 L6.34835881,14.9171376 Z M5.65914456,16.3145449 L4.45776192,16.3145449 L4.45776192,17.5159276 L5.65914456,17.5159276 L5.65914456,16.3145449 Z M11.7292884,16.3145449 L10.5279058,16.3145449 L10.5279058,17.5159276 L11.7292884,17.5159276 L11.7292884,16.3145449 Z M17.7425247,16.3145449 L16.5411421,16.3145449 L16.5411421,17.5159276 L17.7425247,17.5159276 L17.7425247,16.3145449 Z M16.1111736,6.73509911 L6.10808228,6.73509911 L6.10808228,11.37623 L16.1111736,11.37623 L16.1111736,6.73509911 Z" id="Combined-Shape"></path>
    </g>
  </g>
</svg>
