<?xml version="1.0" encoding="UTF-8"?>
<svg xmlns="http://www.w3.org/2000/svg" xmlns:xlink="http://www.w3.org/1999/xlink" width="69px" height="60px" viewBox="0 0 69 60" version="1.1">
  <title>Fill 31</title>
  <g id="Desktop" stroke="none" stroke-width="1" fill="none" fill-rule="evenodd">
    <g id="Retirement-Village-Location" transform="translate(-473.000000, -4442.000000)" fill="#514D85">
      <g id="Group-5" transform="translate(0.000000, 4046.000000)">
        <g id="Group-23" transform="translate(453.000000, 396.000000)">
          <path d="M77.114627,60 C74.6243388,60 72.595564,57.9743976 72.595564,55.4819277 C72.595564,54.5500753 72.8800069,53.6822289 73.3660086,52.9612199 L51.335812,52.9612199 C51.8218138,53.6822289 52.1100241,54.5500753 52.1100241,55.4819277 C52.1100241,57.9743976 50.0774818,60 47.5871937,60 C45.0950218,60 43.0681307,57.9743976 43.0681307,55.4819277 C43.0681307,54.5425452 43.356341,53.6671687 43.8517614,52.940512 C41.6176603,52.7390813 39.7320487,51.0805723 39.2837215,48.8478916 L31.8354618,11.7620482 L31.8354618,11.7526355 L30.5413408,5.22402108 C30.158944,3.35843373 28.4880775,1.99548193 26.5704426,1.99548193 L20.9983757,1.99548193 C20.4483272,1.99548193 20,1.54932229 20,0.997740964 C20,0.446159639 20.4483272,0 20.9983757,0 L26.5704426,0 C29.4280577,0 31.923997,2.02936747 32.5004177,4.82868976 L33.6363056,10.564759 L88.0006899,10.564759 C88.2983189,10.564759 88.5808781,10.6965361 88.7692509,10.9280873 C88.9595074,11.157756 89.038624,11.4589608 88.9821121,11.7526355 L87.509037,19.3919428 C87.5071533,19.4051205 87.5033858,19.4145331 87.5033858,19.4258283 L85.9700314,27.3644578 C85.9700314,27.3832831 85.9681476,27.3964608 85.9643802,27.4096386 L82.9541832,43.0195783 C82.865648,43.4902108 82.4512278,43.8309488 81.972761,43.8309488 L40.3160044,43.8309488 L41.2465659,48.4563253 C41.53666,49.9096386 42.8270135,50.9638554 44.3076236,50.9638554 L77.114627,50.9638554 C79.6086826,50.9638554 81.6355737,52.9894578 81.6355737,55.4819277 C81.6355737,57.9743976 79.6086826,60 77.114627,60 L77.114627,60 Z M77.114627,52.9612199 C75.7263196,52.9612199 74.5923154,54.0926205 74.5923154,55.4819277 C74.5923154,56.8712349 75.7263196,58.000753 77.114627,58.000753 C78.5048181,58.000753 79.6369385,56.8712349 79.6369385,55.4819277 C79.6369385,54.0926205 78.5048181,52.9612199 77.114627,52.9612199 L77.114627,52.9612199 Z M47.5871937,52.9612199 C46.1951188,52.9612199 45.0648821,54.0926205 45.0648821,55.4819277 C45.0648821,56.8712349 46.1951188,58.000753 47.5871937,58.000753 C48.9773848,58.000753 50.1095052,56.8712349 50.1095052,55.4819277 C50.1095052,54.0926205 48.9773848,52.9612199 47.5871937,52.9612199 L47.5871937,52.9612199 Z M77.1315805,41.8335843 L81.1495719,41.8335843 L82.2402503,36.1746988 L77.432977,36.1746988 L77.1315805,41.8335843 Z M66.8049847,41.8335843 L75.1291779,41.8335843 L75.4305743,36.1746988 L66.927427,36.1746988 L66.8049847,41.8335843 Z M56.4746214,41.8335843 L64.8082332,41.8335843 L64.9269081,36.1746988 L56.3540629,36.1746988 L56.4746214,41.8335843 Z M46.1536768,41.8335843 L54.4759862,41.8335843 L54.3573114,36.1746988 L45.8522804,36.1746988 L46.1536768,41.8335843 Z M40.0164916,41.8335843 L44.1531579,41.8335843 L43.8517614,36.1746988 L38.8598828,36.1746988 L40.0164916,41.8335843 Z M77.5384657,34.1773343 L82.6245308,34.1773343 L83.7736048,28.1965361 L77.8568157,28.1965361 L77.5384657,34.1773343 Z M66.9726365,34.1773343 L75.5360631,34.1773343 L75.8562968,28.1965361 L67.0988462,28.1965361 L66.9726365,34.1773343 Z M56.3126208,34.1773343 L64.9721176,34.1773343 L65.0983273,28.1965361 L56.1845274,28.1965361 L56.3126208,34.1773343 Z M45.7467916,34.1773343 L54.3139857,34.1773343 L54.1840084,28.1965361 L45.4303253,28.1965361 L45.7467916,34.1773343 Z M38.4529976,34.1773343 L43.744389,34.1773343 L43.4279227,28.1965361 L37.2342257,28.1965361 L38.4529976,34.1773343 Z M77.9641882,26.1991717 L84.159769,26.1991717 L85.3163778,20.2183735 L78.2806545,20.2183735 L77.9641882,26.1991717 Z M67.1402883,26.1991717 L75.9636693,26.1991717 L76.2801356,20.2183735 L67.266498,20.2183735 L67.1402883,26.1991717 Z M56.1393179,26.1991717 L65.1435368,26.1991717 L65.2678628,20.2183735 L56.0149919,20.2183735 L56.1393179,26.1991717 Z M45.3210691,26.1991717 L54.1425664,26.1991717 L54.0163567,20.2183735 L45.0027191,20.2183735 L45.3210691,26.1991717 Z M36.823573,26.1991717 L43.3186665,26.1991717 L43.0022002,20.2183735 L35.6048011,20.2183735 L36.823573,26.1991717 Z M78.388027,18.221009 L85.7006583,18.221009 L86.7913367,12.5621235 L78.6913071,12.5621235 L78.388027,18.221009 Z M67.3098238,18.221009 L76.3856243,18.221009 L76.6889045,12.5621235 L67.4322661,12.5621235 L67.3098238,18.221009 Z M55.9716661,18.221009 L65.3111886,18.221009 L65.4317471,12.5621235 L55.8511075,12.5621235 L55.9716661,18.221009 Z M44.8972304,18.221009 L53.9730309,18.221009 L53.8487049,12.5621235 L44.5958339,12.5621235 L44.8972304,18.221009 Z M35.1941485,18.221009 L42.8948277,18.221009 L42.5934313,12.5621235 L34.0394233,12.5621235 L35.1941485,18.221009 Z" id="Fill-31"></path>
        </g>
      </g>
    </g>
  </g>
</svg>
