<?xml version="1.0" encoding="UTF-8"?>
<svg xmlns="http://www.w3.org/2000/svg" xmlns:xlink="http://www.w3.org/1999/xlink" width="54px" height="60px" viewBox="0 0 54 60" version="1.1">
  <title>Combined Shape</title>
  <g id="Desktop" stroke="none" stroke-width="1" fill="none" fill-rule="evenodd">
    <g id="Retirement-Villages" transform="translate(-1056.000000, -2574.000000)" fill="#514E86">
      <g id="Group-20" transform="translate(-70.000000, 2381.000000)">
        <g id="Group-19" transform="translate(190.000000, 179.000000)">
          <g id="Group-4" transform="translate(921.000000, 14.000000)">
            <path d="M53.1726748,3.63797881e-12 C55.3503952,3.63797881e-12 57.1204238,1.72312074 57.1204238,3.8409114 C57.1204238,4.86217068 56.7006223,5.83053606 55.9821158,6.54053504 C56.3353142,6.70735429 56.6602568,6.93317058 56.9407972,7.20577764 C57.2475753,7.14474621 57.5624264,7.11626488 57.8813141,7.11626488 C59.1245725,7.11626488 60.2971912,7.58010375 61.1751416,8.39792493 C61.6575097,8.17007425 62.192353,8.05411454 62.7372877,8.05411454 C64.7454729,8.05411454 66.3762404,9.63889737 66.3762404,11.5858 C66.3762404,12.0740515 66.27129,12.5439935 66.0795537,12.979351 C67.7426137,13.304852 69,14.7329875 69,16.4418676 C69,16.9931848 68.8708303,17.5221239 68.6286371,18.0022378 C68.8708303,18.4864205 69,19.0194283 69,19.5605737 C69,20.581833 68.5418512,21.5440952 67.7708695,22.2073034 C67.7809609,22.3069881 67.7849975,22.4066728 67.7849975,22.5083918 C67.7849975,22.8216865 67.7405954,23.1492218 67.6578461,23.4665853 C68.2330549,24.4959821 68.4994674,25.6779575 68.3985536,26.8619672 L68.3985536,26.8619672 L68.3884622,26.9453769 L62.7655435,60 L30.3479845,60 L24.7149745,26.8619672 C24.5817682,25.3036314 25.0802826,23.7554674 26.0894209,22.5470451 C25.4516455,21.8512867 25.0802826,20.9439528 25.0802826,19.983725 C25.0802826,17.9412064 26.7292146,16.2689452 28.8040029,16.1509511 C28.5396087,15.6606652 28.396311,15.1052792 28.396311,14.5193775 C28.396311,13.7117282 28.680888,12.9325603 29.1955486,12.3120741 C29.1834389,12.1920456 29.1773841,12.0699827 29.1773841,11.9519886 C29.1773841,10.0030516 30.8061333,8.41826874 32.810282,8.41826874 C33.1977911,8.41826874 33.5772271,8.47726579 33.9384986,8.59119113 C34.5338902,8.14159292 35.2887257,7.85881396 36.1485115,7.78761062 C36.7116107,7.74081986 37.2161799,7.80998881 37.662219,7.93408605 C37.8539553,6.40219713 39.0608847,5.16936222 40.6048663,4.89065202 C40.2940517,3.40758824 40.9176992,1.82483979 42.2537983,0.941918421 C43.8139261,-0.0854440037 45.8685317,0.115959719 47.1844481,1.32438206 C47.8181869,0.927677754 48.5588944,0.709998983 49.3339127,0.709998983 C49.7718787,0.709998983 50.2037899,0.779167938 50.6114818,0.913437087 C51.3178786,0.327535347 52.2180299,3.63797881e-12 53.1726748,3.63797881e-12 Z M41.36172,22.3273319 C40.2213937,22.3273319 39.1597802,22.7647238 38.3645792,23.56627 C37.6339631,24.3067847 37.2262712,25.2670125 37.2040702,26.2862374 L37.2040702,26.2862374 L39.7793912,57.9879972 L45.5213881,57.9879972 L45.5213881,26.3676127 C45.5213881,24.1399654 43.6565005,22.3273319 41.36172,22.3273319 Z M62.192353,22.3273319 L62.1459326,22.3273319 C59.9036273,22.3273319 58.077087,24.0321432 57.9923193,26.2129997 L57.9923193,26.2129997 L57.9923193,26.2516529 L57.982228,26.3554064 C57.982228,26.438816 57.9802097,26.5181569 57.9761731,26.6015665 L57.9761731,26.6015665 L57.9721366,26.6402197 L55.4129618,57.9879972 L61.0096429,57.9879972 L66.3378931,26.6564948 C66.4226608,25.5335164 66.0371699,24.4573289 65.250042,23.6313702 C64.4528228,22.787102 63.3649717,22.3273319 62.192353,22.3273319 L62.192353,22.3273319 Z M51.7497898,22.3273319 C49.4590458,22.3273319 47.5941582,24.1399654 47.5941582,26.369647 L47.5941582,26.369647 L47.5941582,57.9879972 L53.3341369,57.9879972 L55.9094579,26.2862374 C55.8892751,25.2670125 55.4836015,24.3067847 54.7469305,23.56627 C53.9577844,22.7647238 52.8941526,22.3273319 51.7497898,22.3273319 Z M30.9655772,22.3273319 L30.9231934,22.3273319 C29.7485564,22.3273319 28.6627236,22.787102 27.8655043,23.6313702 C27.0783764,24.4573289 26.6928856,25.5335164 26.7756349,26.6564948 L26.7756349,26.6564948 L32.1059035,57.9879972 L37.7005662,57.9879972 L35.1373549,26.6015665 C35.1333184,26.5181569 35.1333184,26.438816 35.1333184,26.3554064 L35.1333184,26.3554064 L35.1252453,26.2333435 L35.1212087,26.2129997 C35.0344228,24.0321432 33.2139373,22.3273319 30.9655772,22.3273319 L30.9655772,22.3273319 Z M34.167573,45.4098261 L34.9970847,50.284203 L32.9525705,50.6117384 L32.1230588,45.7373614 L34.167573,45.4098261 Z M51.1576274,33.8065304 L53.2223244,33.9692808 L52.5946404,41.6165192 L50.5319617,41.4598718 L51.1576274,33.8065304 Z M30.8957448,26.182484 L32.2257891,33.9985759 L30.1812749,34.3261113 L28.8512306,26.5100193 L30.8957448,26.182484 Z M51.7744127,26.2705727 L53.8370914,26.4312888 L53.4717834,30.8804801 L51.4091047,30.7217984 L51.7744127,26.2705727 Z M53.1726748,2.01403723 C52.5813197,2.01403723 52.0323485,2.27850676 51.6751135,2.73827688 L51.6751135,2.73827688 L51.1079778,3.45844777 L50.3107585,2.98647137 C50.0181084,2.81354898 49.6810562,2.72403621 49.3339127,2.72403621 C48.7587038,2.72403621 48.2178057,2.97833384 47.8585524,3.41776015 L47.8585524,3.41776015 L46.8675786,4.63432001 L46.1288894,3.26111281 C46.0945787,3.19601261 46.0622863,3.14108433 46.0279756,3.0902248 C45.4446936,2.25816295 44.2720749,2.04251856 43.4163256,2.60604211 C42.6513988,3.11260299 42.3789314,4.10334656 42.7805685,4.91099583 L42.7805685,4.91099583 L43.1398217,5.63930424 L42.4879184,6.1377276 C42.3728766,6.22724036 42.2659079,6.33302818 42.1710489,6.4591598 L42.1710489,6.4591598 L41.836015,6.87824229 L41.2547514,6.8456922 C40.3969838,6.8558641 39.7026966,7.53127861 39.7026966,8.36537483 C39.7026966,8.70918523 39.8197567,9.03265182 40.0377306,9.30525887 L40.0377306,9.30525887 L40.5322083,9.91557319 L40.0276392,10.5645407 L39.4685766,11.2908148 L38.6632842,10.816804 C38.5462241,10.7496694 38.4372372,10.6642254 38.3161406,10.5645407 C37.9165218,10.2492117 37.2444357,9.71823823 36.3261199,9.79554471 C35.9063183,9.83012918 35.3311095,9.96439833 34.9880025,10.4017903 L34.9880025,10.4017903 L34.4249033,11.1260299 L33.6256658,10.6499847 C33.3814543,10.5055437 33.1029321,10.432306 32.8143186,10.432306 C31.9504962,10.432306 31.2481359,11.115858 31.2481359,11.9519886 C31.2481359,12.0903265 31.2683187,12.22663 31.3066659,12.3588648 L31.3066659,12.3588648 L31.4782194,12.9671447 L30.993833,13.3841929 C30.6608174,13.6710406 30.4670628,14.0860543 30.4670628,14.5193775 C30.4670628,15.1846201 30.9050289,15.7684874 31.5549139,15.9678568 L31.5549139,15.9678568 L33.5893368,16.5985149 L31.8213265,17.7601465 C31.6457364,17.8781406 31.4963839,18.0124097 31.3692325,18.1731258 L31.3692325,18.1731258 L30.8061333,18.8973655 L30.0089141,18.4233547 C29.7162639,18.2504323 29.3792118,18.1588852 29.0320682,18.1588852 C27.994674,18.1588852 27.1530526,18.9767063 27.1530526,19.983725 C27.1530526,20.4475638 27.3326793,20.8849558 27.6495487,21.2185942 C28.622358,20.6347269 29.760666,20.3132947 30.9231934,20.3132947 L30.9231934,20.3132947 L30.9655772,20.3132947 C33.1412794,20.3132947 35.0546056,21.3833791 36.1646577,23.0210558 C36.3745585,22.7240362 36.6086786,22.4351541 36.8730728,22.1686502 C38.0598195,20.9703998 39.6522397,20.3132947 41.36172,20.3132947 C43.5273308,20.3132947 45.4386388,21.393551 46.5587823,23.0291934 C47.672871,21.393551 49.584179,20.3132947 51.7497898,20.3132947 C53.4612883,20.3132947 55.0577451,20.9703998 56.2424735,22.1686502 C56.5068677,22.4351541 56.7430061,22.7240362 56.946852,23.0210558 C58.0609407,21.3833791 59.9722487,20.3132947 62.1459326,20.3132947 L62.1459326,20.3132947 L62.192353,20.3132947 C63.3649717,20.3132947 64.5113528,20.6367613 65.4922352,21.2328349 L65.4922352,21.2328349 L66.1279924,20.8849558 C66.6224701,20.6184518 66.9292482,20.1078222 66.9292482,19.5605737 C66.9292482,19.2147289 66.8121881,18.8932967 66.5982508,18.6247584 L66.5982508,18.6247584 L66.0936817,18.0022378 L66.5962326,17.3797172 C66.8121881,17.1111789 66.9292482,16.7877123 66.9292482,16.4418676 C66.9292482,15.605737 66.2268879,14.9221849 65.3630655,14.9221849 C65.0946347,14.9221849 64.8362953,14.9872851 64.6082301,15.109348 L64.6082301,15.109348 L63.2539665,15.8417252 L63.0763581,14.3464551 C63.0662667,14.2549079 63.0481023,14.1694639 63.0218647,14.0941918 L63.0218647,14.0941918 L62.7715984,13.3170583 L63.5022145,12.9142508 C63.9966923,12.6477469 64.3034703,12.1371173 64.3034703,11.5898688 C64.3034703,10.7496694 63.6011101,10.0681518 62.7372877,10.0681518 C62.3477603,10.0681518 61.9723608,10.2085241 61.6797107,10.4689248 L61.6797107,10.4689248 L60.791669,11.2623334 L60.1195829,10.2898993 C59.6190503,9.56159089 58.7834838,9.12826772 57.8813141,9.12826772 C57.5563716,9.12826772 57.2374839,9.18319601 56.9327241,9.29508697 L56.9327241,9.29508697 L56.1476145,9.58600346 L55.6955205,8.89838267 C55.4452542,8.51388465 55.0415989,8.26365578 54.5834501,8.20465873 L54.5834501,8.20465873 L53.6873353,8.08666463 L53.6875876,7.16534432 L53.6875876,7.16534432 L53.6893536,7.1244024 C53.6873353,6.94944563 53.6590794,6.77652324 53.6066042,6.60360085 L53.6066042,6.60360085 L53.3664293,5.8264673 L54.0909906,5.43179738 C54.6823457,5.11036517 55.049672,4.50005086 55.049672,3.8409114 C55.049672,2.83389279 54.2080507,2.01403723 53.1726748,2.01403723 Z M56.9849975,14.095209 C58.9629086,14.095209 60.5755116,15.6616824 60.5755116,17.5841725 L60.5755116,17.5841725 L58.5047598,17.5841725 C58.5047598,16.7683857 57.820564,16.1072119 56.9849975,16.1072119 C56.4017155,16.1072119 55.8628357,16.4408504 55.6105511,16.9575832 L55.6105511,16.9575832 L55.069653,18.072424 L54.0524416,17.3319093 C53.7981387,17.1447462 53.4994338,17.0470959 53.1845826,17.0470959 C52.3873633,17.0470959 51.73546,17.6797884 51.73546,18.4589564 L51.73546,18.4589564 L49.6647082,18.4589564 C49.6647082,16.5690164 51.2430005,15.0330587 53.1845826,15.0330587 C53.5862197,15.0330587 53.975747,15.0981589 54.3430734,15.2263249 C55.0131412,14.5183603 55.9698043,14.095209 56.9849975,14.095209 Z M22.7905477,5.92920354 C24.9682682,5.92920354 26.7382968,7.6502899 26.7382968,9.76808056 C26.7382968,10.8991964 26.2236363,11.9611433 25.3557773,12.685383 C25.3719235,12.813549 25.3779784,12.9437494 25.3779784,13.0719154 C25.3779784,15.1917404 23.6079498,16.9148612 21.4261927,16.9148612 C19.6279083,16.9148612 18.0798901,15.7227139 17.6177048,14.0911403 C16.0838145,13.5499949 15,12.1116875 15,10.4760452 C15,8.36028888 16.7740651,6.63716814 18.9517856,6.63716814 C19.3877334,6.63716814 19.8176263,6.70837148 20.2273364,6.84467501 C20.9357515,6.25267013 21.8298481,5.92920354 22.7905477,5.92920354 Z M46.3488815,9.32967145 C47.4427875,9.32967145 48.4640354,9.77113213 49.1845602,10.5319906 C49.4711555,10.4465466 49.773897,10.4038246 50.0786567,10.4038246 C51.7538263,10.4038246 53.1181813,11.7261723 53.1181813,13.3557115 L53.1181813,13.3557115 L51.0454112,13.3557115 C51.0454112,12.83491 50.6135,12.4158275 50.0786567,12.4158275 C49.8082077,12.4158275 49.6104165,12.5216153 49.4913382,12.6111281 L49.4913382,12.6111281 L48.5144923,13.3414709 L47.9392835,12.2815583 C47.6284689,11.7037941 47.0169311,11.3416743 46.3488815,11.3416743 C45.359926,11.3416743 44.5566519,12.1269454 44.5566519,13.0851388 C44.5566519,13.1461703 44.5586702,13.2112705 44.5687616,13.2845082 L44.5687616,13.2845082 L44.7382968,14.7757095 L43.2528452,14.3647645 C43.0873465,14.3200081 42.9218478,14.2935612 42.7603857,14.2935612 C41.7714302,14.2935612 40.9641195,15.0788323 40.9641195,16.0390601 L40.9641195,16.0390601 L38.8933677,16.0390601 C38.8933677,14.0270573 40.5261535,12.3832774 42.572686,12.2876615 C42.9501037,10.5991252 44.5001402,9.32967145 46.3488815,9.32967145 Z M22.7905477,7.94324077 C22.1951561,7.94324077 21.6502214,8.20567592 21.2929865,8.66544604 L21.2929865,8.66544604 L20.7258508,9.38765131 L19.9245949,8.91567491 C19.6339631,8.74275252 19.2969109,8.64917099 18.9517856,8.64917099 C17.9164097,8.64917099 17.0707518,9.46902655 17.0707518,10.4760452 C17.0707518,11.3732072 17.7589841,12.1523751 18.6712452,12.2805411 L18.6712452,12.2805411 L19.4967203,12.4005696 L19.553232,13.2041501 C19.62589,14.1562405 20.4493469,14.8967552 21.428211,14.8967552 C22.4656052,14.8967552 23.3072266,14.078934 23.3072266,13.0719154 C23.3072266,12.8908555 23.2789707,12.7077612 23.2244772,12.5348388 L23.2244772,12.5348388 L22.9802657,11.7597396 L23.704827,11.3610009 C24.3002186,11.0375343 24.667545,10.4251856 24.667545,9.76808056 C24.667545,8.76106195 23.8259236,7.94324077 22.7905477,7.94324077 Z" id="Combined-Shape"></path>
          </g>
        </g>
      </g>
    </g>
  </g>
</svg>
