<?xml version="1.0" encoding="UTF-8"?>
<svg xmlns="http://www.w3.org/2000/svg" xmlns:xlink="http://www.w3.org/1999/xlink" width="60px" height="60px" viewBox="0 0 60 60" version="1.1">
  <title>Swimming</title>
  <g id="Page-1" stroke="none" stroke-width="1" fill="none" fill-rule="evenodd">
    <g id="Swimming" fill="#444079" fill-rule="nonzero">
      <path d="M52.677816,51.9228498 C55.2513527,51.9228498 57.6714215,52.9265893 59.5130349,54.7569376 C60.1623217,55.4182248 60.1623217,56.469199 59.5130349,57.1186774 C58.8519429,57.7681559 57.8012789,57.7681559 57.1519921,57.1186774 C55.9596655,55.9378075 54.3777668,55.2765204 52.6896212,55.2765204 C51.0014757,55.2765204 49.419577,55.9259988 48.2272504,57.1186774 C46.3620266,58.9726432 43.8947368,60 41.2739793,60 C38.6532218,60 36.1859321,58.9726432 34.3325135,57.1186774 C33.1401869,55.9378075 31.5582882,55.2765204 29.8701426,55.2765204 C28.181997,55.2765204 26.6000984,55.9259988 25.4077718,57.1186774 C23.5779636,58.9490258 21.1578947,59.9527652 18.5843581,59.9527652 C16.0108214,59.9527652 13.5907526,58.9490258 11.7727496,57.1304861 C10.580423,55.9496162 8.9985243,55.2883291 7.3103788,55.2883291 C5.6222332,55.2883291 4.0403345,55.9378075 2.8480079,57.1304861 C2.1869159,57.7799646 1.1362518,57.7917733 0.4869651,57.1304861 C-0.1623217,56.469199 -0.1623217,55.4182248 0.4869651,54.7687463 C2.304968,52.9502067 4.7250369,51.9464672 7.2985735,51.9464672 C9.8721102,51.9464672 12.292179,52.9502067 14.110182,54.7687463 C15.3025086,55.9496162 16.8844073,56.6109034 18.5725529,56.6109034 C20.2606985,56.6109034 21.8425971,55.9614249 23.0349238,54.7687463 C24.8647319,52.938398 27.2848008,51.9346585 29.8583374,51.9346585 C32.4318741,51.9346585 34.8519429,52.938398 36.6699459,54.7569376 C37.8976881,55.9850423 39.5268077,56.6581382 41.2621741,56.6581382 C42.9975406,56.6581382 44.6266601,55.9850423 45.8544024,54.7569376 C47.6842105,52.9265893 50.1042794,51.9228498 52.677816,51.9228498 Z M34.190851,0 C38.3580915,0 41.7579931,3.40090533 41.7579931,7.56937611 L41.7579931,7.56937611 L41.7579931,43.3024995 C43.3162814,43.1962212 44.7683227,42.5349341 45.8780128,41.4249164 C47.707821,39.594568 50.1278898,38.5908286 52.7014265,38.5908286 C55.2749631,38.5908286 57.695032,39.594568 59.5130349,41.4131077 C60.1623217,42.0743948 60.1623217,43.125369 59.5130349,43.7748475 C58.8519429,44.4243259 57.8012789,44.4243259 57.1519921,43.7748475 C55.9596655,42.5939776 54.3777668,41.9326904 52.6896212,41.9326904 C51.0014757,41.9326904 49.419577,42.5821689 48.2272504,43.7748475 C46.3620266,45.6288132 43.8947368,46.65617 41.2739793,46.65617 C38.6532218,46.65617 36.1859321,45.6288132 34.3325135,43.7748475 C33.1401869,42.5939776 31.5582882,41.9326904 29.8701426,41.9326904 C28.181997,41.9326904 26.6000984,42.5821689 25.4077718,43.7748475 C23.5779636,45.6051958 21.1578947,46.6089352 18.5843581,46.6089352 C16.0108214,46.6089352 13.5907526,45.6051958 11.7727496,43.7866562 C10.580423,42.6057863 8.9985243,41.9444991 7.3103788,41.9444991 C5.6222332,41.9444991 4.0403345,42.5939776 2.8480079,43.7866562 C2.1987211,44.4361346 1.1480571,44.459752 0.4987703,43.7984649 C-0.1505165,43.1371777 -0.1505165,42.0862035 0.4987703,41.4367251 C2.3167732,39.6181854 4.7368421,38.614446 7.3103788,38.614446 C9.8839154,38.614446 12.3039843,39.6181854 14.1219872,41.4367251 C14.7948844,42.1098209 15.5858337,42.6057863 16.4594196,42.9128124 L16.4594196,42.9128124 L16.4594196,7.56937611 C16.4594196,5.23125369 14.5587801,3.33005314 12.2213478,3.33005314 C9.8839154,3.33005314 7.9832759,5.23125369 7.9832759,7.56937611 C7.9832759,8.49045463 7.2395475,9.23440268 6.3187408,9.23440268 C5.3979341,9.23440268 4.6542056,8.49045463 4.6542056,7.56937611 C4.6542056,3.40090533 8.0541072,0 12.2213478,0 C16.3885883,0 19.7884899,3.40090533 19.7884899,7.56937611 L19.7884899,7.56937611 L19.7884899,13.2611691 L38.4289228,13.2611691 L38.4289228,7.56937611 C38.4289228,5.23125369 36.5282833,3.33005314 34.190851,3.33005314 C31.8534186,3.33005314 29.9527791,5.23125369 29.9527791,7.56937611 C29.9527791,8.49045463 29.2090507,9.23440268 28.288244,9.23440268 C27.3674373,9.23440268 26.6237088,8.49045463 26.6237088,7.56937611 C26.6237088,3.40090533 30.0236104,0 34.190851,0 Z M38.4053123,28.6360953 L19.7884899,28.6360953 L19.7884899,43.1607951 C21.0162322,42.9246211 22.1377275,42.3341862 23.0349238,41.4367251 C24.8647319,39.6063767 27.2848008,38.6026373 29.8583374,38.6026373 C32.4318741,38.6026373 34.8519429,39.6063767 36.6699459,41.4249164 C37.1893753,41.9444991 37.7678308,42.3578036 38.4053123,42.6648298 L38.4053123,42.6648298 L38.4053123,28.6360953 Z M38.4053123,16.6030309 L19.7884899,16.6030309 L19.7884899,25.3060421 L38.4053123,25.3060421 L38.4053123,16.6030309 Z" id="Combined-Shape"></path>
    </g>
  </g>
</svg>
