<?xml version="1.0" encoding="UTF-8"?>
<svg xmlns="http://www.w3.org/2000/svg" xmlns:xlink="http://www.w3.org/1999/xlink" width="47px" height="60px" viewBox="0 0 47 60" version="1.1">
  <title>Combined Shape</title>
  <g id="Desktop" stroke="none" stroke-width="1" fill="none" fill-rule="evenodd">
    <g id="Retirement-Village-Location" transform="translate(-351.000000, -4578.000000)" fill="#444079" fill-rule="nonzero">
      <g id="Group-5" transform="translate(0.000000, 4046.000000)">
        <g id="Group-24" transform="translate(326.000000, 372.000000)">
          <path d="M48.125,160 C54.75,160 61.25,161.375 67.375,164.125 C69.75,165.125 71.25,167.5 71.375,170.125 L71.375,170.125 L71.375,206 C71.375,208.25 69.625,210 67.375,210 L67.375,210 L63.5,210 L69.25,218 C69.625,218.5 69.5,219.375 69,219.75 C68.75,219.875 68.5,220 68.25,220 C67.875,220 67.5,219.875 67.25,219.5 L67.25,219.5 L64.75,216 L31.375,216 L28.875,219.5 C28.625,219.875 28.25,220 27.875,220 C27.625,220 27.375,219.875 27.125,219.75 C26.625,219.375 26.5,218.5 26.875,218 L26.875,218 L32.875,210 L29,210 C26.75,210 25,208.125 25,206 L25,206 L25,170.125 C25,167.5 26.5,165.125 28.875,164.125 C35,161.375 41.5,160 48.125,160 Z M60.375,210 L35.875,210 L33.25,213.5 L63,213.5 L60.375,210 Z M68.75,191.375 L27.375,191.375 L27.375,206 C27.375,206.875 28.125,207.5 28.875,207.5 L28.875,207.5 L67.375,207.5 C68.125,207.5 68.75,206.875 68.75,206 L68.75,206 L68.75,191.375 Z M61,193.875 C63.75,193.875 66,196.125 66,198.875 C66,201.625 63.75,203.875 61,203.875 C58.25,203.875 56,201.625 56,198.875 C56,196.125 58.25,193.875 61,193.875 Z M35.25,193.875 C38,193.875 40.25,196.125 40.25,198.875 C40.25,201.625 38,203.875 35.25,203.875 C32.5,203.875 30.25,201.625 30.25,198.875 C30.25,196.125 32.5,193.875 35.25,193.875 Z M61,196.375 C59.625,196.375 58.5,197.5 58.5,198.875 C58.5,200.25 59.625,201.375 61,201.375 C62.375,201.375 63.5,200.25 63.5,198.875 C63.5,197.5 62.375,196.375 61,196.375 Z M35.25,196.375 C33.875,196.375 32.75,197.5 32.75,198.875 C32.75,200.25 33.875,201.375 35.25,201.375 C36.625,201.375 37.75,200.25 37.75,198.875 C37.75,197.5 36.625,196.375 35.25,196.375 Z M46.875,173.625 L27.5,173.625 L27.5,188.875 L46.875,188.875 L46.875,173.625 Z M68.75,173.625 L49.375,173.625 L49.375,188.875 L68.75,188.875 L68.75,173.625 Z M48.125,162.5 C41.75,162.5 35.625,163.75 29.875,166.375 C28.375,167 27.5,168.5 27.5,170.125 L27.5,170.125 L27.5,171.125 L68.75,171.125 L68.75,170.125 C68.75,168.5 67.875,167 66.375,166.375 C60.625,163.75 54.5,162.5 48.125,162.5 Z" id="Combined-Shape"></path>
        </g>
      </g>
    </g>
  </g>
</svg>
